<ttFont>
    <TTGlyph name=".notdef" xMin="0" yMin="0" xMax="500" yMax="700">
      <contour>
        <pt x="0" y="700" on="1"/>
        <pt x="500" y="700" on="1"/>
        <pt x="500" y="0" on="1"/>
        <pt x="0" y="0" on="1"/>
      </contour>
      <contour>
        <pt x="420" y="650" on="1"/>
        <pt x="80" y="650" on="1"/>
        <pt x="250" y="395" on="1"/>
      </contour>
      <contour>
        <pt x="220" y="350" on="1"/>
        <pt x="50" y="605" on="1"/>
        <pt x="50" y="95" on="1"/>
      </contour>
      <contour>
        <pt x="450" y="605" on="1"/>
        <pt x="280" y="350" on="1"/>
        <pt x="450" y="95" on="1"/>
      </contour>
      <contour>
        <pt x="420" y="50" on="1"/>
        <pt x="250" y="305" on="1"/>
        <pt x="80" y="50" on="1"/>
      </contour>
    </TTGlyph>
    <TTGlyph name=".ttfautohint" xMin="0" yMin="0" xMax="0" yMax="0">
      <contour>
        <pt x="0" y="0" on="1"/>
      </contour>
    </TTGlyph>
    <TTGlyph name="A" xMin="7" yMin="0" xMax="660" yMax="686">
      <contour>
        <pt x="273" y="686" on="1"/>
        <pt x="394" y="686" on="1"/>
        <pt x="660" y="0" on="1"/>
        <pt x="559" y="0" on="1"/>
        <pt x="490" y="183" on="1"/>
        <pt x="172" y="183" on="1"/>
        <pt x="105" y="0" on="1"/>
        <pt x="7" y="0" on="1"/>
      </contour>
      <contour>
        <pt x="459" y="266" on="1"/>
        <pt x="379" y="480" on="1"/>
        <pt x="333" y="604" on="1"/>
        <pt x="328" y="604" on="1"/>
        <pt x="283" y="482" on="1"/>
        <pt x="203" y="266" on="1"/>
      </contour>
    </TTGlyph>
    <TTGlyph name="AE" xMin="-1" yMin="0" xMax="946" yMax="686">
      <contour>
        <pt x="345" y="686" on="1"/>
        <pt x="940" y="686" on="1"/>
        <pt x="940" y="603" on="1"/>
        <pt x="495" y="603" on="1"/>
        <pt x="554" y="392" on="1"/>
        <pt x="896" y="392" on="1"/>
        <pt x="896" y="309" on="1"/>
        <pt x="578" y="309" on="1"/>
        <pt x="641" y="83" on="1"/>
        <pt x="946" y="83" on="1"/>
        <pt x="946" y="0" on="1"/>
        <pt x="566" y="0" on="1"/>
        <pt x="515" y="183" on="1"/>
        <pt x="184" y="183" on="1"/>
        <pt x="94" y="0" on="1"/>
        <pt x="-1" y="0" on="1"/>
      </contour>
      <contour>
        <pt x="492" y="266" on="1"/>
        <pt x="398" y="603" on="1"/>
        <pt x="393" y="603" on="1"/>
        <pt x="225" y="266" on="1"/>
      </contour>
    </TTGlyph>
    <TTGlyph name="AEacute" xMin="-1" yMin="0" xMax="946" yMax="868">
      <component glyphName=".ttfautohint" x="0" y="0" flags="0x0"/>
      <component glyphName="AE" x="0" y="0" flags="0x0"/>
      <component glyphName="acute" x="387" y="145" flags="0x4"/>
    </TTGlyph>
    <TTGlyph name="Aacute" xMin="7" yMin="0" xMax="660" yMax="868">
      <component glyphName=".ttfautohint" x="7" y="0" flags="0x0"/>
      <component glyphName="A" x="0" y="0" flags="0x0"/>
      <component glyphName="acute" x="221" y="145" flags="0x4"/>
    </TTGlyph>
    <TTGlyph name="Abreve" xMin="7" yMin="0" xMax="660" yMax="868">
      <component glyphName=".ttfautohint" x="7" y="0" flags="0x0"/>
      <component glyphName="A" x="0" y="0" flags="0x0"/>
      <component glyphName="breve" x="167" y="145" flags="0x4"/>
    </TTGlyph>
    <TTGlyph name="Acircumflex" xMin="7" yMin="0" xMax="660" yMax="868">
      <component glyphName=".ttfautohint" x="7" y="0" flags="0x0"/>
      <component glyphName="A" x="0" y="0" flags="0x0"/>
      <component glyphName="circumflex" x="167" y="145" flags="0x4"/>
    </TTGlyph>
    <TTGlyph name="Adieresis" xMin="7" yMin="0" xMax="660" yMax="868">
      <component glyphName=".ttfautohint" x="7" y="0" flags="0x0"/>
      <component glyphName="A" x="0" y="0" flags="0x0"/>
      <component glyphName="dieresis" x="167" y="145" flags="0x4"/>
    </TTGlyph>
    <TTGlyph name="Agrave" xMin="7" yMin="0" xMax="660" yMax="868">
      <component glyphName=".ttfautohint" x="7" y="0" flags="0x0"/>
      <component glyphName="A" x="0" y="0" flags="0x0"/>
      <component glyphName="grave" x="113" y="145" flags="0x4"/>
    </TTGlyph>
    <TTGlyph name="Amacron" xMin="7" yMin="0" xMax="660" yMax="844">
      <component glyphName=".ttfautohint" x="7" y="0" flags="0x0"/>
      <component glyphName="A" x="0" y="0" flags="0x0"/>
      <component glyphName="macron" x="167" y="145" flags="0x4"/>
    </TTGlyph>
    <TTGlyph name="Aogonek" xMin="7" yMin="-182" xMax="660" yMax="686">
      <contour>
        <pt x="560" y="-182" on="0"/>
        <pt x="505" y="-139" on="0"/>
        <pt x="505" y="-92" on="1"/>
        <pt x="505" y="-63" on="0"/>
        <pt x="534" y="-20" on="0"/>
        <pt x="559" y="0" on="1"/>
        <pt x="490" y="183" on="1"/>
        <pt x="172" y="183" on="1"/>
        <pt x="105" y="0" on="1"/>
        <pt x="7" y="0" on="1"/>
        <pt x="273" y="686" on="1"/>
        <pt x="394" y="686" on="1"/>
        <pt x="660" y="0" on="1"/>
        <pt x="624" y="0" on="1"/>
        <pt x="606" y="-15" on="0"/>
        <pt x="582" y="-52" on="0"/>
        <pt x="582" y="-72" on="1"/>
        <pt x="582" y="-94" on="0"/>
        <pt x="606" y="-117" on="0"/>
        <pt x="628" y="-117" on="1"/>
        <pt x="660" y="-117" on="1"/>
        <pt x="660" y="-168" on="1"/>
        <pt x="629" y="-182" on="0"/>
        <pt x="597" y="-182" on="1"/>
      </contour>
      <contour>
        <pt x="459" y="266" on="1"/>
        <pt x="379" y="480" on="1"/>
        <pt x="333" y="604" on="1"/>
        <pt x="328" y="604" on="1"/>
        <pt x="283" y="482" on="1"/>
        <pt x="203" y="266" on="1"/>
      </contour>
    </TTGlyph>
    <TTGlyph name="Aring" xMin="7" yMin="0" xMax="660" yMax="903">
      <component glyphName=".ttfautohint" x="7" y="0" flags="0x0"/>
      <component glyphName="A" x="0" y="0" flags="0x0"/>
      <component glyphName="ring" x="167" y="145" flags="0x4"/>
    </TTGlyph>
    <TTGlyph name="Aringacute" xMin="7" yMin="0" xMax="660" yMax="993">
      <contour>
        <pt x="382" y="993" on="1"/>
        <pt x="478" y="993" on="1"/>
        <pt x="479" y="990" on="1"/>
        <pt x="371" y="861" on="1"/>
        <pt x="296" y="861" on="1"/>
      </contour>
      <contour>
        <pt x="267" y="671" on="1"/>
        <pt x="253" y="684" on="0"/>
        <pt x="237" y="721" on="0"/>
        <pt x="237" y="743" on="1"/>
        <pt x="237" y="784" on="0"/>
        <pt x="289" y="839" on="0"/>
        <pt x="333" y="839" on="1"/>
        <pt x="377" y="839" on="0"/>
        <pt x="429" y="784" on="0"/>
        <pt x="429" y="743" on="1"/>
        <pt x="429" y="697" on="0"/>
        <pt x="400" y="671" on="1"/>
        <pt x="660" y="0" on="1"/>
        <pt x="559" y="0" on="1"/>
        <pt x="490" y="183" on="1"/>
        <pt x="172" y="183" on="1"/>
        <pt x="105" y="0" on="1"/>
        <pt x="7" y="0" on="1"/>
      </contour>
      <contour>
        <pt x="355" y="692" on="0"/>
        <pt x="384" y="722" on="0"/>
        <pt x="384" y="743" on="1"/>
        <pt x="384" y="764" on="0"/>
        <pt x="355" y="794" on="0"/>
        <pt x="333" y="794" on="1"/>
        <pt x="311" y="794" on="0"/>
        <pt x="282" y="764" on="0"/>
        <pt x="282" y="743" on="1"/>
        <pt x="282" y="722" on="0"/>
        <pt x="311" y="692" on="0"/>
        <pt x="333" y="692" on="1"/>
      </contour>
      <contour>
        <pt x="459" y="266" on="1"/>
        <pt x="379" y="480" on="1"/>
        <pt x="333" y="604" on="1"/>
        <pt x="328" y="604" on="1"/>
        <pt x="283" y="482" on="1"/>
        <pt x="203" y="266" on="1"/>
      </contour>
    </TTGlyph>
    <TTGlyph name="Atilde" xMin="7" yMin="0" xMax="660" yMax="868">
      <component glyphName=".ttfautohint" x="7" y="0" flags="0x0"/>
      <component glyphName="A" x="0" y="0" flags="0x0"/>
      <component glyphName="tilde" x="167" y="145" flags="0x4"/>
    </TTGlyph>
    <TTGlyph name="B" xMin="79" yMin="0" xMax="620" yMax="686">
      <contour>
        <pt x="79" y="686" on="1"/>
        <pt x="410" y="686" on="1"/>
        <pt x="496" y="686" on="0"/>
        <pt x="601" y="594" on="0"/>
        <pt x="601" y="518" on="1"/>
        <pt x="601" y="460" on="0"/>
        <pt x="537" y="376" on="0"/>
        <pt x="487" y="360" on="1"/>
        <pt x="487" y="356" on="1"/>
        <pt x="548" y="342" on="0"/>
        <pt x="620" y="254" on="0"/>
        <pt x="620" y="182" on="1"/>
        <pt x="620" y="90" on="0"/>
        <pt x="505" y="0" on="0"/>
        <pt x="410" y="0" on="1"/>
        <pt x="79" y="0" on="1"/>
      </contour>
      <contour>
        <pt x="391" y="393" on="1"/>
        <pt x="442" y="393" on="0"/>
        <pt x="504" y="452" on="0"/>
        <pt x="504" y="499" on="1"/>
        <pt x="504" y="551" on="0"/>
        <pt x="448" y="603" on="0"/>
        <pt x="399" y="603" on="1"/>
        <pt x="174" y="603" on="1"/>
        <pt x="174" y="393" on="1"/>
      </contour>
      <contour>
        <pt x="408" y="83" on="1"/>
        <pt x="523" y="83" on="0"/>
        <pt x="523" y="194" on="1"/>
        <pt x="523" y="310" on="0"/>
        <pt x="401" y="310" on="1"/>
        <pt x="174" y="310" on="1"/>
        <pt x="174" y="83" on="1"/>
      </contour>
    </TTGlyph>
    <TTGlyph name="C" xMin="47" yMin="-12" xMax="676" yMax="698">
      <contour>
        <pt x="215" y="-12" on="0"/>
        <pt x="47" y="165" on="0"/>
        <pt x="47" y="343" on="1"/>
        <pt x="47" y="521" on="0"/>
        <pt x="215" y="698" on="0"/>
        <pt x="381" y="698" on="1"/>
        <pt x="515" y="698" on="0"/>
        <pt x="676" y="565" on="0"/>
        <pt x="676" y="438" on="1"/>
        <pt x="579" y="438" on="1"/>
        <pt x="579" y="526" on="0"/>
        <pt x="474" y="617" on="0"/>
        <pt x="381" y="617" on="1"/>
        <pt x="260" y="617" on="0"/>
        <pt x="146" y="489" on="0"/>
        <pt x="145" y="345" on="1"/>
        <pt x="145" y="343" on="1"/>
        <pt x="145" y="198" on="0"/>
        <pt x="259" y="69" on="0"/>
        <pt x="381" y="69" on="1"/>
        <pt x="476" y="69" on="0"/>
        <pt x="583" y="159" on="0"/>
        <pt x="583" y="246" on="1"/>
        <pt x="676" y="246" on="1"/>
        <pt x="676" y="118" on="0"/>
        <pt x="516" y="-12" on="0"/>
        <pt x="381" y="-12" on="1"/>
      </contour>
    </TTGlyph>
    <TTGlyph name="Cacute" xMin="47" yMin="-12" xMax="676" yMax="868">
      <component glyphName=".ttfautohint" x="47" y="0" flags="0x0"/>
      <component glyphName="C" x="0" y="0" flags="0x0"/>
      <component glyphName="acute" x="248" y="145" flags="0x4"/>
    </TTGlyph>
    <TTGlyph name="Cacute.loclPLK" xMin="47" yMin="-12" xMax="676" yMax="868">
      <component glyphName=".ttfautohint" x="47" y="0" flags="0x0"/>
      <component glyphName="C" x="0" y="0" flags="0x0"/>
      <component glyphName="acute.loclPLK" x="218" y="145" flags="0x4"/>
    </TTGlyph>
    <TTGlyph name="Ccaron" xMin="47" yMin="-12" xMax="676" yMax="868">
      <component glyphName=".ttfautohint" x="47" y="0" flags="0x0"/>
      <component glyphName="C" x="0" y="0" flags="0x0"/>
      <component glyphName="caron" x="194" y="145" flags="0x4"/>
    </TTGlyph>
    <TTGlyph name="Ccedilla" xMin="47" yMin="-182" xMax="676" yMax="698">
      <contour>
        <pt x="476" y="69" on="0"/>
        <pt x="583" y="159" on="0"/>
        <pt x="583" y="246" on="1"/>
        <pt x="676" y="246" on="1"/>
        <pt x="676" y="124" on="0"/>
        <pt x="530" y="-6" on="0"/>
        <pt x="406" y="-11" on="1"/>
        <pt x="402" y="-36" on="1"/>
        <pt x="494" y="-42" on="0"/>
        <pt x="494" y="-101" on="1"/>
        <pt x="494" y="-146" on="0"/>
        <pt x="422" y="-182" on="0"/>
        <pt x="376" y="-182" on="1"/>
        <pt x="324" y="-182" on="0"/>
        <pt x="281" y="-174" on="1"/>
        <pt x="281" y="-125" on="1"/>
        <pt x="381" y="-125" on="1"/>
        <pt x="401" y="-125" on="0"/>
        <pt x="422" y="-114" on="0"/>
        <pt x="422" y="-101" on="1"/>
        <pt x="422" y="-89" on="0"/>
        <pt x="405" y="-77" on="0"/>
        <pt x="383" y="-77" on="1"/>
        <pt x="332" y="-77" on="1"/>
        <pt x="344" y="-11" on="1"/>
        <pt x="47" y="9" on="0"/>
        <pt x="47" y="343" on="1"/>
        <pt x="47" y="521" on="0"/>
        <pt x="215" y="698" on="0"/>
        <pt x="381" y="698" on="1"/>
        <pt x="515" y="698" on="0"/>
        <pt x="676" y="565" on="0"/>
        <pt x="676" y="438" on="1"/>
        <pt x="579" y="438" on="1"/>
        <pt x="579" y="526" on="0"/>
        <pt x="474" y="617" on="0"/>
        <pt x="381" y="617" on="1"/>
        <pt x="260" y="617" on="0"/>
        <pt x="146" y="489" on="0"/>
        <pt x="145" y="345" on="1"/>
        <pt x="145" y="343" on="1"/>
        <pt x="145" y="198" on="0"/>
        <pt x="259" y="69" on="0"/>
        <pt x="381" y="69" on="1"/>
      </contour>
    </TTGlyph>
    <TTGlyph name="Ccircumflex" xMin="47" yMin="-12" xMax="676" yMax="868">
      <component glyphName=".ttfautohint" x="47" y="0" flags="0x0"/>
      <component glyphName="C" x="0" y="0" flags="0x0"/>
      <component glyphName="circumflex" x="194" y="145" flags="0x4"/>
    </TTGlyph>
    <TTGlyph name="Cdotaccent" xMin="47" yMin="-12" xMax="676" yMax="868">
      <component glyphName=".ttfautohint" x="47" y="0" flags="0x0"/>
      <component glyphName="C" x="0" y="0" flags="0x0"/>
      <component glyphName="dotaccent" x="194" y="145" flags="0x4"/>
    </TTGlyph>
    <TTGlyph name="D" xMin="79" yMin="0" xMax="676" yMax="686">
      <contour>
        <pt x="79" y="686" on="1"/>
        <pt x="333" y="686" on="1"/>
        <pt x="498" y="686" on="0"/>
        <pt x="676" y="517" on="0"/>
        <pt x="676" y="343" on="1"/>
        <pt x="676" y="169" on="0"/>
        <pt x="498" y="0" on="0"/>
        <pt x="333" y="0" on="1"/>
        <pt x="79" y="0" on="1"/>
      </contour>
      <contour>
        <pt x="333" y="83" on="1"/>
        <pt x="452" y="83" on="0"/>
        <pt x="577" y="203" on="0"/>
        <pt x="578" y="341" on="1"/>
        <pt x="578" y="343" on="1"/>
        <pt x="578" y="482" on="0"/>
        <pt x="453" y="603" on="0"/>
        <pt x="333" y="603" on="1"/>
        <pt x="174" y="603" on="1"/>
        <pt x="174" y="83" on="1"/>
      </contour>
    </TTGlyph>
    <TTGlyph name="Dcaron" xMin="79" yMin="0" xMax="676" yMax="868">
      <component glyphName=".ttfautohint" x="79" y="0" flags="0x0"/>
      <component glyphName="D" x="0" y="0" flags="0x0"/>
      <component glyphName="caron" x="194" y="145" flags="0x4"/>
    </TTGlyph>
    <TTGlyph name="Dcroat" xMin="5" yMin="0" xMax="676" yMax="686">
      <component glyphName=".ttfautohint" x="5" y="0" flags="0x0"/>
      <component glyphName="Eth" x="0" y="0" flags="0x0"/>
    </TTGlyph>
    <TTGlyph name="E" xMin="79" yMin="0" xMax="613" yMax="686">
      <contour>
        <pt x="79" y="686" on="1"/>
        <pt x="607" y="686" on="1"/>
        <pt x="607" y="603" on="1"/>
        <pt x="174" y="603" on="1"/>
        <pt x="174" y="392" on="1"/>
        <pt x="563" y="392" on="1"/>
        <pt x="563" y="309" on="1"/>
        <pt x="174" y="309" on="1"/>
        <pt x="174" y="83" on="1"/>
        <pt x="613" y="83" on="1"/>
        <pt x="613" y="0" on="1"/>
        <pt x="79" y="0" on="1"/>
      </contour>
    </TTGlyph>
    <TTGlyph name="Eacute" xMin="79" yMin="0" xMax="613" yMax="868">
      <component glyphName=".ttfautohint" x="79" y="0" flags="0x0"/>
      <component glyphName="E" x="0" y="0" flags="0x0"/>
      <component glyphName="acute" x="221" y="145" flags="0x4"/>
    </TTGlyph>
    <TTGlyph name="Ebreve" xMin="79" yMin="0" xMax="613" yMax="868">
      <component glyphName=".ttfautohint" x="79" y="0" flags="0x0"/>
      <component glyphName="E" x="0" y="0" flags="0x0"/>
      <component glyphName="breve" x="167" y="145" flags="0x4"/>
    </TTGlyph>
    <TTGlyph name="Ecaron" xMin="79" yMin="0" xMax="613" yMax="868">
      <component glyphName=".ttfautohint" x="79" y="0" flags="0x0"/>
      <component glyphName="E" x="0" y="0" flags="0x0"/>
      <component glyphName="caron" x="167" y="145" flags="0x4"/>
    </TTGlyph>
    <TTGlyph name="Ecircumflex" xMin="79" yMin="0" xMax="613" yMax="868">
      <component glyphName=".ttfautohint" x="79" y="0" flags="0x0"/>
      <component glyphName="E" x="0" y="0" flags="0x0"/>
      <component glyphName="circumflex" x="167" y="145" flags="0x4"/>
    </TTGlyph>
    <TTGlyph name="Edieresis" xMin="79" yMin="0" xMax="613" yMax="868">
      <component glyphName=".ttfautohint" x="79" y="0" flags="0x0"/>
      <component glyphName="E" x="0" y="0" flags="0x0"/>
      <component glyphName="dieresis" x="167" y="145" flags="0x4"/>
    </TTGlyph>
    <TTGlyph name="Edotaccent" xMin="79" yMin="0" xMax="613" yMax="868">
      <component glyphName=".ttfautohint" x="79" y="0" flags="0x0"/>
      <component glyphName="E" x="0" y="0" flags="0x0"/>
      <component glyphName="dotaccent" x="167" y="145" flags="0x4"/>
    </TTGlyph>
    <TTGlyph name="Egrave" xMin="79" yMin="0" xMax="613" yMax="868">
      <component glyphName=".ttfautohint" x="79" y="0" flags="0x0"/>
      <component glyphName="E" x="0" y="0" flags="0x0"/>
      <component glyphName="grave" x="113" y="145" flags="0x4"/>
    </TTGlyph>
    <TTGlyph name="Emacron" xMin="79" yMin="0" xMax="613" yMax="844">
      <component glyphName=".ttfautohint" x="79" y="0" flags="0x0"/>
      <component glyphName="E" x="0" y="0" flags="0x0"/>
      <component glyphName="macron" x="167" y="145" flags="0x4"/>
    </TTGlyph>
    <TTGlyph name="Eng" xMin="79" yMin="-182" xMax="643" yMax="686">
      <contour>
        <pt x="498" y="-182" on="0"/>
        <pt x="464" y="-170" on="1"/>
        <pt x="464" y="-113" on="1"/>
        <pt x="507" y="-113" on="1"/>
        <pt x="554" y="-113" on="0"/>
        <pt x="554" y="-65" on="1"/>
        <pt x="554" y="0" on="1"/>
        <pt x="200" y="485" on="1"/>
        <pt x="186" y="502" on="1"/>
        <pt x="172" y="518" on="1"/>
        <pt x="168" y="517" on="1"/>
        <pt x="170" y="485" on="0"/>
        <pt x="170" y="470" on="1"/>
        <pt x="168" y="0" on="1"/>
        <pt x="79" y="0" on="1"/>
        <pt x="79" y="686" on="1"/>
        <pt x="164" y="686" on="1"/>
        <pt x="526" y="208" on="1"/>
        <pt x="550" y="176" on="1"/>
        <pt x="554" y="177" on="1"/>
        <pt x="554" y="224" on="1"/>
        <pt x="554" y="686" on="1"/>
        <pt x="643" y="686" on="1"/>
        <pt x="643" y="-61" on="1"/>
        <pt x="643" y="-113" on="0"/>
        <pt x="592" y="-182" on="0"/>
        <pt x="533" y="-182" on="1"/>
      </contour>
    </TTGlyph>
    <TTGlyph name="Eogonek" xMin="79" yMin="-182" xMax="613" yMax="686">
      <contour>
        <pt x="512" y="-182" on="0"/>
        <pt x="450" y="-140" on="0"/>
        <pt x="450" y="-94" on="1"/>
        <pt x="450" y="-32" on="0"/>
        <pt x="513" y="0" on="1"/>
        <pt x="79" y="0" on="1"/>
        <pt x="79" y="686" on="1"/>
        <pt x="607" y="686" on="1"/>
        <pt x="607" y="603" on="1"/>
        <pt x="174" y="603" on="1"/>
        <pt x="174" y="392" on="1"/>
        <pt x="563" y="392" on="1"/>
        <pt x="563" y="309" on="1"/>
        <pt x="174" y="309" on="1"/>
        <pt x="174" y="83" on="1"/>
        <pt x="613" y="83" on="1"/>
        <pt x="613" y="0" on="1"/>
        <pt x="572" y="0" on="0"/>
        <pt x="528" y="-43" on="0"/>
        <pt x="528" y="-66" on="1"/>
        <pt x="528" y="-88" on="0"/>
        <pt x="554" y="-117" on="0"/>
        <pt x="581" y="-117" on="1"/>
        <pt x="613" y="-117" on="1"/>
        <pt x="613" y="-168" on="1"/>
        <pt x="579" y="-182" on="0"/>
        <pt x="548" y="-182" on="1"/>
      </contour>
    </TTGlyph>
    <TTGlyph name="Eth" xMin="5" yMin="0" xMax="676" yMax="686">
      <contour>
        <pt x="498" y="686" on="0"/>
        <pt x="676" y="517" on="0"/>
        <pt x="676" y="343" on="1"/>
        <pt x="676" y="169" on="0"/>
        <pt x="498" y="0" on="0"/>
        <pt x="333" y="0" on="1"/>
        <pt x="79" y="0" on="1"/>
        <pt x="79" y="324" on="1"/>
        <pt x="5" y="324" on="1"/>
        <pt x="5" y="387" on="1"/>
        <pt x="79" y="387" on="1"/>
        <pt x="79" y="686" on="1"/>
        <pt x="333" y="686" on="1"/>
      </contour>
      <contour>
        <pt x="578" y="343" on="1"/>
        <pt x="578" y="482" on="0"/>
        <pt x="453" y="603" on="0"/>
        <pt x="333" y="603" on="1"/>
        <pt x="174" y="603" on="1"/>
        <pt x="174" y="387" on="1"/>
        <pt x="347" y="387" on="1"/>
        <pt x="347" y="324" on="1"/>
        <pt x="174" y="324" on="1"/>
        <pt x="174" y="83" on="1"/>
        <pt x="333" y="83" on="1"/>
        <pt x="452" y="83" on="0"/>
        <pt x="577" y="203" on="0"/>
        <pt x="578" y="341" on="1"/>
      </contour>
    </TTGlyph>
    <TTGlyph name="Euro" xMin="19" yMin="-12" xMax="521" yMax="698">
      <contour>
        <pt x="300" y="-12" on="0"/>
        <pt x="123" y="121" on="0"/>
        <pt x="97" y="243" on="1"/>
        <pt x="19" y="243" on="1"/>
        <pt x="19" y="308" on="1"/>
        <pt x="88" y="308" on="1"/>
        <pt x="87" y="319" on="0"/>
        <pt x="87" y="343" on="1"/>
        <pt x="87" y="366" on="0"/>
        <pt x="88" y="378" on="1"/>
        <pt x="19" y="378" on="1"/>
        <pt x="19" y="443" on="1"/>
        <pt x="97" y="443" on="1"/>
        <pt x="123" y="565" on="0"/>
        <pt x="300" y="698" on="0"/>
        <pt x="439" y="698" on="1"/>
        <pt x="482" y="698" on="0"/>
        <pt x="521" y="688" on="1"/>
        <pt x="521" y="617" on="1"/>
        <pt x="486" y="625" on="0"/>
        <pt x="453" y="625" on="1"/>
        <pt x="356" y="625" on="0"/>
        <pt x="216" y="533" on="0"/>
        <pt x="193" y="443" on="1"/>
        <pt x="450" y="443" on="1"/>
        <pt x="450" y="378" on="1"/>
        <pt x="182" y="378" on="1"/>
        <pt x="181" y="366" on="0"/>
        <pt x="181" y="343" on="1"/>
        <pt x="181" y="319" on="0"/>
        <pt x="182" y="308" on="1"/>
        <pt x="450" y="308" on="1"/>
        <pt x="450" y="243" on="1"/>
        <pt x="193" y="243" on="1"/>
        <pt x="216" y="153" on="0"/>
        <pt x="356" y="61" on="0"/>
        <pt x="453" y="61" on="1"/>
        <pt x="486" y="61" on="0"/>
        <pt x="521" y="69" on="1"/>
        <pt x="521" y="-2" on="1"/>
        <pt x="476" y="-12" on="0"/>
        <pt x="439" y="-12" on="1"/>
      </contour>
    </TTGlyph>
    <TTGlyph name="F" xMin="79" yMin="0" xMax="565" yMax="686">
      <contour>
        <pt x="79" y="686" on="1"/>
        <pt x="565" y="686" on="1"/>
        <pt x="565" y="603" on="1"/>
        <pt x="174" y="603" on="1"/>
        <pt x="174" y="385" on="1"/>
        <pt x="529" y="385" on="1"/>
        <pt x="529" y="302" on="1"/>
        <pt x="174" y="302" on="1"/>
        <pt x="174" y="0" on="1"/>
        <pt x="79" y="0" on="1"/>
      </contour>
    </TTGlyph>
    <TTGlyph name="G" xMin="47" yMin="-12" xMax="707" yMax="698">
      <contour>
        <pt x="370" y="357" on="1"/>
        <pt x="707" y="357" on="1"/>
        <pt x="707" y="0" on="1"/>
        <pt x="633" y="0" on="1"/>
        <pt x="626" y="76" on="1"/>
        <pt x="548" y="-12" on="0"/>
        <pt x="387" y="-12" on="1"/>
        <pt x="219" y="-12" on="0"/>
        <pt x="47" y="165" on="0"/>
        <pt x="47" y="343" on="1"/>
        <pt x="47" y="698" on="0"/>
        <pt x="393" y="698" on="1"/>
        <pt x="535" y="698" on="0"/>
        <pt x="707" y="572" on="0"/>
        <pt x="707" y="452" on="1"/>
        <pt x="610" y="452" on="1"/>
        <pt x="610" y="535" on="0"/>
        <pt x="494" y="617" on="0"/>
        <pt x="393" y="617" on="1"/>
        <pt x="268" y="617" on="0"/>
        <pt x="146" y="489" on="0"/>
        <pt x="146" y="343" on="1"/>
        <pt x="146" y="341" on="1"/>
        <pt x="147" y="196" on="0"/>
        <pt x="266" y="69" on="0"/>
        <pt x="387" y="69" on="1"/>
        <pt x="503" y="69" on="0"/>
        <pt x="612" y="165" on="0"/>
        <pt x="612" y="264" on="1"/>
        <pt x="612" y="274" on="1"/>
        <pt x="370" y="274" on="1"/>
      </contour>
    </TTGlyph>
    <TTGlyph name="G_tilde.loclGUA" xMin="47" yMin="-12" xMax="707" yMax="868">
      <component glyphName=".ttfautohint" x="47" y="0" flags="0x0"/>
      <component glyphName="G" x="0" y="0" flags="0x0"/>
      <component glyphName="tilde" x="222" y="145" flags="0x4"/>
    </TTGlyph>
    <TTGlyph name="Gbreve" xMin="47" yMin="-12" xMax="707" yMax="868">
      <component glyphName=".ttfautohint" x="47" y="0" flags="0x0"/>
      <component glyphName="G" x="0" y="0" flags="0x0"/>
      <component glyphName="breve" x="222" y="145" flags="0x4"/>
    </TTGlyph>
    <TTGlyph name="Gcaron" xMin="47" yMin="-12" xMax="707" yMax="868">
      <component glyphName=".ttfautohint" x="47" y="0" flags="0x0"/>
      <component glyphName="G" x="0" y="0" flags="0x0"/>
      <component glyphName="caron" x="222" y="145" flags="0x4"/>
    </TTGlyph>
    <TTGlyph name="Gcircumflex" xMin="47" yMin="-12" xMax="707" yMax="868">
      <component glyphName=".ttfautohint" x="47" y="0" flags="0x0"/>
      <component glyphName="G" x="0" y="0" flags="0x0"/>
      <component glyphName="circumflex" x="222" y="145" flags="0x4"/>
    </TTGlyph>
    <TTGlyph name="Gcommaaccent" xMin="47" yMin="-230" xMax="707" yMax="698">
      <component glyphName=".ttfautohint" x="47" y="0" flags="0x0"/>
      <component glyphName="G" x="0" y="0" flags="0x0"/>
      <component glyphName="uni0326" x="500" y="0" flags="0x0"/>
    </TTGlyph>
    <TTGlyph name="Gdotaccent" xMin="47" yMin="-12" xMax="707" yMax="868">
      <component glyphName=".ttfautohint" x="47" y="0" flags="0x0"/>
      <component glyphName="G" x="0" y="0" flags="0x0"/>
      <component glyphName="dotaccent" x="222" y="145" flags="0x4"/>
    </TTGlyph>
    <TTGlyph name="H" xMin="79" yMin="0" xMax="643" yMax="686">
      <contour>
        <pt x="79" y="686" on="1"/>
        <pt x="174" y="686" on="1"/>
        <pt x="174" y="392" on="1"/>
        <pt x="548" y="392" on="1"/>
        <pt x="548" y="686" on="1"/>
        <pt x="643" y="686" on="1"/>
        <pt x="643" y="0" on="1"/>
        <pt x="548" y="0" on="1"/>
        <pt x="548" y="309" on="1"/>
        <pt x="174" y="309" on="1"/>
        <pt x="174" y="0" on="1"/>
        <pt x="79" y="0" on="1"/>
      </contour>
    </TTGlyph>
    <TTGlyph name="Hbar" xMin="9" yMin="0" xMax="713" yMax="686">
      <contour>
        <pt x="79" y="526" on="1"/>
        <pt x="9" y="526" on="1"/>
        <pt x="9" y="598" on="1"/>
        <pt x="79" y="598" on="1"/>
        <pt x="79" y="686" on="1"/>
        <pt x="174" y="686" on="1"/>
        <pt x="174" y="598" on="1"/>
        <pt x="548" y="598" on="1"/>
        <pt x="548" y="686" on="1"/>
        <pt x="643" y="686" on="1"/>
        <pt x="643" y="598" on="1"/>
        <pt x="713" y="598" on="1"/>
        <pt x="713" y="526" on="1"/>
        <pt x="643" y="526" on="1"/>
        <pt x="643" y="0" on="1"/>
        <pt x="548" y="0" on="1"/>
        <pt x="548" y="309" on="1"/>
        <pt x="174" y="309" on="1"/>
        <pt x="174" y="0" on="1"/>
        <pt x="79" y="0" on="1"/>
      </contour>
      <contour>
        <pt x="548" y="392" on="1"/>
        <pt x="548" y="526" on="1"/>
        <pt x="174" y="526" on="1"/>
        <pt x="174" y="392" on="1"/>
      </contour>
    </TTGlyph>
    <TTGlyph name="Hcircumflex" xMin="79" yMin="0" xMax="643" yMax="868">
      <component glyphName=".ttfautohint" x="79" y="0" flags="0x0"/>
      <component glyphName="H" x="0" y="0" flags="0x0"/>
      <component glyphName="circumflex" x="194" y="145" flags="0x4"/>
    </TTGlyph>
    <TTGlyph name="I" xMin="92" yMin="0" xMax="187" yMax="686">
      <contour>
        <pt x="92" y="686" on="1"/>
        <pt x="187" y="686" on="1"/>
        <pt x="187" y="0" on="1"/>
        <pt x="92" y="0" on="1"/>
      </contour>
    </TTGlyph>
    <TTGlyph name="IJ" xMin="92" yMin="-12" xMax="700" yMax="686">
      <component glyphName=".ttfautohint" x="92" y="0" flags="0x0"/>
      <component glyphName="I" x="0" y="0" flags="0x0"/>
      <component glyphName="J" x="278" y="0" flags="0x0"/>
    </TTGlyph>
    <TTGlyph name="Iacute" xMin="92" yMin="0" xMax="284" yMax="868">
      <component glyphName=".ttfautohint" x="92" y="0" flags="0x0"/>
      <component glyphName="I" x="0" y="0" flags="0x0"/>
      <component glyphName="acute" x="26" y="145" flags="0x4"/>
    </TTGlyph>
    <TTGlyph name="Iacute_J.loclNLD" xMin="92" yMin="-12" xMax="798" yMax="868">
      <component glyphName=".ttfautohint" x="92" y="0" flags="0x0"/>
      <component glyphName="I" x="0" y="0" flags="0x0"/>
      <component glyphName="acute" x="26" y="145" flags="0x4"/>
      <component glyphName="J" x="278" y="0" flags="0x0"/>
      <component glyphName="acute" x="540" y="145" flags="0x4"/>
    </TTGlyph>
    <TTGlyph name="Ibreve" xMin="-7" yMin="0" xMax="284" yMax="868">
      <component glyphName=".ttfautohint" x="0" y="0" flags="0x0"/>
      <component glyphName="I" x="0" y="0" flags="0x0"/>
      <component glyphName="breve" x="-28" y="145" flags="0x4"/>
    </TTGlyph>
    <TTGlyph name="Icircumflex" xMin="-9" yMin="0" xMax="286" yMax="868">
      <component glyphName=".ttfautohint" x="0" y="0" flags="0x0"/>
      <component glyphName="I" x="0" y="0" flags="0x0"/>
      <component glyphName="circumflex" x="-28" y="145" flags="0x4"/>
    </TTGlyph>
    <TTGlyph name="Idieresis" xMin="2" yMin="0" xMax="276" yMax="868">
      <component glyphName=".ttfautohint" x="2" y="0" flags="0x0"/>
      <component glyphName="I" x="0" y="0" flags="0x0"/>
      <component glyphName="dieresis" x="-28" y="145" flags="0x4"/>
    </TTGlyph>
    <TTGlyph name="Idotaccent" xMin="92" yMin="0" xMax="187" yMax="868">
      <component glyphName=".ttfautohint" x="92" y="0" flags="0x0"/>
      <component glyphName="I" x="0" y="0" flags="0x0"/>
      <component glyphName="dotaccent" x="-28" y="145" flags="0x4"/>
    </TTGlyph>
    <TTGlyph name="Igrave" xMin="-7" yMin="0" xMax="187" yMax="868">
      <component glyphName=".ttfautohint" x="0" y="0" flags="0x0"/>
      <component glyphName="I" x="0" y="0" flags="0x0"/>
      <component glyphName="grave" x="-82" y="145" flags="0x4"/>
    </TTGlyph>
    <TTGlyph name="Imacron" xMin="-14" yMin="0" xMax="291" yMax="844">
      <component glyphName=".ttfautohint" x="0" y="0" flags="0x0"/>
      <component glyphName="I" x="0" y="0" flags="0x0"/>
      <component glyphName="macron" x="-28" y="145" flags="0x4"/>
    </TTGlyph>
    <TTGlyph name="Iogonek" xMin="41" yMin="-190" xMax="204" yMax="686">
      <contour>
        <pt x="204" y="-125" on="1"/>
        <pt x="204" y="-176" on="1"/>
        <pt x="171" y="-190" on="0"/>
        <pt x="143" y="-190" on="1"/>
        <pt x="101" y="-190" on="0"/>
        <pt x="41" y="-147" on="0"/>
        <pt x="41" y="-100" on="1"/>
        <pt x="41" y="-68" on="0"/>
        <pt x="68" y="-22" on="0"/>
        <pt x="93" y="0" on="1"/>
        <pt x="92" y="0" on="1"/>
        <pt x="92" y="686" on="1"/>
        <pt x="187" y="686" on="1"/>
        <pt x="187" y="0" on="1"/>
        <pt x="157" y="0" on="1"/>
        <pt x="142" y="-14" on="0"/>
        <pt x="119" y="-51" on="0"/>
        <pt x="119" y="-70" on="1"/>
        <pt x="119" y="-93" on="0"/>
        <pt x="145" y="-125" on="0"/>
        <pt x="172" y="-125" on="1"/>
      </contour>
    </TTGlyph>
    <TTGlyph name="Itilde" xMin="-25" yMin="0" xMax="302" yMax="868">
      <component glyphName=".ttfautohint" x="0" y="0" flags="0x0"/>
      <component glyphName="I" x="0" y="0" flags="0x0"/>
      <component glyphName="tilde" x="-28" y="145" flags="0x4"/>
    </TTGlyph>
    <TTGlyph name="J" xMin="29" yMin="-12" xMax="422" yMax="686">
      <contour>
        <pt x="131" y="-12" on="0"/>
        <pt x="29" y="88" on="0"/>
        <pt x="29" y="183" on="1"/>
        <pt x="29" y="208" on="1"/>
        <pt x="124" y="208" on="1"/>
        <pt x="124" y="178" on="1"/>
        <pt x="124" y="124" on="0"/>
        <pt x="176" y="69" on="0"/>
        <pt x="225" y="69" on="1"/>
        <pt x="275" y="69" on="0"/>
        <pt x="327" y="132" on="0"/>
        <pt x="327" y="194" on="1"/>
        <pt x="327" y="686" on="1"/>
        <pt x="422" y="686" on="1"/>
        <pt x="422" y="199" on="1"/>
        <pt x="422" y="94" on="0"/>
        <pt x="320" y="-12" on="0"/>
        <pt x="225" y="-12" on="1"/>
      </contour>
    </TTGlyph>
    <TTGlyph name="Jcircumflex" xMin="29" yMin="-12" xMax="522" yMax="868">
      <component glyphName=".ttfautohint" x="29" y="0" flags="0x0"/>
      <component glyphName="J" x="0" y="0" flags="0x0"/>
      <component glyphName="circumflex" x="208" y="145" flags="0x4"/>
    </TTGlyph>
    <TTGlyph name="K" xMin="79" yMin="0" xMax="664" yMax="686">
      <contour>
        <pt x="79" y="686" on="1"/>
        <pt x="174" y="686" on="1"/>
        <pt x="174" y="308" on="1"/>
        <pt x="537" y="686" on="1"/>
        <pt x="655" y="686" on="1"/>
        <pt x="394" y="412" on="1"/>
        <pt x="664" y="0" on="1"/>
        <pt x="551" y="0" on="1"/>
        <pt x="328" y="344" on="1"/>
        <pt x="174" y="200" on="1"/>
        <pt x="174" y="0" on="1"/>
        <pt x="79" y="0" on="1"/>
      </contour>
    </TTGlyph>
    <TTGlyph name="Kcommaaccent" xMin="79" yMin="-230" xMax="664" yMax="686">
      <component glyphName=".ttfautohint" x="79" y="0" flags="0x0"/>
      <component glyphName="K" x="0" y="0" flags="0x0"/>
      <component glyphName="uni0326" x="445" y="0" flags="0x0"/>
    </TTGlyph>
    <TTGlyph name="L" xMin="79" yMin="0" xMax="526" yMax="686">
      <contour>
        <pt x="79" y="686" on="1"/>
        <pt x="174" y="686" on="1"/>
        <pt x="174" y="83" on="1"/>
        <pt x="526" y="83" on="1"/>
        <pt x="526" y="0" on="1"/>
        <pt x="79" y="0" on="1"/>
      </contour>
    </TTGlyph>
    <TTGlyph name="Lacute" xMin="79" yMin="0" xMax="526" yMax="868">
      <component glyphName=".ttfautohint" x="79" y="0" flags="0x0"/>
      <component glyphName="L" x="0" y="0" flags="0x0"/>
      <component glyphName="acute" x="14" y="145" flags="0x4"/>
    </TTGlyph>
    <TTGlyph name="Lcaron" xMin="79" yMin="0" xMax="526" yMax="686">
      <contour>
        <pt x="79" y="686" on="1"/>
        <pt x="174" y="686" on="1"/>
        <pt x="174" y="83" on="1"/>
        <pt x="526" y="83" on="1"/>
        <pt x="526" y="0" on="1"/>
        <pt x="79" y="0" on="1"/>
      </contour>
      <contour>
        <pt x="354" y="595" on="1"/>
        <pt x="320" y="595" on="1"/>
        <pt x="320" y="686" on="1"/>
        <pt x="405" y="686" on="1"/>
        <pt x="405" y="602" on="1"/>
        <pt x="364" y="490" on="1"/>
        <pt x="320" y="490" on="1"/>
      </contour>
    </TTGlyph>
    <TTGlyph name="Lcommaaccent" xMin="79" yMin="-230" xMax="526" yMax="686">
      <component glyphName=".ttfautohint" x="79" y="0" flags="0x0"/>
      <component glyphName="L" x="0" y="0" flags="0x0"/>
      <component glyphName="uni0326" x="414" y="0" flags="0x0"/>
    </TTGlyph>
    <TTGlyph name="Ldot" xMin="79" yMin="0" xMax="526" yMax="686">
      <component glyphName=".ttfautohint" x="79" y="0" flags="0x0"/>
      <component glyphName="L" x="0" y="0" flags="0x0"/>
      <component glyphName="periodcentered" x="235" y="115" flags="0x4"/>
    </TTGlyph>
    <TTGlyph name="Lslash" xMin="5" yMin="0" xMax="526" yMax="686">
      <contour>
        <pt x="79" y="265" on="1"/>
        <pt x="5" y="216" on="1"/>
        <pt x="5" y="297" on="1"/>
        <pt x="79" y="346" on="1"/>
        <pt x="79" y="686" on="1"/>
        <pt x="174" y="686" on="1"/>
        <pt x="174" y="409" on="1"/>
        <pt x="341" y="520" on="1"/>
        <pt x="341" y="438" on="1"/>
        <pt x="174" y="327" on="1"/>
        <pt x="174" y="83" on="1"/>
        <pt x="526" y="83" on="1"/>
        <pt x="526" y="0" on="1"/>
        <pt x="79" y="0" on="1"/>
      </contour>
    </TTGlyph>
    <TTGlyph name="M" xMin="79" yMin="0" xMax="754" yMax="686">
      <contour>
        <pt x="79" y="686" on="1"/>
        <pt x="220" y="686" on="1"/>
        <pt x="384" y="218" on="1"/>
        <pt x="393" y="192" on="0"/>
        <pt x="412" y="125" on="0"/>
        <pt x="415" y="115" on="1"/>
        <pt x="419" y="115" on="1"/>
        <pt x="422" y="126" on="0"/>
        <pt x="441" y="196" on="0"/>
        <pt x="449" y="218" on="1"/>
        <pt x="614" y="686" on="1"/>
        <pt x="754" y="686" on="1"/>
        <pt x="754" y="0" on="1"/>
        <pt x="659" y="0" on="1"/>
        <pt x="659" y="453" on="1"/>
        <pt x="661" y="581" on="1"/>
        <pt x="654" y="581" on="1"/>
        <pt x="653" y="574" on="0"/>
        <pt x="643" y="531" on="0"/>
        <pt x="637" y="515" on="1"/>
        <pt x="451" y="0" on="1"/>
        <pt x="372" y="0" on="1"/>
        <pt x="189" y="515" on="1"/>
        <pt x="184" y="529" on="0"/>
        <pt x="173" y="574" on="0"/>
        <pt x="172" y="581" on="1"/>
        <pt x="166" y="581" on="1"/>
        <pt x="168" y="453" on="1"/>
        <pt x="168" y="0" on="1"/>
        <pt x="79" y="0" on="1"/>
      </contour>
    </TTGlyph>
    <TTGlyph name="N" xMin="79" yMin="0" xMax="643" yMax="686">
      <contour>
        <pt x="79" y="686" on="1"/>
        <pt x="164" y="686" on="1"/>
        <pt x="526" y="208" on="1"/>
        <pt x="550" y="176" on="1"/>
        <pt x="554" y="177" on="1"/>
        <pt x="554" y="224" on="1"/>
        <pt x="554" y="686" on="1"/>
        <pt x="643" y="686" on="1"/>
        <pt x="643" y="0" on="1"/>
        <pt x="562" y="0" on="1"/>
        <pt x="198" y="484" on="1"/>
        <pt x="172" y="519" on="1"/>
        <pt x="168" y="518" on="1"/>
        <pt x="168" y="471" on="1"/>
        <pt x="168" y="0" on="1"/>
        <pt x="79" y="0" on="1"/>
      </contour>
    </TTGlyph>
    <TTGlyph name="Nacute" xMin="79" yMin="0" xMax="643" yMax="868">
      <component glyphName=".ttfautohint" x="79" y="0" flags="0x0"/>
      <component glyphName="N" x="0" y="0" flags="0x0"/>
      <component glyphName="acute" x="248" y="145" flags="0x4"/>
    </TTGlyph>
    <TTGlyph name="Nacute.loclPLK" xMin="79" yMin="0" xMax="643" yMax="868">
      <component glyphName=".ttfautohint" x="79" y="0" flags="0x0"/>
      <component glyphName="N" x="0" y="0" flags="0x0"/>
      <component glyphName="acute.loclPLK" x="218" y="145" flags="0x4"/>
    </TTGlyph>
    <TTGlyph name="Ncaron" xMin="79" yMin="0" xMax="643" yMax="868">
      <component glyphName=".ttfautohint" x="79" y="0" flags="0x0"/>
      <component glyphName="N" x="0" y="0" flags="0x0"/>
      <component glyphName="caron" x="194" y="145" flags="0x4"/>
    </TTGlyph>
    <TTGlyph name="Ncommaaccent" xMin="79" yMin="-230" xMax="643" yMax="686">
      <component glyphName=".ttfautohint" x="79" y="0" flags="0x0"/>
      <component glyphName="N" x="0" y="0" flags="0x0"/>
      <component glyphName="uni0326" x="472" y="0" flags="0x0"/>
    </TTGlyph>
    <TTGlyph name="Ntilde" xMin="79" yMin="0" xMax="643" yMax="868">
      <component glyphName=".ttfautohint" x="79" y="0" flags="0x0"/>
      <component glyphName="N" x="0" y="0" flags="0x0"/>
      <component glyphName="tilde" x="194" y="145" flags="0x4"/>
    </TTGlyph>
    <TTGlyph name="O" xMin="47" yMin="-12" xMax="732" yMax="698">
      <contour>
        <pt x="226" y="-12" on="0"/>
        <pt x="47" y="167" on="0"/>
        <pt x="47" y="343" on="1"/>
        <pt x="47" y="519" on="0"/>
        <pt x="226" y="698" on="0"/>
        <pt x="389" y="698" on="1"/>
        <pt x="553" y="698" on="0"/>
        <pt x="732" y="519" on="0"/>
        <pt x="732" y="343" on="1"/>
        <pt x="732" y="168" on="0"/>
        <pt x="553" y="-12" on="0"/>
        <pt x="389" y="-12" on="1"/>
      </contour>
      <contour>
        <pt x="508" y="69" on="0"/>
        <pt x="634" y="198" on="0"/>
        <pt x="634" y="339" on="1"/>
        <pt x="634" y="343" on="1"/>
        <pt x="633" y="486" on="0"/>
        <pt x="507" y="617" on="0"/>
        <pt x="389" y="617" on="1"/>
        <pt x="272" y="617" on="0"/>
        <pt x="146" y="486" on="0"/>
        <pt x="145" y="343" on="1"/>
        <pt x="145" y="339" on="1"/>
        <pt x="145" y="198" on="0"/>
        <pt x="271" y="69" on="0"/>
        <pt x="389" y="69" on="1"/>
      </contour>
    </TTGlyph>
    <TTGlyph name="OE" xMin="47" yMin="-12" xMax="946" yMax="698">
      <contour>
        <pt x="190" y="-12" on="0"/>
        <pt x="47" y="167" on="0"/>
        <pt x="47" y="343" on="1"/>
        <pt x="47" y="519" on="0"/>
        <pt x="190" y="698" on="0"/>
        <pt x="321" y="698" on="1"/>
        <pt x="439" y="698" on="0"/>
        <pt x="507" y="610" on="1"/>
        <pt x="507" y="686" on="1"/>
        <pt x="939" y="686" on="1"/>
        <pt x="939" y="606" on="1"/>
        <pt x="602" y="606" on="1"/>
        <pt x="602" y="391" on="1"/>
        <pt x="884" y="391" on="1"/>
        <pt x="884" y="311" on="1"/>
        <pt x="602" y="311" on="1"/>
        <pt x="602" y="80" on="1"/>
        <pt x="946" y="80" on="1"/>
        <pt x="946" y="0" on="1"/>
        <pt x="507" y="0" on="1"/>
        <pt x="507" y="76" on="1"/>
        <pt x="440" y="-12" on="0"/>
        <pt x="321" y="-12" on="1"/>
      </contour>
      <contour>
        <pt x="418" y="69" on="0"/>
        <pt x="507" y="198" on="0"/>
        <pt x="507" y="343" on="1"/>
        <pt x="507" y="488" on="0"/>
        <pt x="418" y="617" on="0"/>
        <pt x="334" y="617" on="1"/>
        <pt x="239" y="617" on="0"/>
        <pt x="145" y="490" on="0"/>
        <pt x="145" y="343" on="1"/>
        <pt x="145" y="196" on="0"/>
        <pt x="239" y="69" on="0"/>
        <pt x="334" y="69" on="1"/>
      </contour>
    </TTGlyph>
    <TTGlyph name="Oacute" xMin="47" yMin="-12" xMax="732" yMax="868">
      <component glyphName=".ttfautohint" x="47" y="0" flags="0x0"/>
      <component glyphName="O" x="0" y="0" flags="0x0"/>
      <component glyphName="acute" x="276" y="145" flags="0x4"/>
    </TTGlyph>
    <TTGlyph name="Oacute.loclPLK" xMin="47" yMin="-12" xMax="732" yMax="868">
      <component glyphName=".ttfautohint" x="47" y="0" flags="0x0"/>
      <component glyphName="O" x="0" y="0" flags="0x0"/>
      <component glyphName="acute.loclPLK" x="246" y="145" flags="0x4"/>
    </TTGlyph>
    <TTGlyph name="Obreve" xMin="47" yMin="-12" xMax="732" yMax="868">
      <component glyphName=".ttfautohint" x="47" y="0" flags="0x0"/>
      <component glyphName="O" x="0" y="0" flags="0x0"/>
      <component glyphName="breve" x="222" y="145" flags="0x4"/>
    </TTGlyph>
    <TTGlyph name="Ocircumflex" xMin="47" yMin="-12" xMax="732" yMax="868">
      <component glyphName=".ttfautohint" x="47" y="0" flags="0x0"/>
      <component glyphName="O" x="0" y="0" flags="0x0"/>
      <component glyphName="circumflex" x="222" y="145" flags="0x4"/>
    </TTGlyph>
    <TTGlyph name="Odieresis" xMin="47" yMin="-12" xMax="732" yMax="868">
      <component glyphName=".ttfautohint" x="47" y="0" flags="0x0"/>
      <component glyphName="O" x="0" y="0" flags="0x0"/>
      <component glyphName="dieresis" x="222" y="145" flags="0x4"/>
    </TTGlyph>
    <TTGlyph name="Ograve" xMin="47" yMin="-12" xMax="732" yMax="868">
      <component glyphName=".ttfautohint" x="47" y="0" flags="0x0"/>
      <component glyphName="O" x="0" y="0" flags="0x0"/>
      <component glyphName="grave" x="168" y="145" flags="0x4"/>
    </TTGlyph>
    <TTGlyph name="Ohorn" xMin="47" yMin="-12" xMax="778" yMax="828">
      <contour>
        <pt x="778" y="708" on="0"/>
        <pt x="716" y="617" on="0"/>
        <pt x="656" y="594" on="1"/>
        <pt x="732" y="502" on="0"/>
        <pt x="732" y="343" on="1"/>
        <pt x="732" y="168" on="0"/>
        <pt x="553" y="-12" on="0"/>
        <pt x="389" y="-12" on="1"/>
        <pt x="226" y="-12" on="0"/>
        <pt x="47" y="167" on="0"/>
        <pt x="47" y="343" on="1"/>
        <pt x="47" y="519" on="0"/>
        <pt x="226" y="698" on="0"/>
        <pt x="389" y="698" on="1"/>
        <pt x="526" y="698" on="0"/>
        <pt x="609" y="637" on="1"/>
        <pt x="693" y="655" on="0"/>
        <pt x="711" y="720" on="1"/>
        <pt x="658" y="720" on="1"/>
        <pt x="658" y="828" on="1"/>
        <pt x="778" y="828" on="1"/>
        <pt x="778" y="774" on="1"/>
      </contour>
      <contour>
        <pt x="634" y="343" on="1"/>
        <pt x="633" y="486" on="0"/>
        <pt x="507" y="617" on="0"/>
        <pt x="389" y="617" on="1"/>
        <pt x="272" y="617" on="0"/>
        <pt x="146" y="486" on="0"/>
        <pt x="145" y="343" on="1"/>
        <pt x="145" y="339" on="1"/>
        <pt x="145" y="198" on="0"/>
        <pt x="271" y="69" on="0"/>
        <pt x="389" y="69" on="1"/>
        <pt x="508" y="69" on="0"/>
        <pt x="634" y="198" on="0"/>
        <pt x="634" y="339" on="1"/>
      </contour>
    </TTGlyph>
    <TTGlyph name="Ohungarumlaut" xMin="47" yMin="-12" xMax="732" yMax="868">
      <component glyphName=".ttfautohint" x="47" y="0" flags="0x0"/>
      <component glyphName="O" x="0" y="0" flags="0x0"/>
      <component glyphName="hungarumlaut" x="254" y="145" flags="0x4"/>
    </TTGlyph>
    <TTGlyph name="Omacron" xMin="47" yMin="-12" xMax="732" yMax="844">
      <component glyphName=".ttfautohint" x="47" y="0" flags="0x0"/>
      <component glyphName="O" x="0" y="0" flags="0x0"/>
      <component glyphName="macron" x="222" y="145" flags="0x4"/>
    </TTGlyph>
    <TTGlyph name="Oslash" xMin="47" yMin="-49" xMax="732" yMax="735">
      <contour>
        <pt x="141" y="73" on="1"/>
        <pt x="47" y="164" on="0"/>
        <pt x="47" y="343" on="1"/>
        <pt x="47" y="519" on="0"/>
        <pt x="226" y="698" on="0"/>
        <pt x="389" y="698" on="1"/>
        <pt x="506" y="698" on="0"/>
        <pt x="585" y="652" on="1"/>
        <pt x="648" y="735" on="1"/>
        <pt x="732" y="735" on="1"/>
        <pt x="638" y="612" on="1"/>
        <pt x="732" y="521" on="0"/>
        <pt x="732" y="343" on="1"/>
        <pt x="732" y="168" on="0"/>
        <pt x="553" y="-12" on="0"/>
        <pt x="389" y="-12" on="1"/>
        <pt x="272" y="-12" on="0"/>
        <pt x="194" y="32" on="1"/>
        <pt x="132" y="-49" on="1"/>
        <pt x="47" y="-49" on="1"/>
      </contour>
      <contour>
        <pt x="532" y="583" on="1"/>
        <pt x="474" y="617" on="0"/>
        <pt x="389" y="617" on="1"/>
        <pt x="271" y="617" on="0"/>
        <pt x="145" y="488" on="0"/>
        <pt x="145" y="347" on="1"/>
        <pt x="145" y="343" on="1"/>
        <pt x="145" y="214" on="0"/>
        <pt x="197" y="147" on="1"/>
      </contour>
      <contour>
        <pt x="508" y="69" on="0"/>
        <pt x="634" y="198" on="0"/>
        <pt x="634" y="339" on="1"/>
        <pt x="634" y="343" on="1"/>
        <pt x="634" y="469" on="0"/>
        <pt x="582" y="538" on="1"/>
        <pt x="248" y="102" on="1"/>
        <pt x="303" y="69" on="0"/>
        <pt x="389" y="69" on="1"/>
      </contour>
    </TTGlyph>
    <TTGlyph name="Oslashacute" xMin="47" yMin="-49" xMax="732" yMax="868">
      <component glyphName=".ttfautohint" x="47" y="0" flags="0x0"/>
      <component glyphName="Oslash" x="0" y="0" flags="0x0"/>
      <component glyphName="acute" x="276" y="145" flags="0x4"/>
    </TTGlyph>
    <TTGlyph name="Otilde" xMin="47" yMin="-12" xMax="732" yMax="868">
      <component glyphName=".ttfautohint" x="47" y="0" flags="0x0"/>
      <component glyphName="O" x="0" y="0" flags="0x0"/>
      <component glyphName="tilde" x="222" y="145" flags="0x4"/>
    </TTGlyph>
    <TTGlyph name="P" xMin="79" yMin="0" xMax="626" yMax="686">
      <contour>
        <pt x="79" y="686" on="1"/>
        <pt x="413" y="686" on="1"/>
        <pt x="516" y="686" on="0"/>
        <pt x="626" y="572" on="0"/>
        <pt x="626" y="477" on="1"/>
        <pt x="626" y="380" on="0"/>
        <pt x="511" y="263" on="0"/>
        <pt x="413" y="263" on="1"/>
        <pt x="174" y="263" on="1"/>
        <pt x="174" y="0" on="1"/>
        <pt x="79" y="0" on="1"/>
      </contour>
      <contour>
        <pt x="408" y="346" on="1"/>
        <pt x="464" y="346" on="0"/>
        <pt x="530" y="416" on="0"/>
        <pt x="530" y="476" on="1"/>
        <pt x="530" y="537" on="0"/>
        <pt x="468" y="603" on="0"/>
        <pt x="408" y="603" on="1"/>
        <pt x="174" y="603" on="1"/>
        <pt x="174" y="346" on="1"/>
      </contour>
    </TTGlyph>
    <TTGlyph name="Q" xMin="47" yMin="-130" xMax="732" yMax="698">
      <contour>
        <pt x="436" y="-10" on="1"/>
        <pt x="406" y="-12" on="0"/>
        <pt x="389" y="-12" on="1"/>
        <pt x="226" y="-12" on="0"/>
        <pt x="47" y="167" on="0"/>
        <pt x="47" y="343" on="1"/>
        <pt x="47" y="519" on="0"/>
        <pt x="226" y="698" on="0"/>
        <pt x="389" y="698" on="1"/>
        <pt x="553" y="698" on="0"/>
        <pt x="732" y="519" on="0"/>
        <pt x="732" y="343" on="1"/>
        <pt x="732" y="215" on="0"/>
        <pt x="636" y="50" on="0"/>
        <pt x="545" y="14" on="1"/>
        <pt x="693" y="-130" on="1"/>
        <pt x="559" y="-130" on="1"/>
      </contour>
      <contour>
        <pt x="508" y="69" on="0"/>
        <pt x="634" y="198" on="0"/>
        <pt x="634" y="339" on="1"/>
        <pt x="634" y="343" on="1"/>
        <pt x="633" y="486" on="0"/>
        <pt x="507" y="617" on="0"/>
        <pt x="389" y="617" on="1"/>
        <pt x="272" y="617" on="0"/>
        <pt x="146" y="486" on="0"/>
        <pt x="145" y="343" on="1"/>
        <pt x="145" y="339" on="1"/>
        <pt x="145" y="198" on="0"/>
        <pt x="271" y="69" on="0"/>
        <pt x="389" y="69" on="1"/>
      </contour>
    </TTGlyph>
    <TTGlyph name="R" xMin="79" yMin="0" xMax="681" yMax="686">
      <contour>
        <pt x="79" y="686" on="1"/>
        <pt x="436" y="686" on="1"/>
        <pt x="539" y="686" on="0"/>
        <pt x="649" y="580" on="0"/>
        <pt x="649" y="491" on="1"/>
        <pt x="649" y="421" on="0"/>
        <pt x="582" y="319" on="0"/>
        <pt x="523" y="297" on="1"/>
        <pt x="681" y="0" on="1"/>
        <pt x="575" y="0" on="1"/>
        <pt x="426" y="283" on="1"/>
        <pt x="174" y="283" on="1"/>
        <pt x="174" y="0" on="1"/>
        <pt x="79" y="0" on="1"/>
      </contour>
      <contour>
        <pt x="431" y="366" on="1"/>
        <pt x="487" y="366" on="0"/>
        <pt x="553" y="432" on="0"/>
        <pt x="553" y="490" on="1"/>
        <pt x="553" y="544" on="0"/>
        <pt x="491" y="603" on="0"/>
        <pt x="431" y="603" on="1"/>
        <pt x="174" y="603" on="1"/>
        <pt x="174" y="366" on="1"/>
      </contour>
    </TTGlyph>
    <TTGlyph name="Racute" xMin="79" yMin="0" xMax="681" yMax="868">
      <component glyphName=".ttfautohint" x="79" y="0" flags="0x0"/>
      <component glyphName="R" x="0" y="0" flags="0x0"/>
      <component glyphName="acute" x="248" y="145" flags="0x4"/>
    </TTGlyph>
    <TTGlyph name="Rcaron" xMin="79" yMin="0" xMax="681" yMax="868">
      <component glyphName=".ttfautohint" x="79" y="0" flags="0x0"/>
      <component glyphName="R" x="0" y="0" flags="0x0"/>
      <component glyphName="caron" x="194" y="145" flags="0x4"/>
    </TTGlyph>
    <TTGlyph name="Rcommaaccent" xMin="79" yMin="-230" xMax="681" yMax="686">
      <component glyphName=".ttfautohint" x="79" y="0" flags="0x0"/>
      <component glyphName="R" x="0" y="0" flags="0x0"/>
      <component glyphName="uni0326" x="472" y="0" flags="0x0"/>
    </TTGlyph>
    <TTGlyph name="S" xMin="49" yMin="-12" xMax="616" yMax="698">
      <contour>
        <pt x="207" y="-12" on="0"/>
        <pt x="49" y="88" on="0"/>
        <pt x="49" y="194" on="1"/>
        <pt x="50" y="214" on="1"/>
        <pt x="144" y="214" on="1"/>
        <pt x="144" y="213" on="0"/>
        <pt x="142" y="201" on="0"/>
        <pt x="142" y="193" on="1"/>
        <pt x="142" y="132" on="0"/>
        <pt x="243" y="69" on="0"/>
        <pt x="327" y="69" on="1"/>
        <pt x="421" y="69" on="0"/>
        <pt x="521" y="128" on="0"/>
        <pt x="521" y="183" on="1"/>
        <pt x="521" y="220" on="0"/>
        <pt x="469" y="269" on="0"/>
        <pt x="390" y="297" on="0"/>
        <pt x="323" y="314" on="1"/>
        <pt x="240" y="335" on="0"/>
        <pt x="138" y="374" on="0"/>
        <pt x="66" y="451" on="0"/>
        <pt x="66" y="514" on="1"/>
        <pt x="66" y="604" on="0"/>
        <pt x="216" y="698" on="0"/>
        <pt x="333" y="698" on="1"/>
        <pt x="450" y="698" on="0"/>
        <pt x="596" y="603" on="0"/>
        <pt x="596" y="505" on="1"/>
        <pt x="596" y="493" on="1"/>
        <pt x="503" y="493" on="1"/>
        <pt x="503" y="508" on="1"/>
        <pt x="503" y="559" on="0"/>
        <pt x="410" y="617" on="0"/>
        <pt x="336" y="617" on="1"/>
        <pt x="257" y="617" on="0"/>
        <pt x="162" y="569" on="0"/>
        <pt x="162" y="521" on="1"/>
        <pt x="162" y="486" on="0"/>
        <pt x="213" y="442" on="0"/>
        <pt x="288" y="415" on="0"/>
        <pt x="355" y="398" on="1"/>
        <pt x="438" y="377" on="0"/>
        <pt x="543" y="337" on="0"/>
        <pt x="616" y="260" on="0"/>
        <pt x="616" y="198" on="1"/>
        <pt x="616" y="88" on="0"/>
        <pt x="463" y="-12" on="0"/>
        <pt x="332" y="-12" on="1"/>
      </contour>
    </TTGlyph>
    <TTGlyph name="Sacute" xMin="49" yMin="-12" xMax="616" yMax="868">
      <component glyphName=".ttfautohint" x="49" y="0" flags="0x0"/>
      <component glyphName="S" x="0" y="0" flags="0x0"/>
      <component glyphName="acute" x="221" y="145" flags="0x4"/>
    </TTGlyph>
    <TTGlyph name="Sacute.loclPLK" xMin="49" yMin="-12" xMax="616" yMax="868">
      <component glyphName=".ttfautohint" x="49" y="0" flags="0x0"/>
      <component glyphName="S" x="0" y="0" flags="0x0"/>
      <component glyphName="acute.loclPLK" x="191" y="145" flags="0x4"/>
    </TTGlyph>
    <TTGlyph name="Scaron" xMin="49" yMin="-12" xMax="616" yMax="868">
      <component glyphName=".ttfautohint" x="49" y="0" flags="0x0"/>
      <component glyphName="S" x="0" y="0" flags="0x0"/>
      <component glyphName="caron" x="167" y="145" flags="0x4"/>
    </TTGlyph>
    <TTGlyph name="Scedilla" xMin="49" yMin="-182" xMax="616" yMax="698">
      <contour>
        <pt x="285" y="-182" on="0"/>
        <pt x="242" y="-174" on="1"/>
        <pt x="242" y="-125" on="1"/>
        <pt x="342" y="-125" on="1"/>
        <pt x="362" y="-125" on="0"/>
        <pt x="383" y="-114" on="0"/>
        <pt x="383" y="-101" on="1"/>
        <pt x="383" y="-89" on="0"/>
        <pt x="366" y="-77" on="0"/>
        <pt x="344" y="-77" on="1"/>
        <pt x="293" y="-77" on="1"/>
        <pt x="305" y="-11" on="1"/>
        <pt x="190" y="-6" on="0"/>
        <pt x="49" y="94" on="0"/>
        <pt x="49" y="194" on="1"/>
        <pt x="50" y="214" on="1"/>
        <pt x="144" y="214" on="1"/>
        <pt x="144" y="213" on="0"/>
        <pt x="142" y="201" on="0"/>
        <pt x="142" y="193" on="1"/>
        <pt x="142" y="132" on="0"/>
        <pt x="243" y="69" on="0"/>
        <pt x="327" y="69" on="1"/>
        <pt x="421" y="69" on="0"/>
        <pt x="521" y="128" on="0"/>
        <pt x="521" y="183" on="1"/>
        <pt x="521" y="220" on="0"/>
        <pt x="469" y="269" on="0"/>
        <pt x="390" y="297" on="0"/>
        <pt x="323" y="314" on="1"/>
        <pt x="240" y="335" on="0"/>
        <pt x="138" y="374" on="0"/>
        <pt x="66" y="451" on="0"/>
        <pt x="66" y="514" on="1"/>
        <pt x="66" y="604" on="0"/>
        <pt x="216" y="698" on="0"/>
        <pt x="333" y="698" on="1"/>
        <pt x="450" y="698" on="0"/>
        <pt x="596" y="603" on="0"/>
        <pt x="596" y="505" on="1"/>
        <pt x="596" y="493" on="1"/>
        <pt x="503" y="493" on="1"/>
        <pt x="503" y="508" on="1"/>
        <pt x="503" y="559" on="0"/>
        <pt x="410" y="617" on="0"/>
        <pt x="336" y="617" on="1"/>
        <pt x="257" y="617" on="0"/>
        <pt x="162" y="569" on="0"/>
        <pt x="162" y="521" on="1"/>
        <pt x="162" y="486" on="0"/>
        <pt x="213" y="442" on="0"/>
        <pt x="288" y="415" on="0"/>
        <pt x="355" y="398" on="1"/>
        <pt x="438" y="377" on="0"/>
        <pt x="543" y="337" on="0"/>
        <pt x="616" y="260" on="0"/>
        <pt x="616" y="198" on="1"/>
        <pt x="616" y="96" on="0"/>
        <pt x="483" y="-5" on="0"/>
        <pt x="367" y="-11" on="1"/>
        <pt x="363" y="-36" on="1"/>
        <pt x="455" y="-42" on="0"/>
        <pt x="455" y="-101" on="1"/>
        <pt x="455" y="-146" on="0"/>
        <pt x="383" y="-182" on="0"/>
        <pt x="337" y="-182" on="1"/>
      </contour>
    </TTGlyph>
    <TTGlyph name="Scircumflex" xMin="49" yMin="-12" xMax="616" yMax="868">
      <component glyphName=".ttfautohint" x="49" y="0" flags="0x0"/>
      <component glyphName="S" x="0" y="0" flags="0x0"/>
      <component glyphName="circumflex" x="167" y="145" flags="0x4"/>
    </TTGlyph>
    <TTGlyph name="Scommaaccent" xMin="49" yMin="-230" xMax="616" yMax="698">
      <component glyphName=".ttfautohint" x="49" y="0" flags="0x0"/>
      <component glyphName="S" x="0" y="0" flags="0x0"/>
      <component glyphName="uni0326" x="445" y="0" flags="0x0"/>
    </TTGlyph>
    <TTGlyph name="T" xMin="22" yMin="0" xMax="589" yMax="686">
      <contour>
        <pt x="258" y="603" on="1"/>
        <pt x="22" y="603" on="1"/>
        <pt x="22" y="686" on="1"/>
        <pt x="589" y="686" on="1"/>
        <pt x="589" y="603" on="1"/>
        <pt x="353" y="603" on="1"/>
        <pt x="353" y="0" on="1"/>
        <pt x="258" y="0" on="1"/>
      </contour>
    </TTGlyph>
    <TTGlyph name="Tbar" xMin="22" yMin="0" xMax="589" yMax="686">
      <contour>
        <pt x="258" y="381" on="1"/>
        <pt x="153" y="381" on="1"/>
        <pt x="153" y="453" on="1"/>
        <pt x="258" y="453" on="1"/>
        <pt x="258" y="603" on="1"/>
        <pt x="22" y="603" on="1"/>
        <pt x="22" y="686" on="1"/>
        <pt x="589" y="686" on="1"/>
        <pt x="589" y="603" on="1"/>
        <pt x="353" y="603" on="1"/>
        <pt x="353" y="453" on="1"/>
        <pt x="458" y="453" on="1"/>
        <pt x="458" y="381" on="1"/>
        <pt x="353" y="381" on="1"/>
        <pt x="353" y="0" on="1"/>
        <pt x="258" y="0" on="1"/>
      </contour>
    </TTGlyph>
    <TTGlyph name="Tcaron" xMin="22" yMin="0" xMax="589" yMax="868">
      <component glyphName=".ttfautohint" x="22" y="0" flags="0x0"/>
      <component glyphName="T" x="0" y="0" flags="0x0"/>
      <component glyphName="caron" x="139" y="145" flags="0x4"/>
    </TTGlyph>
    <TTGlyph name="Thorn" xMin="79" yMin="0" xMax="626" yMax="686">
      <contour>
        <pt x="79" y="686" on="1"/>
        <pt x="174" y="686" on="1"/>
        <pt x="174" y="567" on="1"/>
        <pt x="413" y="567" on="1"/>
        <pt x="516" y="567" on="0"/>
        <pt x="626" y="453" on="0"/>
        <pt x="626" y="358" on="1"/>
        <pt x="626" y="261" on="0"/>
        <pt x="511" y="144" on="0"/>
        <pt x="413" y="144" on="1"/>
        <pt x="174" y="144" on="1"/>
        <pt x="174" y="0" on="1"/>
        <pt x="79" y="0" on="1"/>
      </contour>
      <contour>
        <pt x="408" y="227" on="1"/>
        <pt x="464" y="227" on="0"/>
        <pt x="530" y="297" on="0"/>
        <pt x="530" y="357" on="1"/>
        <pt x="530" y="418" on="0"/>
        <pt x="468" y="484" on="0"/>
        <pt x="408" y="484" on="1"/>
        <pt x="174" y="484" on="1"/>
        <pt x="174" y="227" on="1"/>
      </contour>
    </TTGlyph>
    <TTGlyph name="U" xMin="79" yMin="-12" xMax="643" yMax="686">
      <contour>
        <pt x="225" y="-12" on="0"/>
        <pt x="79" y="118" on="0"/>
        <pt x="79" y="253" on="1"/>
        <pt x="79" y="686" on="1"/>
        <pt x="174" y="686" on="1"/>
        <pt x="174" y="248" on="1"/>
        <pt x="174" y="160" on="0"/>
        <pt x="271" y="69" on="0"/>
        <pt x="360" y="69" on="1"/>
        <pt x="450" y="69" on="0"/>
        <pt x="548" y="161" on="0"/>
        <pt x="548" y="248" on="1"/>
        <pt x="548" y="686" on="1"/>
        <pt x="643" y="686" on="1"/>
        <pt x="643" y="253" on="1"/>
        <pt x="643" y="118" on="0"/>
        <pt x="497" y="-12" on="0"/>
        <pt x="360" y="-12" on="1"/>
      </contour>
    </TTGlyph>
    <TTGlyph name="Uacute" xMin="79" yMin="-12" xMax="643" yMax="868">
      <component glyphName=".ttfautohint" x="79" y="0" flags="0x0"/>
      <component glyphName="U" x="0" y="0" flags="0x0"/>
      <component glyphName="acute" x="248" y="145" flags="0x4"/>
    </TTGlyph>
    <TTGlyph name="Ubreve" xMin="79" yMin="-12" xMax="643" yMax="868">
      <component glyphName=".ttfautohint" x="79" y="0" flags="0x0"/>
      <component glyphName="U" x="0" y="0" flags="0x0"/>
      <component glyphName="breve" x="194" y="145" flags="0x4"/>
    </TTGlyph>
    <TTGlyph name="Ucircumflex" xMin="79" yMin="-12" xMax="643" yMax="868">
      <component glyphName=".ttfautohint" x="79" y="0" flags="0x0"/>
      <component glyphName="U" x="0" y="0" flags="0x0"/>
      <component glyphName="circumflex" x="194" y="145" flags="0x4"/>
    </TTGlyph>
    <TTGlyph name="Udieresis" xMin="79" yMin="-12" xMax="643" yMax="868">
      <component glyphName=".ttfautohint" x="79" y="0" flags="0x0"/>
      <component glyphName="U" x="0" y="0" flags="0x0"/>
      <component glyphName="dieresis" x="194" y="145" flags="0x4"/>
    </TTGlyph>
    <TTGlyph name="Ugrave" xMin="79" yMin="-12" xMax="643" yMax="868">
      <component glyphName=".ttfautohint" x="79" y="0" flags="0x0"/>
      <component glyphName="U" x="0" y="0" flags="0x0"/>
      <component glyphName="grave" x="140" y="145" flags="0x4"/>
    </TTGlyph>
    <TTGlyph name="Uhorn" xMin="79" yMin="-12" xMax="762" yMax="868">
      <contour>
        <pt x="762" y="868" on="1"/>
        <pt x="762" y="814" on="1"/>
        <pt x="762" y="749" on="0"/>
        <pt x="702" y="658" on="0"/>
        <pt x="643" y="635" on="1"/>
        <pt x="643" y="253" on="1"/>
        <pt x="643" y="118" on="0"/>
        <pt x="497" y="-12" on="0"/>
        <pt x="360" y="-12" on="1"/>
        <pt x="225" y="-12" on="0"/>
        <pt x="79" y="118" on="0"/>
        <pt x="79" y="253" on="1"/>
        <pt x="79" y="686" on="1"/>
        <pt x="174" y="686" on="1"/>
        <pt x="174" y="248" on="1"/>
        <pt x="174" y="160" on="0"/>
        <pt x="271" y="69" on="0"/>
        <pt x="360" y="69" on="1"/>
        <pt x="450" y="69" on="0"/>
        <pt x="548" y="161" on="0"/>
        <pt x="548" y="248" on="1"/>
        <pt x="548" y="686" on="1"/>
        <pt x="624" y="686" on="1"/>
        <pt x="680" y="709" on="0"/>
        <pt x="695" y="760" on="1"/>
        <pt x="642" y="760" on="1"/>
        <pt x="642" y="868" on="1"/>
      </contour>
    </TTGlyph>
    <TTGlyph name="Uhungarumlaut" xMin="79" yMin="-12" xMax="643" yMax="868">
      <component glyphName=".ttfautohint" x="79" y="0" flags="0x0"/>
      <component glyphName="U" x="0" y="0" flags="0x0"/>
      <component glyphName="hungarumlaut" x="226" y="145" flags="0x4"/>
    </TTGlyph>
    <TTGlyph name="Umacron" xMin="79" yMin="-12" xMax="643" yMax="844">
      <component glyphName=".ttfautohint" x="79" y="0" flags="0x0"/>
      <component glyphName="U" x="0" y="0" flags="0x0"/>
      <component glyphName="macron" x="194" y="145" flags="0x4"/>
    </TTGlyph>
    <TTGlyph name="Uogonek" xMin="79" yMin="-182" xMax="643" yMax="686">
      <contour>
        <pt x="387" y="-182" on="0"/>
        <pt x="327" y="-139" on="0"/>
        <pt x="327" y="-92" on="1"/>
        <pt x="327" y="-46" on="0"/>
        <pt x="358" y="-12" on="1"/>
        <pt x="223" y="-11" on="0"/>
        <pt x="79" y="118" on="0"/>
        <pt x="79" y="253" on="1"/>
        <pt x="79" y="686" on="1"/>
        <pt x="174" y="686" on="1"/>
        <pt x="174" y="248" on="1"/>
        <pt x="174" y="160" on="0"/>
        <pt x="271" y="69" on="0"/>
        <pt x="360" y="69" on="1"/>
        <pt x="450" y="69" on="0"/>
        <pt x="548" y="161" on="0"/>
        <pt x="548" y="248" on="1"/>
        <pt x="548" y="686" on="1"/>
        <pt x="643" y="686" on="1"/>
        <pt x="643" y="253" on="1"/>
        <pt x="643" y="23" on="0"/>
        <pt x="428" y="-7" on="1"/>
        <pt x="405" y="-36" on="0"/>
        <pt x="405" y="-62" on="1"/>
        <pt x="405" y="-85" on="0"/>
        <pt x="431" y="-117" on="0"/>
        <pt x="458" y="-117" on="1"/>
        <pt x="490" y="-117" on="1"/>
        <pt x="490" y="-168" on="1"/>
        <pt x="457" y="-182" on="0"/>
        <pt x="429" y="-182" on="1"/>
      </contour>
    </TTGlyph>
    <TTGlyph name="Uring" xMin="79" yMin="-12" xMax="643" yMax="903">
      <component glyphName=".ttfautohint" x="79" y="0" flags="0x0"/>
      <component glyphName="U" x="0" y="0" flags="0x0"/>
      <component glyphName="ring" x="194" y="145" flags="0x4"/>
    </TTGlyph>
    <TTGlyph name="Utilde" xMin="79" yMin="-12" xMax="643" yMax="868">
      <component glyphName=".ttfautohint" x="79" y="0" flags="0x0"/>
      <component glyphName="U" x="0" y="0" flags="0x0"/>
      <component glyphName="tilde" x="194" y="145" flags="0x4"/>
    </TTGlyph>
    <TTGlyph name="V" xMin="16" yMin="0" xMax="651" yMax="686">
      <contour>
        <pt x="16" y="686" on="1"/>
        <pt x="119" y="686" on="1"/>
        <pt x="300" y="187" on="1"/>
        <pt x="334" y="95" on="1"/>
        <pt x="339" y="95" on="1"/>
        <pt x="373" y="189" on="1"/>
        <pt x="553" y="686" on="1"/>
        <pt x="651" y="686" on="1"/>
        <pt x="396" y="0" on="1"/>
        <pt x="271" y="0" on="1"/>
      </contour>
    </TTGlyph>
    <TTGlyph name="W" xMin="11" yMin="0" xMax="933" yMax="686">
      <contour>
        <pt x="11" y="686" on="1"/>
        <pt x="111" y="686" on="1"/>
        <pt x="249" y="202" on="1"/>
        <pt x="256" y="176" on="0"/>
        <pt x="272" y="110" on="0"/>
        <pt x="275" y="97" on="1"/>
        <pt x="280" y="97" on="1"/>
        <pt x="300" y="202" on="1"/>
        <pt x="406" y="686" on="1"/>
        <pt x="542" y="686" on="1"/>
        <pt x="652" y="202" on="1"/>
        <pt x="673" y="97" on="1"/>
        <pt x="678" y="97" on="1"/>
        <pt x="681" y="110" on="0"/>
        <pt x="698" y="176" on="0"/>
        <pt x="705" y="202" on="1"/>
        <pt x="838" y="686" on="1"/>
        <pt x="933" y="686" on="1"/>
        <pt x="735" y="0" on="1"/>
        <pt x="604" y="0" on="1"/>
        <pt x="496" y="481" on="1"/>
        <pt x="488" y="517" on="0"/>
        <pt x="475" y="582" on="0"/>
        <pt x="473" y="593" on="1"/>
        <pt x="468" y="593" on="1"/>
        <pt x="466" y="581" on="0"/>
        <pt x="455" y="514" on="0"/>
        <pt x="448" y="481" on="1"/>
        <pt x="340" y="0" on="1"/>
        <pt x="209" y="0" on="1"/>
      </contour>
    </TTGlyph>
    <TTGlyph name="Wacute" xMin="11" yMin="0" xMax="933" yMax="868">
      <component glyphName=".ttfautohint" x="11" y="0" flags="0x0"/>
      <component glyphName="W" x="0" y="0" flags="0x0"/>
      <component glyphName="acute" x="359" y="145" flags="0x4"/>
    </TTGlyph>
    <TTGlyph name="Wcircumflex" xMin="11" yMin="0" xMax="933" yMax="868">
      <component glyphName=".ttfautohint" x="11" y="0" flags="0x0"/>
      <component glyphName="W" x="0" y="0" flags="0x0"/>
      <component glyphName="circumflex" x="305" y="145" flags="0x4"/>
    </TTGlyph>
    <TTGlyph name="Wdieresis" xMin="11" yMin="0" xMax="933" yMax="868">
      <component glyphName=".ttfautohint" x="11" y="0" flags="0x0"/>
      <component glyphName="W" x="0" y="0" flags="0x0"/>
      <component glyphName="dieresis" x="305" y="145" flags="0x4"/>
    </TTGlyph>
    <TTGlyph name="Wgrave" xMin="11" yMin="0" xMax="933" yMax="868">
      <component glyphName=".ttfautohint" x="11" y="0" flags="0x0"/>
      <component glyphName="W" x="0" y="0" flags="0x0"/>
      <component glyphName="grave" x="251" y="145" flags="0x4"/>
    </TTGlyph>
    <TTGlyph name="X" xMin="5" yMin="0" xMax="662" yMax="686">
      <contour>
        <pt x="275" y="359" on="1"/>
        <pt x="29" y="686" on="1"/>
        <pt x="147" y="686" on="1"/>
        <pt x="329" y="441" on="1"/>
        <pt x="337" y="441" on="1"/>
        <pt x="521" y="686" on="1"/>
        <pt x="635" y="686" on="1"/>
        <pt x="391" y="360" on="1"/>
        <pt x="662" y="0" on="1"/>
        <pt x="545" y="0" on="1"/>
        <pt x="336" y="281" on="1"/>
        <pt x="328" y="281" on="1"/>
        <pt x="120" y="0" on="1"/>
        <pt x="5" y="0" on="1"/>
      </contour>
    </TTGlyph>
    <TTGlyph name="Y" xMin="16" yMin="0" xMax="652" yMax="686">
      <contour>
        <pt x="287" y="284" on="1"/>
        <pt x="16" y="686" on="1"/>
        <pt x="131" y="686" on="1"/>
        <pt x="335" y="372" on="1"/>
        <pt x="340" y="372" on="1"/>
        <pt x="543" y="686" on="1"/>
        <pt x="652" y="686" on="1"/>
        <pt x="382" y="284" on="1"/>
        <pt x="382" y="0" on="1"/>
        <pt x="287" y="0" on="1"/>
      </contour>
    </TTGlyph>
    <TTGlyph name="Y.loclGUA" xMin="79" yMin="-12" xMax="588" yMax="686">
      <contour>
        <pt x="214" y="-12" on="0"/>
        <pt x="79" y="74" on="0"/>
        <pt x="79" y="160" on="1"/>
        <pt x="79" y="168" on="1"/>
        <pt x="174" y="168" on="1"/>
        <pt x="174" y="121" on="0"/>
        <pt x="260" y="69" on="0"/>
        <pt x="329" y="69" on="1"/>
        <pt x="410" y="69" on="0"/>
        <pt x="493" y="155" on="0"/>
        <pt x="493" y="248" on="1"/>
        <pt x="493" y="294" on="1"/>
        <pt x="486" y="294" on="1"/>
        <pt x="432" y="198" on="0"/>
        <pt x="298" y="198" on="1"/>
        <pt x="193" y="198" on="0"/>
        <pt x="79" y="308" on="0"/>
        <pt x="79" y="423" on="1"/>
        <pt x="79" y="686" on="1"/>
        <pt x="174" y="686" on="1"/>
        <pt x="174" y="418" on="1"/>
        <pt x="174" y="349" on="0"/>
        <pt x="245" y="279" on="0"/>
        <pt x="313" y="279" on="1"/>
        <pt x="397" y="279" on="0"/>
        <pt x="493" y="382" on="0"/>
        <pt x="493" y="478" on="1"/>
        <pt x="493" y="686" on="1"/>
        <pt x="588" y="686" on="1"/>
        <pt x="588" y="253" on="1"/>
        <pt x="588" y="114" on="0"/>
        <pt x="457" y="-12" on="0"/>
        <pt x="327" y="-12" on="1"/>
      </contour>
    </TTGlyph>
    <TTGlyph name="Yacute" xMin="16" yMin="0" xMax="652" yMax="868">
      <component glyphName=".ttfautohint" x="16" y="0" flags="0x0"/>
      <component glyphName="Y" x="0" y="0" flags="0x0"/>
      <component glyphName="acute" x="221" y="145" flags="0x4"/>
    </TTGlyph>
    <TTGlyph name="Yacute.loclGUA" xMin="79" yMin="-12" xMax="588" yMax="868">
      <component glyphName=".ttfautohint" x="79" y="0" flags="0x0"/>
      <component glyphName="Y.loclGUA" x="0" y="0" flags="0x0"/>
      <component glyphName="acute" x="221" y="145" flags="0x4"/>
    </TTGlyph>
    <TTGlyph name="Ycircumflex" xMin="16" yMin="0" xMax="652" yMax="868">
      <component glyphName=".ttfautohint" x="16" y="0" flags="0x0"/>
      <component glyphName="Y" x="0" y="0" flags="0x0"/>
      <component glyphName="circumflex" x="167" y="145" flags="0x4"/>
    </TTGlyph>
    <TTGlyph name="Ycircumflex.loclGUA" xMin="79" yMin="-12" xMax="588" yMax="868">
      <component glyphName=".ttfautohint" x="79" y="0" flags="0x0"/>
      <component glyphName="Y.loclGUA" x="0" y="0" flags="0x0"/>
      <component glyphName="circumflex" x="167" y="145" flags="0x4"/>
    </TTGlyph>
    <TTGlyph name="Ydieresis" xMin="16" yMin="0" xMax="652" yMax="868">
      <component glyphName=".ttfautohint" x="16" y="0" flags="0x0"/>
      <component glyphName="Y" x="0" y="0" flags="0x0"/>
      <component glyphName="dieresis" x="167" y="145" flags="0x4"/>
    </TTGlyph>
    <TTGlyph name="Ydieresis.loclGUA" xMin="79" yMin="-12" xMax="588" yMax="868">
      <component glyphName=".ttfautohint" x="79" y="0" flags="0x0"/>
      <component glyphName="Y.loclGUA" x="0" y="0" flags="0x0"/>
      <component glyphName="dieresis" x="167" y="145" flags="0x4"/>
    </TTGlyph>
    <TTGlyph name="Ygrave" xMin="16" yMin="0" xMax="652" yMax="868">
      <component glyphName=".ttfautohint" x="16" y="0" flags="0x0"/>
      <component glyphName="Y" x="0" y="0" flags="0x0"/>
      <component glyphName="grave" x="113" y="145" flags="0x4"/>
    </TTGlyph>
    <TTGlyph name="Ygrave.loclGUA" xMin="79" yMin="-12" xMax="588" yMax="868">
      <component glyphName=".ttfautohint" x="79" y="0" flags="0x0"/>
      <component glyphName="Y.loclGUA" x="0" y="0" flags="0x0"/>
      <component glyphName="grave" x="113" y="145" flags="0x4"/>
    </TTGlyph>
    <TTGlyph name="Z" xMin="23" yMin="0" xMax="589" yMax="686">
      <contour>
        <pt x="23" y="49" on="1"/>
        <pt x="435" y="603" on="1"/>
        <pt x="49" y="603" on="1"/>
        <pt x="49" y="686" on="1"/>
        <pt x="580" y="686" on="1"/>
        <pt x="580" y="637" on="1"/>
        <pt x="167" y="83" on="1"/>
        <pt x="589" y="83" on="1"/>
        <pt x="589" y="0" on="1"/>
        <pt x="23" y="0" on="1"/>
      </contour>
    </TTGlyph>
    <TTGlyph name="Zacute" xMin="23" yMin="0" xMax="589" yMax="868">
      <component glyphName=".ttfautohint" x="23" y="0" flags="0x0"/>
      <component glyphName="Z" x="0" y="0" flags="0x0"/>
      <component glyphName="acute" x="193" y="145" flags="0x4"/>
    </TTGlyph>
    <TTGlyph name="Zacute.loclPLK" xMin="23" yMin="0" xMax="589" yMax="868">
      <component glyphName=".ttfautohint" x="23" y="0" flags="0x0"/>
      <component glyphName="Z" x="0" y="0" flags="0x0"/>
      <component glyphName="acute.loclPLK" x="163" y="145" flags="0x4"/>
    </TTGlyph>
    <TTGlyph name="Zcaron" xMin="23" yMin="0" xMax="589" yMax="868">
      <component glyphName=".ttfautohint" x="23" y="0" flags="0x0"/>
      <component glyphName="Z" x="0" y="0" flags="0x0"/>
      <component glyphName="caron" x="139" y="145" flags="0x4"/>
    </TTGlyph>
    <TTGlyph name="Zdotaccent" xMin="23" yMin="0" xMax="589" yMax="868">
      <component glyphName=".ttfautohint" x="23" y="0" flags="0x0"/>
      <component glyphName="Z" x="0" y="0" flags="0x0"/>
      <component glyphName="dotaccent" x="139" y="145" flags="0x4"/>
    </TTGlyph>
    <TTGlyph name="a" xMin="36" yMin="-12" xMax="549" yMax="538">
      <contour>
        <pt x="142" y="-12" on="0"/>
        <pt x="36" y="52" on="0"/>
        <pt x="36" y="136" on="1"/>
        <pt x="36" y="237" on="0"/>
        <pt x="216" y="312" on="0"/>
        <pt x="386" y="312" on="1"/>
        <pt x="386" y="370" on="1"/>
        <pt x="386" y="416" on="0"/>
        <pt x="334" y="465" on="0"/>
        <pt x="266" y="465" on="1"/>
        <pt x="202" y="465" on="0"/>
        <pt x="147" y="417" on="0"/>
        <pt x="147" y="382" on="1"/>
        <pt x="147" y="370" on="1"/>
        <pt x="62" y="370" on="1"/>
        <pt x="61" y="376" on="0"/>
        <pt x="61" y="392" on="1"/>
        <pt x="61" y="462" on="0"/>
        <pt x="177" y="538" on="0"/>
        <pt x="274" y="538" on="1"/>
        <pt x="372" y="538" on="0"/>
        <pt x="474" y="456" on="0"/>
        <pt x="474" y="381" on="1"/>
        <pt x="474" y="96" on="1"/>
        <pt x="474" y="78" on="0"/>
        <pt x="494" y="61" on="0"/>
        <pt x="509" y="61" on="1"/>
        <pt x="549" y="61" on="1"/>
        <pt x="549" y="4" on="1"/>
        <pt x="523" y="-8" on="0"/>
        <pt x="481" y="-8" on="1"/>
        <pt x="447" y="-8" on="0"/>
        <pt x="401" y="33" on="0"/>
        <pt x="393" y="67" on="1"/>
        <pt x="386" y="67" on="1"/>
        <pt x="359" y="30" on="0"/>
        <pt x="266" y="-12" on="0"/>
        <pt x="210" y="-12" on="1"/>
      </contour>
      <contour>
        <pt x="272" y="61" on="0"/>
        <pt x="342" y="93" on="0"/>
        <pt x="386" y="156" on="0"/>
        <pt x="386" y="201" on="1"/>
        <pt x="386" y="239" on="1"/>
        <pt x="257" y="239" on="0"/>
        <pt x="128" y="198" on="0"/>
        <pt x="128" y="141" on="1"/>
        <pt x="128" y="98" on="0"/>
        <pt x="181" y="61" on="0"/>
        <pt x="233" y="61" on="1"/>
      </contour>
    </TTGlyph>
    <TTGlyph name="aacute" xMin="36" yMin="-12" xMax="549" yMax="723">
      <component glyphName=".ttfautohint" x="36" y="0" flags="0x0"/>
      <component glyphName="a" x="0" y="0" flags="0x0"/>
      <component glyphName="acute" x="165" y="0" flags="0x0"/>
    </TTGlyph>
    <TTGlyph name="abreve" xMin="36" yMin="-12" xMax="549" yMax="723">
      <component glyphName=".ttfautohint" x="36" y="0" flags="0x0"/>
      <component glyphName="a" x="0" y="0" flags="0x0"/>
      <component glyphName="breve" x="111" y="0" flags="0x0"/>
    </TTGlyph>
    <TTGlyph name="acircumflex" xMin="36" yMin="-12" xMax="549" yMax="723">
      <component glyphName=".ttfautohint" x="36" y="0" flags="0x0"/>
      <component glyphName="a" x="0" y="0" flags="0x0"/>
      <component glyphName="circumflex" x="111" y="0" flags="0x0"/>
    </TTGlyph>
    <TTGlyph name="acute" xMin="75" yMin="591" xMax="258" yMax="723">
      <contour>
        <pt x="161" y="723" on="1"/>
        <pt x="257" y="723" on="1"/>
        <pt x="258" y="720" on="1"/>
        <pt x="150" y="591" on="1"/>
        <pt x="75" y="591" on="1"/>
      </contour>
    </TTGlyph>
    <TTGlyph name="acute.loclPLK" xMin="105" yMin="591" xMax="228" yMax="723">
      <contour>
        <pt x="131" y="723" on="1"/>
        <pt x="227" y="723" on="1"/>
        <pt x="228" y="720" on="1"/>
        <pt x="180" y="591" on="1"/>
        <pt x="105" y="591" on="1"/>
      </contour>
    </TTGlyph>
    <TTGlyph name="adieresis" xMin="36" yMin="-12" xMax="549" yMax="723">
      <component glyphName=".ttfautohint" x="36" y="0" flags="0x0"/>
      <component glyphName="a" x="0" y="0" flags="0x0"/>
      <component glyphName="dieresis" x="111" y="0" flags="0x0"/>
    </TTGlyph>
    <TTGlyph name="ae" xMin="36" yMin="-12" xMax="850" yMax="538">
      <contour>
        <pt x="148" y="-12" on="0"/>
        <pt x="36" y="52" on="0"/>
        <pt x="36" y="136" on="1"/>
        <pt x="36" y="237" on="0"/>
        <pt x="218" y="312" on="0"/>
        <pt x="388" y="312" on="1"/>
        <pt x="388" y="370" on="1"/>
        <pt x="388" y="416" on="0"/>
        <pt x="334" y="465" on="0"/>
        <pt x="266" y="465" on="1"/>
        <pt x="202" y="465" on="0"/>
        <pt x="147" y="417" on="0"/>
        <pt x="147" y="382" on="1"/>
        <pt x="147" y="370" on="1"/>
        <pt x="62" y="370" on="1"/>
        <pt x="61" y="376" on="0"/>
        <pt x="61" y="392" on="1"/>
        <pt x="61" y="462" on="0"/>
        <pt x="177" y="538" on="0"/>
        <pt x="274" y="538" on="1"/>
        <pt x="398" y="538" on="0"/>
        <pt x="448" y="464" on="1"/>
        <pt x="508" y="538" on="0"/>
        <pt x="629" y="538" on="1"/>
        <pt x="739" y="538" on="0"/>
        <pt x="850" y="417" on="0"/>
        <pt x="850" y="283" on="1"/>
        <pt x="850" y="239" on="1"/>
        <pt x="477" y="239" on="1"/>
        <pt x="482" y="148" on="0"/>
        <pt x="555" y="61" on="0"/>
        <pt x="629" y="61" on="1"/>
        <pt x="689" y="61" on="0"/>
        <pt x="764" y="119" on="0"/>
        <pt x="764" y="179" on="1"/>
        <pt x="850" y="179" on="1"/>
        <pt x="850" y="87" on="0"/>
        <pt x="726" y="-12" on="0"/>
        <pt x="629" y="-12" on="1"/>
        <pt x="488" y="-12" on="0"/>
        <pt x="432" y="77" on="1"/>
        <pt x="396" y="35" on="0"/>
        <pt x="284" y="-12" on="0"/>
        <pt x="220" y="-12" on="1"/>
      </contour>
      <contour>
        <pt x="758" y="312" on="1"/>
        <pt x="758" y="465" on="0"/>
        <pt x="629" y="465" on="1"/>
        <pt x="558" y="465" on="0"/>
        <pt x="486" y="393" on="0"/>
        <pt x="479" y="312" on="1"/>
      </contour>
      <contour>
        <pt x="297" y="61" on="0"/>
        <pt x="388" y="129" on="0"/>
        <pt x="388" y="201" on="1"/>
        <pt x="388" y="239" on="1"/>
        <pt x="259" y="239" on="0"/>
        <pt x="128" y="198" on="0"/>
        <pt x="128" y="141" on="1"/>
        <pt x="128" y="98" on="0"/>
        <pt x="181" y="61" on="0"/>
        <pt x="233" y="61" on="1"/>
      </contour>
    </TTGlyph>
    <TTGlyph name="aeacute" xMin="36" yMin="-12" xMax="850" yMax="723">
      <component glyphName=".ttfautohint" x="36" y="0" flags="0x0"/>
      <component glyphName="ae" x="0" y="0" flags="0x0"/>
      <component glyphName="acute" x="332" y="0" flags="0x0"/>
    </TTGlyph>
    <TTGlyph name="agrave" xMin="36" yMin="-12" xMax="549" yMax="723">
      <component glyphName=".ttfautohint" x="36" y="0" flags="0x0"/>
      <component glyphName="a" x="0" y="0" flags="0x0"/>
      <component glyphName="grave" x="57" y="0" flags="0x0"/>
    </TTGlyph>
    <TTGlyph name="amacron" xMin="36" yMin="-12" xMax="549" yMax="699">
      <component glyphName=".ttfautohint" x="36" y="0" flags="0x0"/>
      <component glyphName="a" x="0" y="0" flags="0x0"/>
      <component glyphName="macron" x="111" y="0" flags="0x0"/>
    </TTGlyph>
    <TTGlyph name="ampersand" xMin="43" yMin="-12" xMax="648" yMax="698">
      <contour>
        <pt x="226" y="-12" on="0"/>
        <pt x="109" y="35" on="0"/>
        <pt x="43" y="124" on="0"/>
        <pt x="43" y="184" on="1"/>
        <pt x="43" y="249" on="0"/>
        <pt x="109" y="335" on="0"/>
        <pt x="165" y="352" on="1"/>
        <pt x="165" y="356" on="1"/>
        <pt x="115" y="380" on="0"/>
        <pt x="58" y="453" on="0"/>
        <pt x="58" y="510" on="1"/>
        <pt x="58" y="600" on="0"/>
        <pt x="195" y="698" on="0"/>
        <pt x="311" y="698" on="1"/>
        <pt x="385" y="698" on="0"/>
        <pt x="499" y="651" on="0"/>
        <pt x="563" y="566" on="0"/>
        <pt x="563" y="510" on="1"/>
        <pt x="563" y="492" on="1"/>
        <pt x="475" y="492" on="1"/>
        <pt x="475" y="501" on="1"/>
        <pt x="475" y="562" on="0"/>
        <pt x="386" y="623" on="0"/>
        <pt x="310" y="623" on="1"/>
        <pt x="239" y="623" on="0"/>
        <pt x="148" y="565" on="0"/>
        <pt x="148" y="505" on="1"/>
        <pt x="148" y="447" on="0"/>
        <pt x="231" y="385" on="0"/>
        <pt x="292" y="385" on="1"/>
        <pt x="353" y="385" on="1"/>
        <pt x="353" y="312" on="1"/>
        <pt x="294" y="312" on="1"/>
        <pt x="223" y="312" on="0"/>
        <pt x="134" y="257" on="0"/>
        <pt x="134" y="190" on="1"/>
        <pt x="134" y="125" on="0"/>
        <pt x="227" y="63" on="0"/>
        <pt x="309" y="63" on="1"/>
        <pt x="475" y="63" on="0"/>
        <pt x="475" y="191" on="1"/>
        <pt x="475" y="385" on="1"/>
        <pt x="648" y="385" on="1"/>
        <pt x="648" y="311" on="1"/>
        <pt x="563" y="311" on="1"/>
        <pt x="563" y="194" on="1"/>
        <pt x="563" y="98" on="0"/>
        <pt x="428" y="-12" on="0"/>
        <pt x="301" y="-12" on="1"/>
      </contour>
    </TTGlyph>
    <TTGlyph name="aogonek" xMin="36" yMin="-182" xMax="549" yMax="538">
      <contour>
        <pt x="442" y="-182" on="0"/>
        <pt x="386" y="-139" on="0"/>
        <pt x="386" y="-92" on="1"/>
        <pt x="386" y="-36" on="0"/>
        <pt x="436" y="3" on="1"/>
        <pt x="402" y="23" on="0"/>
        <pt x="393" y="67" on="1"/>
        <pt x="386" y="67" on="1"/>
        <pt x="359" y="30" on="0"/>
        <pt x="266" y="-12" on="0"/>
        <pt x="210" y="-12" on="1"/>
        <pt x="142" y="-12" on="0"/>
        <pt x="36" y="52" on="0"/>
        <pt x="36" y="136" on="1"/>
        <pt x="36" y="237" on="0"/>
        <pt x="216" y="312" on="0"/>
        <pt x="386" y="312" on="1"/>
        <pt x="386" y="370" on="1"/>
        <pt x="386" y="416" on="0"/>
        <pt x="334" y="465" on="0"/>
        <pt x="266" y="465" on="1"/>
        <pt x="202" y="465" on="0"/>
        <pt x="147" y="417" on="0"/>
        <pt x="147" y="382" on="1"/>
        <pt x="147" y="370" on="1"/>
        <pt x="62" y="370" on="1"/>
        <pt x="61" y="376" on="0"/>
        <pt x="61" y="392" on="1"/>
        <pt x="61" y="462" on="0"/>
        <pt x="177" y="538" on="0"/>
        <pt x="274" y="538" on="1"/>
        <pt x="372" y="538" on="0"/>
        <pt x="474" y="456" on="0"/>
        <pt x="474" y="381" on="1"/>
        <pt x="474" y="96" on="1"/>
        <pt x="474" y="78" on="0"/>
        <pt x="494" y="61" on="0"/>
        <pt x="509" y="61" on="1"/>
        <pt x="549" y="61" on="1"/>
        <pt x="549" y="4" on="1"/>
        <pt x="512" y="-2" on="0"/>
        <pt x="464" y="-29" on="0"/>
        <pt x="464" y="-66" on="1"/>
        <pt x="464" y="-88" on="0"/>
        <pt x="490" y="-117" on="0"/>
        <pt x="517" y="-117" on="1"/>
        <pt x="549" y="-117" on="1"/>
        <pt x="549" y="-168" on="1"/>
        <pt x="512" y="-182" on="0"/>
        <pt x="480" y="-182" on="1"/>
      </contour>
      <contour>
        <pt x="272" y="61" on="0"/>
        <pt x="342" y="93" on="0"/>
        <pt x="386" y="156" on="0"/>
        <pt x="386" y="201" on="1"/>
        <pt x="386" y="239" on="1"/>
        <pt x="257" y="239" on="0"/>
        <pt x="128" y="198" on="0"/>
        <pt x="128" y="141" on="1"/>
        <pt x="128" y="98" on="0"/>
        <pt x="181" y="61" on="0"/>
        <pt x="233" y="61" on="1"/>
      </contour>
    </TTGlyph>
    <TTGlyph name="approxequal" xMin="38" yMin="57" xMax="511" yMax="447">
      <contour>
        <pt x="38" y="363" on="1"/>
        <pt x="38" y="366" on="0"/>
        <pt x="73" y="403" on="0"/>
        <pt x="134" y="435" on="0"/>
        <pt x="175" y="435" on="1"/>
        <pt x="198" y="435" on="0"/>
        <pt x="243" y="420" on="0"/>
        <pt x="273" y="405" on="1"/>
        <pt x="305" y="390" on="0"/>
        <pt x="349" y="375" on="0"/>
        <pt x="374" y="375" on="1"/>
        <pt x="410" y="375" on="0"/>
        <pt x="470" y="407" on="0"/>
        <pt x="511" y="445" on="0"/>
        <pt x="511" y="447" on="1"/>
        <pt x="511" y="355" on="1"/>
        <pt x="511" y="352" on="0"/>
        <pt x="476" y="315" on="0"/>
        <pt x="415" y="283" on="0"/>
        <pt x="374" y="283" on="1"/>
        <pt x="351" y="283" on="0"/>
        <pt x="306" y="298" on="0"/>
        <pt x="276" y="313" on="1"/>
        <pt x="244" y="328" on="0"/>
        <pt x="200" y="343" on="0"/>
        <pt x="175" y="343" on="1"/>
        <pt x="139" y="343" on="0"/>
        <pt x="79" y="311" on="0"/>
        <pt x="38" y="273" on="0"/>
        <pt x="38" y="271" on="1"/>
      </contour>
      <contour>
        <pt x="38" y="149" on="1"/>
        <pt x="38" y="152" on="0"/>
        <pt x="73" y="189" on="0"/>
        <pt x="134" y="221" on="0"/>
        <pt x="175" y="221" on="1"/>
        <pt x="198" y="221" on="0"/>
        <pt x="243" y="206" on="0"/>
        <pt x="273" y="191" on="1"/>
        <pt x="305" y="176" on="0"/>
        <pt x="349" y="161" on="0"/>
        <pt x="374" y="161" on="1"/>
        <pt x="410" y="161" on="0"/>
        <pt x="470" y="193" on="0"/>
        <pt x="511" y="231" on="0"/>
        <pt x="511" y="233" on="1"/>
        <pt x="511" y="141" on="1"/>
        <pt x="511" y="138" on="0"/>
        <pt x="476" y="101" on="0"/>
        <pt x="415" y="69" on="0"/>
        <pt x="374" y="69" on="1"/>
        <pt x="351" y="69" on="0"/>
        <pt x="306" y="84" on="0"/>
        <pt x="276" y="99" on="1"/>
        <pt x="244" y="114" on="0"/>
        <pt x="200" y="129" on="0"/>
        <pt x="175" y="129" on="1"/>
        <pt x="139" y="129" on="0"/>
        <pt x="79" y="97" on="0"/>
        <pt x="38" y="59" on="0"/>
        <pt x="38" y="57" on="1"/>
      </contour>
    </TTGlyph>
    <TTGlyph name="aring" xMin="36" yMin="-12" xMax="549" yMax="758">
      <component glyphName=".ttfautohint" x="36" y="0" flags="0x0"/>
      <component glyphName="a" x="0" y="0" flags="0x0"/>
      <component glyphName="ring" x="111" y="0" flags="0x0"/>
    </TTGlyph>
    <TTGlyph name="aringacute" xMin="36" yMin="-12" xMax="549" yMax="914">
      <component glyphName=".ttfautohint" x="36" y="0" flags="0x0"/>
      <component glyphName="a" x="0" y="0" flags="0x0"/>
      <component glyphName="ring" x="111" y="0" flags="0x0"/>
      <component glyphName="acute" x="166" y="191" flags="0x4"/>
    </TTGlyph>
    <TTGlyph name="arrowboth" xMin="42" yMin="79" xMax="959" yMax="426">
      <contour>
        <pt x="42" y="242" on="1"/>
        <pt x="42" y="263" on="1"/>
        <pt x="239" y="426" on="1"/>
        <pt x="281" y="426" on="1"/>
        <pt x="228" y="289" on="1"/>
        <pt x="778" y="289" on="1"/>
        <pt x="720" y="426" on="1"/>
        <pt x="762" y="426" on="1"/>
        <pt x="959" y="263" on="1"/>
        <pt x="959" y="242" on="1"/>
        <pt x="762" y="79" on="1"/>
        <pt x="720" y="79" on="1"/>
        <pt x="778" y="216" on="1"/>
        <pt x="228" y="216" on="1"/>
        <pt x="281" y="79" on="1"/>
        <pt x="239" y="79" on="1"/>
      </contour>
    </TTGlyph>
    <TTGlyph name="arrowdown" xMin="77" yMin="-208" xMax="424" yMax="710">
      <contour>
        <pt x="77" y="-11" on="1"/>
        <pt x="77" y="31" on="1"/>
        <pt x="214" y="-27" on="1"/>
        <pt x="214" y="710" on="1"/>
        <pt x="287" y="710" on="1"/>
        <pt x="287" y="-27" on="1"/>
        <pt x="424" y="31" on="1"/>
        <pt x="424" y="-11" on="1"/>
        <pt x="261" y="-208" on="1"/>
        <pt x="240" y="-208" on="1"/>
      </contour>
    </TTGlyph>
    <TTGlyph name="arrowleft" xMin="42" yMin="79" xMax="960" yMax="426">
      <contour>
        <pt x="42" y="242" on="1"/>
        <pt x="42" y="263" on="1"/>
        <pt x="239" y="426" on="1"/>
        <pt x="281" y="426" on="1"/>
        <pt x="223" y="289" on="1"/>
        <pt x="960" y="289" on="1"/>
        <pt x="960" y="216" on="1"/>
        <pt x="223" y="216" on="1"/>
        <pt x="281" y="79" on="1"/>
        <pt x="239" y="79" on="1"/>
      </contour>
    </TTGlyph>
    <TTGlyph name="arrowright" xMin="41" yMin="79" xMax="959" yMax="426">
      <contour>
        <pt x="778" y="216" on="1"/>
        <pt x="41" y="216" on="1"/>
        <pt x="41" y="289" on="1"/>
        <pt x="778" y="289" on="1"/>
        <pt x="720" y="426" on="1"/>
        <pt x="762" y="426" on="1"/>
        <pt x="959" y="263" on="1"/>
        <pt x="959" y="242" on="1"/>
        <pt x="762" y="79" on="1"/>
        <pt x="720" y="79" on="1"/>
      </contour>
    </TTGlyph>
    <TTGlyph name="arrowup" xMin="77" yMin="-208" xMax="424" yMax="710">
      <contour>
        <pt x="214" y="529" on="1"/>
        <pt x="77" y="471" on="1"/>
        <pt x="77" y="513" on="1"/>
        <pt x="240" y="710" on="1"/>
        <pt x="261" y="710" on="1"/>
        <pt x="424" y="513" on="1"/>
        <pt x="424" y="471" on="1"/>
        <pt x="287" y="529" on="1"/>
        <pt x="287" y="-208" on="1"/>
        <pt x="214" y="-208" on="1"/>
      </contour>
    </TTGlyph>
    <TTGlyph name="arrowupdn" xMin="76" yMin="-206" xMax="423" yMax="711">
      <contour>
        <pt x="76" y="-9" on="1"/>
        <pt x="76" y="33" on="1"/>
        <pt x="213" y="-25" on="1"/>
        <pt x="213" y="525" on="1"/>
        <pt x="76" y="472" on="1"/>
        <pt x="76" y="514" on="1"/>
        <pt x="239" y="711" on="1"/>
        <pt x="260" y="711" on="1"/>
        <pt x="423" y="514" on="1"/>
        <pt x="423" y="472" on="1"/>
        <pt x="286" y="525" on="1"/>
        <pt x="286" y="-25" on="1"/>
        <pt x="423" y="33" on="1"/>
        <pt x="423" y="-9" on="1"/>
        <pt x="260" y="-206" on="1"/>
        <pt x="239" y="-206" on="1"/>
      </contour>
    </TTGlyph>
    <TTGlyph name="arrowupdnbse" xMin="75" yMin="-233" xMax="425" yMax="711">
      <contour>
        <pt x="76" y="61" on="1"/>
        <pt x="76" y="103" on="1"/>
        <pt x="213" y="45" on="1"/>
        <pt x="213" y="525" on="1"/>
        <pt x="76" y="472" on="1"/>
        <pt x="76" y="514" on="1"/>
        <pt x="239" y="711" on="1"/>
        <pt x="260" y="711" on="1"/>
        <pt x="423" y="514" on="1"/>
        <pt x="423" y="472" on="1"/>
        <pt x="286" y="525" on="1"/>
        <pt x="286" y="45" on="1"/>
        <pt x="423" y="103" on="1"/>
        <pt x="423" y="61" on="1"/>
        <pt x="260" y="-136" on="1"/>
        <pt x="239" y="-136" on="1"/>
      </contour>
      <contour>
        <pt x="75" y="-185" on="1"/>
        <pt x="425" y="-185" on="1"/>
        <pt x="425" y="-233" on="1"/>
        <pt x="75" y="-233" on="1"/>
      </contour>
    </TTGlyph>
    <TTGlyph name="asciicircum" xMin="25" yMin="294" xMax="445" yMax="686">
      <contour>
        <pt x="181" y="686" on="1"/>
        <pt x="288" y="686" on="1"/>
        <pt x="445" y="294" on="1"/>
        <pt x="355" y="294" on="1"/>
        <pt x="234" y="609" on="1"/>
        <pt x="115" y="294" on="1"/>
        <pt x="25" y="294" on="1"/>
      </contour>
    </TTGlyph>
    <TTGlyph name="asciitilde" xMin="41" yMin="211" xMax="543" yMax="389">
      <contour>
        <pt x="41" y="304" on="1"/>
        <pt x="41" y="307" on="0"/>
        <pt x="78" y="345" on="0"/>
        <pt x="143" y="377" on="0"/>
        <pt x="186" y="377" on="1"/>
        <pt x="211" y="377" on="0"/>
        <pt x="256" y="362" on="0"/>
        <pt x="291" y="347" on="1"/>
        <pt x="323" y="332" on="0"/>
        <pt x="372" y="316" on="0"/>
        <pt x="398" y="316" on="1"/>
        <pt x="436" y="316" on="0"/>
        <pt x="500" y="348" on="0"/>
        <pt x="543" y="387" on="0"/>
        <pt x="543" y="389" on="1"/>
        <pt x="543" y="296" on="1"/>
        <pt x="543" y="293" on="0"/>
        <pt x="506" y="255" on="0"/>
        <pt x="441" y="223" on="0"/>
        <pt x="398" y="223" on="1"/>
        <pt x="373" y="223" on="0"/>
        <pt x="328" y="238" on="0"/>
        <pt x="293" y="253" on="1"/>
        <pt x="261" y="268" on="0"/>
        <pt x="212" y="284" on="0"/>
        <pt x="186" y="284" on="1"/>
        <pt x="148" y="284" on="0"/>
        <pt x="84" y="252" on="0"/>
        <pt x="41" y="213" on="0"/>
        <pt x="41" y="211" on="1"/>
      </contour>
    </TTGlyph>
    <TTGlyph name="asterisk" xMin="31" yMin="362" xMax="354" yMax="686">
      <contour>
        <pt x="168" y="481" on="1"/>
        <pt x="72" y="407" on="1"/>
        <pt x="31" y="478" on="1"/>
        <pt x="143" y="524" on="1"/>
        <pt x="31" y="571" on="1"/>
        <pt x="72" y="641" on="1"/>
        <pt x="168" y="567" on="1"/>
        <pt x="151" y="686" on="1"/>
        <pt x="234" y="686" on="1"/>
        <pt x="217" y="568" on="1"/>
        <pt x="313" y="641" on="1"/>
        <pt x="354" y="571" on="1"/>
        <pt x="242" y="524" on="1"/>
        <pt x="354" y="478" on="1"/>
        <pt x="313" y="407" on="1"/>
        <pt x="217" y="481" on="1"/>
        <pt x="234" y="362" on="1"/>
        <pt x="151" y="362" on="1"/>
      </contour>
    </TTGlyph>
    <TTGlyph name="at" xMin="57" yMin="-153" xMax="959" yMax="698">
      <contour>
        <pt x="279" y="-153" on="0"/>
        <pt x="57" y="51" on="0"/>
        <pt x="57" y="262" on="1"/>
        <pt x="57" y="415" on="0"/>
        <pt x="181" y="610" on="0"/>
        <pt x="390" y="698" on="0"/>
        <pt x="522" y="698" on="1"/>
        <pt x="722" y="698" on="0"/>
        <pt x="959" y="513" on="0"/>
        <pt x="959" y="321" on="1"/>
        <pt x="959" y="215" on="0"/>
        <pt x="888" y="81" on="0"/>
        <pt x="783" y="22" on="0"/>
        <pt x="729" y="22" on="1"/>
        <pt x="680" y="22" on="0"/>
        <pt x="630" y="54" on="0"/>
        <pt x="621" y="84" on="1"/>
        <pt x="616" y="84" on="1"/>
        <pt x="591" y="54" on="0"/>
        <pt x="511" y="21" on="0"/>
        <pt x="463" y="21" on="1"/>
        <pt x="405" y="21" on="0"/>
        <pt x="311" y="79" on="0"/>
        <pt x="311" y="155" on="1"/>
        <pt x="311" y="247" on="0"/>
        <pt x="468" y="315" on="0"/>
        <pt x="616" y="315" on="1"/>
        <pt x="616" y="373" on="1"/>
        <pt x="616" y="413" on="0"/>
        <pt x="571" y="455" on="0"/>
        <pt x="513" y="455" on="1"/>
        <pt x="461" y="455" on="0"/>
        <pt x="414" y="411" on="0"/>
        <pt x="414" y="379" on="1"/>
        <pt x="414" y="368" on="1"/>
        <pt x="334" y="368" on="1"/>
        <pt x="333" y="374" on="0"/>
        <pt x="333" y="388" on="1"/>
        <pt x="333" y="452" on="0"/>
        <pt x="436" y="521" on="0"/>
        <pt x="521" y="521" on="1"/>
        <pt x="608" y="521" on="0"/>
        <pt x="696" y="450" on="0"/>
        <pt x="696" y="383" on="1"/>
        <pt x="696" y="125" on="1"/>
        <pt x="696" y="87" on="0"/>
        <pt x="747" y="87" on="1"/>
        <pt x="807" y="87" on="0"/>
        <pt x="894" y="196" on="0"/>
        <pt x="894" y="322" on="1"/>
        <pt x="894" y="483" on="0"/>
        <pt x="694" y="639" on="0"/>
        <pt x="521" y="639" on="1"/>
        <pt x="333" y="639" on="0"/>
        <pt x="123" y="448" on="0"/>
        <pt x="123" y="261" on="1"/>
        <pt x="123" y="83" on="0"/>
        <pt x="300" y="-94" on="0"/>
        <pt x="483" y="-94" on="1"/>
        <pt x="523" y="-94" on="0"/>
        <pt x="637" y="-75" on="0"/>
        <pt x="666" y="-62" on="1"/>
        <pt x="666" y="-126" on="1"/>
        <pt x="633" y="-137" on="0"/>
        <pt x="522" y="-153" on="0"/>
        <pt x="483" y="-153" on="1"/>
      </contour>
      <contour>
        <pt x="537" y="87" on="0"/>
        <pt x="616" y="149" on="0"/>
        <pt x="616" y="205" on="1"/>
        <pt x="616" y="249" on="1"/>
        <pt x="505" y="249" on="0"/>
        <pt x="394" y="212" on="0"/>
        <pt x="394" y="160" on="1"/>
        <pt x="394" y="120" on="0"/>
        <pt x="437" y="87" on="0"/>
        <pt x="485" y="87" on="1"/>
      </contour>
    </TTGlyph>
    <TTGlyph name="atilde" xMin="36" yMin="-12" xMax="549" yMax="723">
      <component glyphName=".ttfautohint" x="36" y="0" flags="0x0"/>
      <component glyphName="a" x="0" y="0" flags="0x0"/>
      <component glyphName="tilde" x="111" y="0" flags="0x0"/>
    </TTGlyph>
    <TTGlyph name="b" xMin="67" yMin="-12" xMax="521" yMax="723">
      <contour>
        <pt x="261" y="-12" on="0"/>
        <pt x="176" y="30" on="0"/>
        <pt x="150" y="71" on="1"/>
        <pt x="144" y="71" on="1"/>
        <pt x="133" y="0" on="1"/>
        <pt x="67" y="0" on="1"/>
        <pt x="67" y="723" on="1"/>
        <pt x="155" y="723" on="1"/>
        <pt x="155" y="466" on="1"/>
        <pt x="161" y="466" on="1"/>
        <pt x="187" y="504" on="0"/>
        <pt x="265" y="538" on="0"/>
        <pt x="321" y="538" on="1"/>
        <pt x="414" y="538" on="0"/>
        <pt x="521" y="401" on="0"/>
        <pt x="521" y="263" on="1"/>
        <pt x="521" y="122" on="0"/>
        <pt x="413" y="-12" on="0"/>
        <pt x="313" y="-12" on="1"/>
      </contour>
      <contour>
        <pt x="342" y="61" on="0"/>
        <pt x="402" y="99" on="0"/>
        <pt x="430" y="185" on="0"/>
        <pt x="430" y="259" on="1"/>
        <pt x="430" y="263" on="1"/>
        <pt x="430" y="338" on="0"/>
        <pt x="402" y="426" on="0"/>
        <pt x="341" y="465" on="0"/>
        <pt x="291" y="465" on="1"/>
        <pt x="221" y="465" on="0"/>
        <pt x="155" y="363" on="0"/>
        <pt x="155" y="263" on="1"/>
        <pt x="155" y="259" on="1"/>
        <pt x="155" y="161" on="0"/>
        <pt x="220" y="61" on="0"/>
        <pt x="291" y="61" on="1"/>
      </contour>
    </TTGlyph>
    <TTGlyph name="backslash" xMin="1" yMin="-49" xMax="277" yMax="735">
      <contour>
        <pt x="1" y="735" on="1"/>
        <pt x="71" y="735" on="1"/>
        <pt x="277" y="-49" on="1"/>
        <pt x="206" y="-49" on="1"/>
      </contour>
    </TTGlyph>
    <TTGlyph name="bar" xMin="91" yMin="-173" xMax="169" yMax="723">
      <contour>
        <pt x="91" y="723" on="1"/>
        <pt x="169" y="723" on="1"/>
        <pt x="169" y="-173" on="1"/>
        <pt x="91" y="-173" on="1"/>
      </contour>
    </TTGlyph>
    <TTGlyph name="braceleft" xMin="41" yMin="-159" xMax="292" yMax="735">
      <contour>
        <pt x="213" y="-159" on="0"/>
        <pt x="123" y="-97" on="0"/>
        <pt x="123" y="-11" on="1"/>
        <pt x="123" y="186" on="1"/>
        <pt x="123" y="217" on="0"/>
        <pt x="74" y="246" on="0"/>
        <pt x="41" y="246" on="1"/>
        <pt x="41" y="330" on="1"/>
        <pt x="74" y="330" on="0"/>
        <pt x="123" y="359" on="0"/>
        <pt x="123" y="390" on="1"/>
        <pt x="123" y="587" on="1"/>
        <pt x="123" y="673" on="0"/>
        <pt x="213" y="735" on="0"/>
        <pt x="292" y="735" on="1"/>
        <pt x="292" y="678" on="1"/>
        <pt x="255" y="678" on="0"/>
        <pt x="203" y="647" on="0"/>
        <pt x="202" y="607" on="1"/>
        <pt x="195" y="401" on="1"/>
        <pt x="193" y="347" on="0"/>
        <pt x="152" y="293" on="0"/>
        <pt x="106" y="293" on="1"/>
        <pt x="106" y="283" on="1"/>
        <pt x="152" y="283" on="0"/>
        <pt x="193" y="229" on="0"/>
        <pt x="195" y="175" on="1"/>
        <pt x="202" y="-31" on="1"/>
        <pt x="203" y="-71" on="0"/>
        <pt x="255" y="-102" on="0"/>
        <pt x="292" y="-102" on="1"/>
        <pt x="292" y="-159" on="1"/>
      </contour>
    </TTGlyph>
    <TTGlyph name="braceright" xMin="42" yMin="-159" xMax="293" yMax="735">
      <contour>
        <pt x="42" y="-102" on="1"/>
        <pt x="79" y="-102" on="0"/>
        <pt x="131" y="-71" on="0"/>
        <pt x="132" y="-31" on="1"/>
        <pt x="139" y="175" on="1"/>
        <pt x="141" y="229" on="0"/>
        <pt x="182" y="283" on="0"/>
        <pt x="228" y="283" on="1"/>
        <pt x="228" y="293" on="1"/>
        <pt x="182" y="293" on="0"/>
        <pt x="141" y="347" on="0"/>
        <pt x="139" y="401" on="1"/>
        <pt x="132" y="607" on="1"/>
        <pt x="131" y="647" on="0"/>
        <pt x="79" y="678" on="0"/>
        <pt x="42" y="678" on="1"/>
        <pt x="42" y="735" on="1"/>
        <pt x="121" y="735" on="0"/>
        <pt x="211" y="673" on="0"/>
        <pt x="211" y="587" on="1"/>
        <pt x="211" y="390" on="1"/>
        <pt x="211" y="359" on="0"/>
        <pt x="260" y="330" on="0"/>
        <pt x="293" y="330" on="1"/>
        <pt x="293" y="246" on="1"/>
        <pt x="260" y="246" on="0"/>
        <pt x="211" y="217" on="0"/>
        <pt x="211" y="186" on="1"/>
        <pt x="211" y="-11" on="1"/>
        <pt x="211" y="-97" on="0"/>
        <pt x="121" y="-159" on="0"/>
        <pt x="42" y="-159" on="1"/>
      </contour>
    </TTGlyph>
    <TTGlyph name="bracketleft" xMin="63" yMin="-161" xMax="251" yMax="735">
      <contour>
        <pt x="63" y="735" on="1"/>
        <pt x="251" y="735" on="1"/>
        <pt x="251" y="670" on="1"/>
        <pt x="142" y="670" on="1"/>
        <pt x="142" y="-96" on="1"/>
        <pt x="251" y="-96" on="1"/>
        <pt x="251" y="-161" on="1"/>
        <pt x="63" y="-161" on="1"/>
      </contour>
    </TTGlyph>
    <TTGlyph name="bracketright" xMin="27" yMin="-161" xMax="215" yMax="735">
      <contour>
        <pt x="27" y="-96" on="1"/>
        <pt x="136" y="-96" on="1"/>
        <pt x="136" y="670" on="1"/>
        <pt x="27" y="670" on="1"/>
        <pt x="27" y="735" on="1"/>
        <pt x="215" y="735" on="1"/>
        <pt x="215" y="-161" on="1"/>
        <pt x="27" y="-161" on="1"/>
      </contour>
    </TTGlyph>
    <TTGlyph name="breve" xMin="21" yMin="606" xMax="312" yMax="723">
      <contour>
        <pt x="89" y="606" on="0"/>
        <pt x="21" y="675" on="0"/>
        <pt x="21" y="723" on="1"/>
        <pt x="82" y="723" on="1"/>
        <pt x="94" y="670" on="0"/>
        <pt x="166" y="670" on="1"/>
        <pt x="209" y="670" on="0"/>
        <pt x="248" y="702" on="0"/>
        <pt x="251" y="723" on="1"/>
        <pt x="312" y="723" on="1"/>
        <pt x="312" y="675" on="0"/>
        <pt x="243" y="606" on="0"/>
        <pt x="166" y="606" on="1"/>
      </contour>
    </TTGlyph>
    <TTGlyph name="brokenbar" xMin="91" yMin="-173" xMax="169" yMax="723">
      <contour>
        <pt x="91" y="723" on="1"/>
        <pt x="169" y="723" on="1"/>
        <pt x="169" y="357" on="1"/>
        <pt x="91" y="357" on="1"/>
      </contour>
      <contour>
        <pt x="91" y="193" on="1"/>
        <pt x="169" y="193" on="1"/>
        <pt x="169" y="-173" on="1"/>
        <pt x="91" y="-173" on="1"/>
      </contour>
    </TTGlyph>
    <TTGlyph name="bullet" xMin="52" yMin="220" xMax="299" yMax="467">
      <contour>
        <pt x="124" y="220" on="0"/>
        <pt x="52" y="292" on="0"/>
        <pt x="52" y="343" on="1"/>
        <pt x="52" y="394" on="0"/>
        <pt x="124" y="467" on="0"/>
        <pt x="175" y="467" on="1"/>
        <pt x="208" y="467" on="0"/>
        <pt x="265" y="433" on="0"/>
        <pt x="299" y="376" on="0"/>
        <pt x="299" y="343" on="1"/>
        <pt x="299" y="292" on="0"/>
        <pt x="226" y="220" on="0"/>
        <pt x="175" y="220" on="1"/>
      </contour>
    </TTGlyph>
    <TTGlyph name="c" xMin="35" yMin="-12" xMax="475" yMax="538">
      <contour>
        <pt x="147" y="-12" on="0"/>
        <pt x="35" y="121" on="0"/>
        <pt x="35" y="263" on="1"/>
        <pt x="35" y="404" on="0"/>
        <pt x="148" y="538" on="0"/>
        <pt x="267" y="538" on="1"/>
        <pt x="375" y="538" on="0"/>
        <pt x="475" y="434" on="0"/>
        <pt x="475" y="331" on="1"/>
        <pt x="385" y="331" on="1"/>
        <pt x="385" y="402" on="0"/>
        <pt x="334" y="465" on="0"/>
        <pt x="267" y="465" on="1"/>
        <pt x="194" y="465" on="0"/>
        <pt x="126" y="370" on="0"/>
        <pt x="126" y="263" on="1"/>
        <pt x="126" y="259" on="1"/>
        <pt x="126" y="153" on="0"/>
        <pt x="192" y="61" on="0"/>
        <pt x="267" y="61" on="1"/>
        <pt x="333" y="61" on="0"/>
        <pt x="390" y="128" on="0"/>
        <pt x="390" y="195" on="1"/>
        <pt x="475" y="195" on="1"/>
        <pt x="475" y="105" on="0"/>
        <pt x="373" y="-12" on="0"/>
        <pt x="267" y="-12" on="1"/>
      </contour>
    </TTGlyph>
    <TTGlyph name="cacute" xMin="35" yMin="-12" xMax="475" yMax="723">
      <component glyphName=".ttfautohint" x="35" y="0" flags="0x0"/>
      <component glyphName="c" x="0" y="0" flags="0x0"/>
      <component glyphName="acute" x="137" y="0" flags="0x0"/>
    </TTGlyph>
    <TTGlyph name="cacute.loclPLK" xMin="35" yMin="-12" xMax="475" yMax="723">
      <component glyphName=".ttfautohint" x="35" y="0" flags="0x0"/>
      <component glyphName="c" x="0" y="0" flags="0x0"/>
      <component glyphName="acute.loclPLK" x="107" y="0" flags="0x0"/>
    </TTGlyph>
    <TTGlyph name="caron" xMin="19" yMin="588" xMax="314" yMax="723">
      <contour>
        <pt x="19" y="723" on="1"/>
        <pt x="109" y="723" on="1"/>
        <pt x="167" y="644" on="1"/>
        <pt x="224" y="723" on="1"/>
        <pt x="314" y="723" on="1"/>
        <pt x="209" y="588" on="1"/>
        <pt x="125" y="588" on="1"/>
      </contour>
    </TTGlyph>
    <TTGlyph name="ccaron" xMin="35" yMin="-12" xMax="475" yMax="723">
      <component glyphName=".ttfautohint" x="35" y="0" flags="0x0"/>
      <component glyphName="c" x="0" y="0" flags="0x0"/>
      <component glyphName="caron" x="83" y="0" flags="0x0"/>
    </TTGlyph>
    <TTGlyph name="ccedilla" xMin="35" yMin="-182" xMax="475" yMax="538">
      <contour>
        <pt x="333" y="61" on="0"/>
        <pt x="390" y="128" on="0"/>
        <pt x="390" y="195" on="1"/>
        <pt x="475" y="195" on="1"/>
        <pt x="475" y="107" on="0"/>
        <pt x="378" y="-9" on="0"/>
        <pt x="277" y="-12" on="1"/>
        <pt x="273" y="-36" on="1"/>
        <pt x="365" y="-42" on="0"/>
        <pt x="365" y="-101" on="1"/>
        <pt x="365" y="-146" on="0"/>
        <pt x="293" y="-182" on="0"/>
        <pt x="247" y="-182" on="1"/>
        <pt x="195" y="-182" on="0"/>
        <pt x="152" y="-174" on="1"/>
        <pt x="152" y="-125" on="1"/>
        <pt x="252" y="-125" on="1"/>
        <pt x="272" y="-125" on="0"/>
        <pt x="293" y="-114" on="0"/>
        <pt x="293" y="-101" on="1"/>
        <pt x="293" y="-89" on="0"/>
        <pt x="276" y="-77" on="0"/>
        <pt x="254" y="-77" on="1"/>
        <pt x="203" y="-77" on="1"/>
        <pt x="215" y="-9" on="1"/>
        <pt x="122" y="4" on="0"/>
        <pt x="35" y="137" on="0"/>
        <pt x="35" y="263" on="1"/>
        <pt x="35" y="404" on="0"/>
        <pt x="148" y="538" on="0"/>
        <pt x="267" y="538" on="1"/>
        <pt x="375" y="538" on="0"/>
        <pt x="475" y="434" on="0"/>
        <pt x="475" y="331" on="1"/>
        <pt x="385" y="331" on="1"/>
        <pt x="385" y="402" on="0"/>
        <pt x="334" y="465" on="0"/>
        <pt x="267" y="465" on="1"/>
        <pt x="194" y="465" on="0"/>
        <pt x="126" y="370" on="0"/>
        <pt x="126" y="263" on="1"/>
        <pt x="126" y="259" on="1"/>
        <pt x="126" y="153" on="0"/>
        <pt x="192" y="61" on="0"/>
        <pt x="267" y="61" on="1"/>
      </contour>
    </TTGlyph>
    <TTGlyph name="ccircumflex" xMin="35" yMin="-12" xMax="475" yMax="723">
      <component glyphName=".ttfautohint" x="35" y="0" flags="0x0"/>
      <component glyphName="c" x="0" y="0" flags="0x0"/>
      <component glyphName="circumflex" x="83" y="0" flags="0x0"/>
    </TTGlyph>
    <TTGlyph name="cdotaccent" xMin="35" yMin="-12" xMax="475" yMax="723">
      <component glyphName=".ttfautohint" x="35" y="0" flags="0x0"/>
      <component glyphName="c" x="0" y="0" flags="0x0"/>
      <component glyphName="dotaccent" x="83" y="0" flags="0x0"/>
    </TTGlyph>
    <TTGlyph name="cedilla" xMin="52" yMin="-182" xMax="265" yMax="11">
      <contour>
        <pt x="95" y="-182" on="0"/>
        <pt x="52" y="-174" on="1"/>
        <pt x="52" y="-125" on="1"/>
        <pt x="152" y="-125" on="1"/>
        <pt x="172" y="-125" on="0"/>
        <pt x="193" y="-114" on="0"/>
        <pt x="193" y="-101" on="1"/>
        <pt x="193" y="-89" on="0"/>
        <pt x="176" y="-77" on="0"/>
        <pt x="154" y="-77" on="1"/>
        <pt x="103" y="-77" on="1"/>
        <pt x="119" y="11" on="1"/>
        <pt x="181" y="11" on="1"/>
        <pt x="173" y="-36" on="1"/>
        <pt x="265" y="-42" on="0"/>
        <pt x="265" y="-101" on="1"/>
        <pt x="265" y="-146" on="0"/>
        <pt x="193" y="-182" on="0"/>
        <pt x="147" y="-182" on="1"/>
      </contour>
    </TTGlyph>
    <TTGlyph name="cent" xMin="50" yMin="-49" xMax="490" yMax="723">
      <contour>
        <pt x="258" y="67" on="1"/>
        <pt x="150" y="74" on="0"/>
        <pt x="50" y="207" on="0"/>
        <pt x="50" y="342" on="1"/>
        <pt x="50" y="476" on="0"/>
        <pt x="152" y="610" on="0"/>
        <pt x="258" y="616" on="1"/>
        <pt x="258" y="723" on="1"/>
        <pt x="309" y="723" on="1"/>
        <pt x="309" y="616" on="1"/>
        <pt x="402" y="609" on="0"/>
        <pt x="490" y="506" on="0"/>
        <pt x="490" y="410" on="1"/>
        <pt x="400" y="410" on="1"/>
        <pt x="400" y="473" on="0"/>
        <pt x="360" y="536" on="0"/>
        <pt x="309" y="542" on="1"/>
        <pt x="309" y="141" on="1"/>
        <pt x="360" y="148" on="0"/>
        <pt x="405" y="214" on="0"/>
        <pt x="405" y="274" on="1"/>
        <pt x="490" y="274" on="1"/>
        <pt x="490" y="190" on="0"/>
        <pt x="401" y="76" on="0"/>
        <pt x="309" y="68" on="1"/>
        <pt x="309" y="-49" on="1"/>
        <pt x="258" y="-49" on="1"/>
      </contour>
      <contour>
        <pt x="258" y="543" on="1"/>
        <pt x="197" y="536" on="0"/>
        <pt x="141" y="442" on="0"/>
        <pt x="141" y="346" on="1"/>
        <pt x="141" y="338" on="1"/>
        <pt x="141" y="241" on="0"/>
        <pt x="196" y="148" on="0"/>
        <pt x="258" y="141" on="1"/>
      </contour>
    </TTGlyph>
    <TTGlyph name="circumflex" xMin="19" yMin="588" xMax="314" yMax="723">
      <contour>
        <pt x="125" y="723" on="1"/>
        <pt x="209" y="723" on="1"/>
        <pt x="314" y="588" on="1"/>
        <pt x="224" y="588" on="1"/>
        <pt x="167" y="667" on="1"/>
        <pt x="109" y="588" on="1"/>
        <pt x="19" y="588" on="1"/>
      </contour>
    </TTGlyph>
    <TTGlyph name="colon" xMin="90" yMin="0" xMax="190" yMax="526">
      <contour>
        <pt x="90" y="526" on="1"/>
        <pt x="190" y="526" on="1"/>
        <pt x="190" y="418" on="1"/>
        <pt x="90" y="418" on="1"/>
      </contour>
      <contour>
        <pt x="90" y="108" on="1"/>
        <pt x="190" y="108" on="1"/>
        <pt x="190" y="0" on="1"/>
        <pt x="90" y="0" on="1"/>
      </contour>
    </TTGlyph>
    <TTGlyph name="comma" xMin="89" yMin="-134" xMax="189" yMax="108">
      <contour>
        <pt x="129" y="0" on="1"/>
        <pt x="89" y="0" on="1"/>
        <pt x="89" y="108" on="1"/>
        <pt x="189" y="108" on="1"/>
        <pt x="189" y="9" on="1"/>
        <pt x="141" y="-134" on="1"/>
        <pt x="89" y="-134" on="1"/>
      </contour>
    </TTGlyph>
    <TTGlyph name="copyright" xMin="13" yMin="-12" xMax="723" yMax="698">
      <contour>
        <pt x="272" y="-12" on="0"/>
        <pt x="109" y="84" on="0"/>
        <pt x="13" y="247" on="0"/>
        <pt x="13" y="343" on="1"/>
        <pt x="13" y="439" on="0"/>
        <pt x="109" y="602" on="0"/>
        <pt x="272" y="698" on="0"/>
        <pt x="368" y="698" on="1"/>
        <pt x="464" y="698" on="0"/>
        <pt x="627" y="602" on="0"/>
        <pt x="723" y="439" on="0"/>
        <pt x="723" y="343" on="1"/>
        <pt x="723" y="247" on="0"/>
        <pt x="627" y="84" on="0"/>
        <pt x="464" y="-12" on="0"/>
        <pt x="368" y="-12" on="1"/>
      </contour>
      <contour>
        <pt x="451" y="35" on="0"/>
        <pt x="592" y="118" on="0"/>
        <pt x="674" y="259" on="0"/>
        <pt x="674" y="343" on="1"/>
        <pt x="674" y="427" on="0"/>
        <pt x="592" y="568" on="0"/>
        <pt x="451" y="651" on="0"/>
        <pt x="368" y="651" on="1"/>
        <pt x="285" y="651" on="0"/>
        <pt x="144" y="568" on="0"/>
        <pt x="62" y="427" on="0"/>
        <pt x="62" y="343" on="1"/>
        <pt x="62" y="259" on="0"/>
        <pt x="144" y="118" on="0"/>
        <pt x="285" y="35" on="0"/>
        <pt x="368" y="35" on="1"/>
      </contour>
      <contour>
        <pt x="277" y="134" on="0"/>
        <pt x="191" y="235" on="0"/>
        <pt x="191" y="343" on="1"/>
        <pt x="191" y="451" on="0"/>
        <pt x="277" y="553" on="0"/>
        <pt x="368" y="553" on="1"/>
        <pt x="450" y="553" on="0"/>
        <pt x="526" y="473" on="0"/>
        <pt x="526" y="395" on="1"/>
        <pt x="458" y="395" on="1"/>
        <pt x="458" y="449" on="0"/>
        <pt x="419" y="497" on="0"/>
        <pt x="368" y="497" on="1"/>
        <pt x="312" y="497" on="0"/>
        <pt x="260" y="425" on="0"/>
        <pt x="260" y="343" on="1"/>
        <pt x="260" y="261" on="0"/>
        <pt x="311" y="189" on="0"/>
        <pt x="368" y="189" on="1"/>
        <pt x="418" y="189" on="0"/>
        <pt x="462" y="240" on="0"/>
        <pt x="462" y="292" on="1"/>
        <pt x="526" y="292" on="1"/>
        <pt x="526" y="223" on="0"/>
        <pt x="448" y="134" on="0"/>
        <pt x="368" y="134" on="1"/>
      </contour>
    </TTGlyph>
    <TTGlyph name="currency" xMin="28" yMin="99" xMax="528" yMax="603">
      <contour>
        <pt x="29" y="144" on="1"/>
        <pt x="83" y="200" on="1"/>
        <pt x="58" y="231" on="0"/>
        <pt x="33" y="309" on="0"/>
        <pt x="33" y="351" on="1"/>
        <pt x="33" y="394" on="0"/>
        <pt x="58" y="473" on="0"/>
        <pt x="83" y="501" on="1"/>
        <pt x="28" y="555" on="1"/>
        <pt x="76" y="603" on="1"/>
        <pt x="133" y="547" on="1"/>
        <pt x="161" y="571" on="0"/>
        <pt x="238" y="598" on="0"/>
        <pt x="278" y="598" on="1"/>
        <pt x="318" y="598" on="0"/>
        <pt x="395" y="571" on="0"/>
        <pt x="423" y="547" on="1"/>
        <pt x="480" y="603" on="1"/>
        <pt x="528" y="555" on="1"/>
        <pt x="473" y="501" on="1"/>
        <pt x="498" y="473" on="0"/>
        <pt x="523" y="394" on="0"/>
        <pt x="523" y="351" on="1"/>
        <pt x="523" y="309" on="0"/>
        <pt x="498" y="231" on="0"/>
        <pt x="473" y="200" on="1"/>
        <pt x="527" y="144" on="1"/>
        <pt x="482" y="99" on="1"/>
        <pt x="427" y="157" on="1"/>
        <pt x="398" y="130" on="0"/>
        <pt x="320" y="102" on="0"/>
        <pt x="278" y="102" on="1"/>
        <pt x="236" y="102" on="0"/>
        <pt x="158" y="130" on="0"/>
        <pt x="129" y="157" on="1"/>
        <pt x="74" y="99" on="1"/>
      </contour>
      <contour>
        <pt x="322" y="181" on="0"/>
        <pt x="397" y="228" on="0"/>
        <pt x="441" y="306" on="0"/>
        <pt x="441" y="351" on="1"/>
        <pt x="441" y="395" on="0"/>
        <pt x="397" y="472" on="0"/>
        <pt x="322" y="519" on="0"/>
        <pt x="278" y="519" on="1"/>
        <pt x="234" y="519" on="0"/>
        <pt x="159" y="472" on="0"/>
        <pt x="115" y="395" on="0"/>
        <pt x="115" y="351" on="1"/>
        <pt x="115" y="306" on="0"/>
        <pt x="159" y="228" on="0"/>
        <pt x="234" y="181" on="0"/>
        <pt x="278" y="181" on="1"/>
      </contour>
    </TTGlyph>
    <TTGlyph name="d" xMin="35" yMin="-12" xMax="489" yMax="723">
      <contour>
        <pt x="143" y="-12" on="0"/>
        <pt x="35" y="122" on="0"/>
        <pt x="35" y="263" on="1"/>
        <pt x="35" y="401" on="0"/>
        <pt x="142" y="538" on="0"/>
        <pt x="235" y="538" on="1"/>
        <pt x="291" y="538" on="0"/>
        <pt x="369" y="504" on="0"/>
        <pt x="395" y="466" on="1"/>
        <pt x="401" y="466" on="1"/>
        <pt x="401" y="723" on="1"/>
        <pt x="489" y="723" on="1"/>
        <pt x="489" y="0" on="1"/>
        <pt x="423" y="0" on="1"/>
        <pt x="412" y="71" on="1"/>
        <pt x="406" y="71" on="1"/>
        <pt x="380" y="30" on="0"/>
        <pt x="295" y="-12" on="0"/>
        <pt x="243" y="-12" on="1"/>
      </contour>
      <contour>
        <pt x="336" y="61" on="0"/>
        <pt x="401" y="161" on="0"/>
        <pt x="401" y="259" on="1"/>
        <pt x="401" y="263" on="1"/>
        <pt x="401" y="363" on="0"/>
        <pt x="335" y="465" on="0"/>
        <pt x="265" y="465" on="1"/>
        <pt x="215" y="465" on="0"/>
        <pt x="154" y="426" on="0"/>
        <pt x="126" y="338" on="0"/>
        <pt x="126" y="263" on="1"/>
        <pt x="126" y="259" on="1"/>
        <pt x="126" y="185" on="0"/>
        <pt x="154" y="99" on="0"/>
        <pt x="214" y="61" on="0"/>
        <pt x="265" y="61" on="1"/>
      </contour>
    </TTGlyph>
    <TTGlyph name="dagger" xMin="45" yMin="-170" xMax="510" yMax="686">
      <contour>
        <pt x="250" y="431" on="1"/>
        <pt x="45" y="413" on="1"/>
        <pt x="45" y="506" on="1"/>
        <pt x="250" y="489" on="1"/>
        <pt x="233" y="686" on="1"/>
        <pt x="321" y="686" on="1"/>
        <pt x="304" y="489" on="1"/>
        <pt x="510" y="506" on="1"/>
        <pt x="510" y="413" on="1"/>
        <pt x="304" y="431" on="1"/>
        <pt x="324" y="-170" on="1"/>
        <pt x="230" y="-170" on="1"/>
      </contour>
    </TTGlyph>
    <TTGlyph name="daggerdbl" xMin="45" yMin="-170" xMax="510" yMax="686">
      <contour>
        <pt x="250" y="27" on="1"/>
        <pt x="45" y="10" on="1"/>
        <pt x="45" y="103" on="1"/>
        <pt x="250" y="85" on="1"/>
        <pt x="230" y="260" on="1"/>
        <pt x="250" y="431" on="1"/>
        <pt x="45" y="413" on="1"/>
        <pt x="45" y="506" on="1"/>
        <pt x="250" y="489" on="1"/>
        <pt x="233" y="686" on="1"/>
        <pt x="321" y="686" on="1"/>
        <pt x="304" y="489" on="1"/>
        <pt x="510" y="506" on="1"/>
        <pt x="510" y="413" on="1"/>
        <pt x="304" y="431" on="1"/>
        <pt x="324" y="260" on="1"/>
        <pt x="304" y="85" on="1"/>
        <pt x="510" y="103" on="1"/>
        <pt x="510" y="10" on="1"/>
        <pt x="304" y="27" on="1"/>
        <pt x="321" y="-170" on="1"/>
        <pt x="233" y="-170" on="1"/>
      </contour>
    </TTGlyph>
    <TTGlyph name="dcaron" xMin="35" yMin="-12" xMax="630" yMax="723">
      <contour>
        <pt x="143" y="-12" on="0"/>
        <pt x="35" y="122" on="0"/>
        <pt x="35" y="263" on="1"/>
        <pt x="35" y="401" on="0"/>
        <pt x="142" y="538" on="0"/>
        <pt x="235" y="538" on="1"/>
        <pt x="291" y="538" on="0"/>
        <pt x="369" y="504" on="0"/>
        <pt x="395" y="466" on="1"/>
        <pt x="401" y="466" on="1"/>
        <pt x="401" y="723" on="1"/>
        <pt x="489" y="723" on="1"/>
        <pt x="489" y="0" on="1"/>
        <pt x="423" y="0" on="1"/>
        <pt x="412" y="71" on="1"/>
        <pt x="406" y="71" on="1"/>
        <pt x="380" y="30" on="0"/>
        <pt x="295" y="-12" on="0"/>
        <pt x="243" y="-12" on="1"/>
      </contour>
      <contour>
        <pt x="579" y="595" on="1"/>
        <pt x="545" y="595" on="1"/>
        <pt x="545" y="686" on="1"/>
        <pt x="630" y="686" on="1"/>
        <pt x="630" y="602" on="1"/>
        <pt x="589" y="490" on="1"/>
        <pt x="545" y="490" on="1"/>
      </contour>
      <contour>
        <pt x="336" y="61" on="0"/>
        <pt x="401" y="161" on="0"/>
        <pt x="401" y="259" on="1"/>
        <pt x="401" y="263" on="1"/>
        <pt x="401" y="363" on="0"/>
        <pt x="335" y="465" on="0"/>
        <pt x="265" y="465" on="1"/>
        <pt x="215" y="465" on="0"/>
        <pt x="154" y="426" on="0"/>
        <pt x="126" y="338" on="0"/>
        <pt x="126" y="263" on="1"/>
        <pt x="126" y="259" on="1"/>
        <pt x="126" y="185" on="0"/>
        <pt x="154" y="99" on="0"/>
        <pt x="214" y="61" on="0"/>
        <pt x="265" y="61" on="1"/>
      </contour>
    </TTGlyph>
    <TTGlyph name="dcroat" xMin="35" yMin="-12" xMax="555" yMax="723">
      <contour>
        <pt x="555" y="596" on="1"/>
        <pt x="489" y="596" on="1"/>
        <pt x="489" y="0" on="1"/>
        <pt x="423" y="0" on="1"/>
        <pt x="412" y="71" on="1"/>
        <pt x="406" y="71" on="1"/>
        <pt x="380" y="30" on="0"/>
        <pt x="295" y="-12" on="0"/>
        <pt x="243" y="-12" on="1"/>
        <pt x="143" y="-12" on="0"/>
        <pt x="35" y="122" on="0"/>
        <pt x="35" y="263" on="1"/>
        <pt x="35" y="401" on="0"/>
        <pt x="142" y="538" on="0"/>
        <pt x="235" y="538" on="1"/>
        <pt x="291" y="538" on="0"/>
        <pt x="369" y="504" on="0"/>
        <pt x="395" y="466" on="1"/>
        <pt x="401" y="466" on="1"/>
        <pt x="401" y="596" on="1"/>
        <pt x="261" y="596" on="1"/>
        <pt x="261" y="658" on="1"/>
        <pt x="401" y="658" on="1"/>
        <pt x="401" y="723" on="1"/>
        <pt x="489" y="723" on="1"/>
        <pt x="489" y="658" on="1"/>
        <pt x="555" y="658" on="1"/>
      </contour>
      <contour>
        <pt x="401" y="263" on="1"/>
        <pt x="401" y="363" on="0"/>
        <pt x="335" y="465" on="0"/>
        <pt x="265" y="465" on="1"/>
        <pt x="215" y="465" on="0"/>
        <pt x="154" y="426" on="0"/>
        <pt x="126" y="338" on="0"/>
        <pt x="126" y="263" on="1"/>
        <pt x="126" y="259" on="1"/>
        <pt x="126" y="185" on="0"/>
        <pt x="154" y="99" on="0"/>
        <pt x="214" y="61" on="0"/>
        <pt x="265" y="61" on="1"/>
        <pt x="336" y="61" on="0"/>
        <pt x="401" y="161" on="0"/>
        <pt x="401" y="259" on="1"/>
      </contour>
    </TTGlyph>
    <TTGlyph name="degree" xMin="63" yMin="428" xMax="333" yMax="698">
      <contour>
        <pt x="161" y="428" on="0"/>
        <pt x="99" y="464" on="0"/>
        <pt x="63" y="526" on="0"/>
        <pt x="63" y="563" on="1"/>
        <pt x="63" y="600" on="0"/>
        <pt x="99" y="662" on="0"/>
        <pt x="161" y="698" on="0"/>
        <pt x="198" y="698" on="1"/>
        <pt x="235" y="698" on="0"/>
        <pt x="297" y="662" on="0"/>
        <pt x="333" y="600" on="0"/>
        <pt x="333" y="563" on="1"/>
        <pt x="333" y="526" on="0"/>
        <pt x="297" y="464" on="0"/>
        <pt x="235" y="428" on="0"/>
        <pt x="198" y="428" on="1"/>
      </contour>
      <contour>
        <pt x="232" y="481" on="0"/>
        <pt x="279" y="529" on="0"/>
        <pt x="279" y="563" on="1"/>
        <pt x="279" y="597" on="0"/>
        <pt x="232" y="644" on="0"/>
        <pt x="198" y="644" on="1"/>
        <pt x="164" y="644" on="0"/>
        <pt x="116" y="597" on="0"/>
        <pt x="116" y="563" on="1"/>
        <pt x="116" y="529" on="0"/>
        <pt x="164" y="481" on="0"/>
        <pt x="198" y="481" on="1"/>
      </contour>
    </TTGlyph>
    <TTGlyph name="dieresis" xMin="30" yMin="628" xMax="304" yMax="723">
      <contour>
        <pt x="30" y="723" on="1"/>
        <pt x="117" y="723" on="1"/>
        <pt x="117" y="628" on="1"/>
        <pt x="30" y="628" on="1"/>
      </contour>
      <contour>
        <pt x="217" y="723" on="1"/>
        <pt x="304" y="723" on="1"/>
        <pt x="304" y="628" on="1"/>
        <pt x="217" y="628" on="1"/>
      </contour>
    </TTGlyph>
    <TTGlyph name="divide" xMin="38" yMin="0" xMax="511" yMax="511">
      <contour>
        <pt x="224" y="511" on="1"/>
        <pt x="324" y="511" on="1"/>
        <pt x="324" y="411" on="1"/>
        <pt x="224" y="411" on="1"/>
      </contour>
      <contour>
        <pt x="38" y="297" on="1"/>
        <pt x="511" y="297" on="1"/>
        <pt x="511" y="214" on="1"/>
        <pt x="38" y="214" on="1"/>
      </contour>
      <contour>
        <pt x="224" y="100" on="1"/>
        <pt x="324" y="100" on="1"/>
        <pt x="324" y="0" on="1"/>
        <pt x="224" y="0" on="1"/>
      </contour>
    </TTGlyph>
    <TTGlyph name="dollar" xMin="55" yMin="-49" xMax="485" yMax="723">
      <contour>
        <pt x="249" y="67" on="1"/>
        <pt x="152" y="72" on="0"/>
        <pt x="55" y="160" on="0"/>
        <pt x="55" y="221" on="1"/>
        <pt x="55" y="236" on="0"/>
        <pt x="56" y="243" on="1"/>
        <pt x="143" y="243" on="1"/>
        <pt x="143" y="233" on="1"/>
        <pt x="143" y="192" on="0"/>
        <pt x="200" y="146" on="0"/>
        <pt x="249" y="140" on="1"/>
        <pt x="249" y="317" on="1"/>
        <pt x="192" y="332" on="0"/>
        <pt x="120" y="362" on="0"/>
        <pt x="70" y="420" on="0"/>
        <pt x="70" y="467" on="1"/>
        <pt x="70" y="530" on="0"/>
        <pt x="166" y="609" on="0"/>
        <pt x="249" y="616" on="1"/>
        <pt x="249" y="723" on="1"/>
        <pt x="300" y="723" on="1"/>
        <pt x="300" y="616" on="1"/>
        <pt x="380" y="611" on="0"/>
        <pt x="472" y="530" on="0"/>
        <pt x="472" y="473" on="1"/>
        <pt x="471" y="454" on="1"/>
        <pt x="385" y="454" on="1"/>
        <pt x="385" y="463" on="1"/>
        <pt x="385" y="492" on="0"/>
        <pt x="344" y="536" on="0"/>
        <pt x="300" y="542" on="1"/>
        <pt x="300" y="388" on="1"/>
        <pt x="357" y="374" on="0"/>
        <pt x="433" y="342" on="0"/>
        <pt x="485" y="279" on="0"/>
        <pt x="485" y="229" on="1"/>
        <pt x="485" y="154" on="0"/>
        <pt x="385" y="74" on="0"/>
        <pt x="300" y="68" on="1"/>
        <pt x="300" y="-49" on="1"/>
        <pt x="249" y="-49" on="1"/>
      </contour>
      <contour>
        <pt x="249" y="543" on="1"/>
        <pt x="200" y="539" on="0"/>
        <pt x="161" y="498" on="0"/>
        <pt x="161" y="473" on="1"/>
        <pt x="161" y="445" on="0"/>
        <pt x="205" y="414" on="0"/>
        <pt x="249" y="401" on="1"/>
      </contour>
      <contour>
        <pt x="342" y="145" on="0"/>
        <pt x="394" y="185" on="0"/>
        <pt x="394" y="217" on="1"/>
        <pt x="394" y="250" on="0"/>
        <pt x="346" y="288" on="0"/>
        <pt x="300" y="303" on="1"/>
        <pt x="300" y="140" on="1"/>
      </contour>
    </TTGlyph>
    <TTGlyph name="dotaccent" xMin="123" yMin="628" xMax="210" yMax="723">
      <contour>
        <pt x="123" y="723" on="1"/>
        <pt x="210" y="723" on="1"/>
        <pt x="210" y="628" on="1"/>
        <pt x="123" y="628" on="1"/>
      </contour>
    </TTGlyph>
    <TTGlyph name="dotbelowcomb" xMin="-210" yMin="-173" xMax="-123" yMax="-78">
      <contour>
        <pt x="-210" y="-78" on="1"/>
        <pt x="-123" y="-78" on="1"/>
        <pt x="-123" y="-173" on="1"/>
        <pt x="-210" y="-173" on="1"/>
      </contour>
    </TTGlyph>
    <TTGlyph name="dotlessi" xMin="95" yMin="0" xMax="183" yMax="526">
      <contour>
        <pt x="95" y="526" on="1"/>
        <pt x="183" y="526" on="1"/>
        <pt x="183" y="0" on="1"/>
        <pt x="95" y="0" on="1"/>
      </contour>
    </TTGlyph>
    <TTGlyph name="e" xMin="39" yMin="-12" xMax="517" yMax="538">
      <contour>
        <pt x="163" y="-12" on="0"/>
        <pt x="39" y="122" on="0"/>
        <pt x="39" y="263" on="1"/>
        <pt x="39" y="404" on="0"/>
        <pt x="163" y="538" on="0"/>
        <pt x="290" y="538" on="1"/>
        <pt x="404" y="538" on="0"/>
        <pt x="517" y="417" on="0"/>
        <pt x="517" y="283" on="1"/>
        <pt x="517" y="239" on="1"/>
        <pt x="130" y="239" on="1"/>
        <pt x="135" y="148" on="0"/>
        <pt x="212" y="61" on="0"/>
        <pt x="290" y="61" on="1"/>
        <pt x="353" y="61" on="0"/>
        <pt x="431" y="119" on="0"/>
        <pt x="431" y="179" on="1"/>
        <pt x="517" y="179" on="1"/>
        <pt x="517" y="87" on="0"/>
        <pt x="390" y="-12" on="0"/>
        <pt x="290" y="-12" on="1"/>
      </contour>
      <contour>
        <pt x="425" y="312" on="1"/>
        <pt x="425" y="465" on="0"/>
        <pt x="290" y="465" on="1"/>
        <pt x="215" y="465" on="0"/>
        <pt x="140" y="393" on="0"/>
        <pt x="132" y="312" on="1"/>
      </contour>
    </TTGlyph>
    <TTGlyph name="eacute" xMin="39" yMin="-12" xMax="517" yMax="723">
      <component glyphName=".ttfautohint" x="39" y="0" flags="0x0"/>
      <component glyphName="e" x="0" y="0" flags="0x0"/>
      <component glyphName="acute" x="165" y="0" flags="0x0"/>
    </TTGlyph>
    <TTGlyph name="ebreve" xMin="39" yMin="-12" xMax="517" yMax="723">
      <component glyphName=".ttfautohint" x="39" y="0" flags="0x0"/>
      <component glyphName="e" x="0" y="0" flags="0x0"/>
      <component glyphName="breve" x="111" y="0" flags="0x0"/>
    </TTGlyph>
    <TTGlyph name="ecaron" xMin="39" yMin="-12" xMax="517" yMax="723">
      <component glyphName=".ttfautohint" x="39" y="0" flags="0x0"/>
      <component glyphName="e" x="0" y="0" flags="0x0"/>
      <component glyphName="caron" x="111" y="0" flags="0x0"/>
    </TTGlyph>
    <TTGlyph name="ecircumflex" xMin="39" yMin="-12" xMax="517" yMax="723">
      <component glyphName=".ttfautohint" x="39" y="0" flags="0x0"/>
      <component glyphName="e" x="0" y="0" flags="0x0"/>
      <component glyphName="circumflex" x="111" y="0" flags="0x0"/>
    </TTGlyph>
    <TTGlyph name="edieresis" xMin="39" yMin="-12" xMax="517" yMax="723">
      <component glyphName=".ttfautohint" x="39" y="0" flags="0x0"/>
      <component glyphName="e" x="0" y="0" flags="0x0"/>
      <component glyphName="dieresis" x="111" y="0" flags="0x0"/>
    </TTGlyph>
    <TTGlyph name="edotaccent" xMin="39" yMin="-12" xMax="517" yMax="723">
      <component glyphName=".ttfautohint" x="39" y="0" flags="0x0"/>
      <component glyphName="e" x="0" y="0" flags="0x0"/>
      <component glyphName="dotaccent" x="111" y="0" flags="0x0"/>
    </TTGlyph>
    <TTGlyph name="egrave" xMin="39" yMin="-12" xMax="517" yMax="723">
      <component glyphName=".ttfautohint" x="39" y="0" flags="0x0"/>
      <component glyphName="e" x="0" y="0" flags="0x0"/>
      <component glyphName="grave" x="57" y="0" flags="0x0"/>
    </TTGlyph>
    <TTGlyph name="eight" xMin="38" yMin="-12" xMax="517" yMax="698">
      <contour>
        <pt x="157" y="-12" on="0"/>
        <pt x="38" y="99" on="0"/>
        <pt x="38" y="188" on="1"/>
        <pt x="38" y="308" on="0"/>
        <pt x="151" y="352" on="1"/>
        <pt x="105" y="376" on="0"/>
        <pt x="56" y="457" on="0"/>
        <pt x="56" y="507" on="1"/>
        <pt x="56" y="561" on="0"/>
        <pt x="107" y="647" on="0"/>
        <pt x="206" y="698" on="0"/>
        <pt x="277" y="698" on="1"/>
        <pt x="348" y="698" on="0"/>
        <pt x="447" y="647" on="0"/>
        <pt x="498" y="561" on="0"/>
        <pt x="498" y="507" on="1"/>
        <pt x="498" y="457" on="0"/>
        <pt x="449" y="376" on="0"/>
        <pt x="403" y="352" on="1"/>
        <pt x="517" y="308" on="0"/>
        <pt x="517" y="188" on="1"/>
        <pt x="517" y="99" on="0"/>
        <pt x="398" y="-12" on="0"/>
        <pt x="277" y="-12" on="1"/>
      </contour>
      <contour>
        <pt x="338" y="387" on="0"/>
        <pt x="410" y="451" on="0"/>
        <pt x="410" y="506" on="1"/>
        <pt x="410" y="561" on="0"/>
        <pt x="339" y="625" on="0"/>
        <pt x="277" y="625" on="1"/>
        <pt x="215" y="625" on="0"/>
        <pt x="144" y="561" on="0"/>
        <pt x="144" y="506" on="1"/>
        <pt x="144" y="451" on="0"/>
        <pt x="216" y="387" on="0"/>
        <pt x="277" y="387" on="1"/>
      </contour>
      <contour>
        <pt x="349" y="61" on="0"/>
        <pt x="426" y="128" on="0"/>
        <pt x="426" y="188" on="1"/>
        <pt x="426" y="247" on="0"/>
        <pt x="349" y="314" on="0"/>
        <pt x="277" y="314" on="1"/>
        <pt x="205" y="314" on="0"/>
        <pt x="129" y="247" on="0"/>
        <pt x="129" y="188" on="1"/>
        <pt x="129" y="129" on="0"/>
        <pt x="205" y="61" on="0"/>
        <pt x="277" y="61" on="1"/>
      </contour>
    </TTGlyph>
    <TTGlyph name="ellipsis" xMin="117" yMin="0" xMax="882" yMax="108">
      <contour>
        <pt x="117" y="108" on="1"/>
        <pt x="217" y="108" on="1"/>
        <pt x="217" y="0" on="1"/>
        <pt x="117" y="0" on="1"/>
      </contour>
      <contour>
        <pt x="450" y="108" on="1"/>
        <pt x="550" y="108" on="1"/>
        <pt x="550" y="0" on="1"/>
        <pt x="450" y="0" on="1"/>
      </contour>
      <contour>
        <pt x="782" y="108" on="1"/>
        <pt x="882" y="108" on="1"/>
        <pt x="882" y="0" on="1"/>
        <pt x="782" y="0" on="1"/>
      </contour>
    </TTGlyph>
    <TTGlyph name="emacron" xMin="39" yMin="-12" xMax="517" yMax="699">
      <component glyphName=".ttfautohint" x="39" y="0" flags="0x0"/>
      <component glyphName="e" x="0" y="0" flags="0x0"/>
      <component glyphName="macron" x="111" y="0" flags="0x0"/>
    </TTGlyph>
    <TTGlyph name="emdash" xMin="0" yMin="233" xMax="1000" yMax="308">
      <contour>
        <pt x="0" y="308" on="1"/>
        <pt x="1000" y="308" on="1"/>
        <pt x="1000" y="233" on="1"/>
        <pt x="0" y="233" on="1"/>
      </contour>
    </TTGlyph>
    <TTGlyph name="endash" xMin="0" yMin="233" xMax="556" yMax="308">
      <contour>
        <pt x="0" y="308" on="1"/>
        <pt x="556" y="308" on="1"/>
        <pt x="556" y="233" on="1"/>
        <pt x="0" y="233" on="1"/>
      </contour>
    </TTGlyph>
    <TTGlyph name="eng" xMin="67" yMin="-182" xMax="492" yMax="538">
      <contour>
        <pt x="347" y="-182" on="0"/>
        <pt x="313" y="-170" on="1"/>
        <pt x="313" y="-113" on="1"/>
        <pt x="357" y="-113" on="1"/>
        <pt x="404" y="-113" on="0"/>
        <pt x="404" y="-65" on="1"/>
        <pt x="404" y="353" on="1"/>
        <pt x="404" y="416" on="0"/>
        <pt x="348" y="465" on="0"/>
        <pt x="295" y="465" on="1"/>
        <pt x="257" y="465" on="0"/>
        <pt x="193" y="428" on="0"/>
        <pt x="155" y="358" on="0"/>
        <pt x="155" y="311" on="1"/>
        <pt x="155" y="0" on="1"/>
        <pt x="67" y="0" on="1"/>
        <pt x="67" y="526" on="1"/>
        <pt x="134" y="526" on="1"/>
        <pt x="144" y="455" on="1"/>
        <pt x="151" y="455" on="1"/>
        <pt x="209" y="538" on="0"/>
        <pt x="328" y="538" on="1"/>
        <pt x="407" y="538" on="0"/>
        <pt x="492" y="453" on="0"/>
        <pt x="492" y="359" on="1"/>
        <pt x="492" y="-61" on="1"/>
        <pt x="492" y="-113" on="0"/>
        <pt x="441" y="-182" on="0"/>
        <pt x="382" y="-182" on="1"/>
      </contour>
    </TTGlyph>
    <TTGlyph name="eogonek" xMin="39" yMin="-182" xMax="517" yMax="538">
      <contour>
        <pt x="409" y="-182" on="0"/>
        <pt x="353" y="-137" on="0"/>
        <pt x="353" y="-85" on="1"/>
        <pt x="353" y="-59" on="0"/>
        <pt x="368" y="-13" on="0"/>
        <pt x="378" y="3" on="1"/>
        <pt x="338" y="-12" on="0"/>
        <pt x="290" y="-12" on="1"/>
        <pt x="163" y="-12" on="0"/>
        <pt x="39" y="122" on="0"/>
        <pt x="39" y="263" on="1"/>
        <pt x="39" y="404" on="0"/>
        <pt x="163" y="538" on="0"/>
        <pt x="290" y="538" on="1"/>
        <pt x="404" y="538" on="0"/>
        <pt x="517" y="417" on="0"/>
        <pt x="517" y="283" on="1"/>
        <pt x="517" y="239" on="1"/>
        <pt x="130" y="239" on="1"/>
        <pt x="135" y="148" on="0"/>
        <pt x="212" y="61" on="0"/>
        <pt x="290" y="61" on="1"/>
        <pt x="353" y="61" on="0"/>
        <pt x="431" y="119" on="0"/>
        <pt x="431" y="179" on="1"/>
        <pt x="517" y="179" on="1"/>
        <pt x="516" y="106" on="0"/>
        <pt x="478" y="61" on="1"/>
        <pt x="460" y="39" on="0"/>
        <pt x="432" y="-22" on="0"/>
        <pt x="432" y="-52" on="1"/>
        <pt x="432" y="-80" on="0"/>
        <pt x="458" y="-117" on="0"/>
        <pt x="485" y="-117" on="1"/>
        <pt x="517" y="-117" on="1"/>
        <pt x="517" y="-168" on="1"/>
        <pt x="481" y="-182" on="0"/>
        <pt x="451" y="-182" on="1"/>
      </contour>
      <contour>
        <pt x="425" y="312" on="1"/>
        <pt x="425" y="465" on="0"/>
        <pt x="290" y="465" on="1"/>
        <pt x="215" y="465" on="0"/>
        <pt x="140" y="393" on="0"/>
        <pt x="132" y="312" on="1"/>
      </contour>
    </TTGlyph>
    <TTGlyph name="equal" xMin="56" yMin="106" xMax="529" yMax="402">
      <contour>
        <pt x="56" y="402" on="1"/>
        <pt x="529" y="402" on="1"/>
        <pt x="529" y="318" on="1"/>
        <pt x="56" y="318" on="1"/>
      </contour>
      <contour>
        <pt x="56" y="189" on="1"/>
        <pt x="529" y="189" on="1"/>
        <pt x="529" y="106" on="1"/>
        <pt x="56" y="106" on="1"/>
      </contour>
    </TTGlyph>
    <TTGlyph name="equivalence" xMin="57" yMin="7" xMax="529" yMax="516">
      <contour>
        <pt x="57" y="516" on="1"/>
        <pt x="529" y="516" on="1"/>
        <pt x="529" y="432" on="1"/>
        <pt x="57" y="432" on="1"/>
      </contour>
      <contour>
        <pt x="57" y="303" on="1"/>
        <pt x="529" y="303" on="1"/>
        <pt x="529" y="219" on="1"/>
        <pt x="57" y="219" on="1"/>
      </contour>
      <contour>
        <pt x="57" y="90" on="1"/>
        <pt x="529" y="90" on="1"/>
        <pt x="529" y="7" on="1"/>
        <pt x="57" y="7" on="1"/>
      </contour>
    </TTGlyph>
    <TTGlyph name="estimated" xMin="45" yMin="-12" xMax="559" yMax="538">
      <contour>
        <pt x="224" y="-12" on="0"/>
        <pt x="107" y="59" on="0"/>
        <pt x="45" y="183" on="0"/>
        <pt x="45" y="263" on="1"/>
        <pt x="45" y="343" on="0"/>
        <pt x="107" y="467" on="0"/>
        <pt x="224" y="538" on="0"/>
        <pt x="302" y="538" on="1"/>
        <pt x="380" y="538" on="0"/>
        <pt x="496" y="465" on="0"/>
        <pt x="559" y="335" on="0"/>
        <pt x="559" y="253" on="1"/>
        <pt x="559" y="248" on="1"/>
        <pt x="153" y="248" on="1"/>
        <pt x="153" y="83" on="1"/>
        <pt x="211" y="30" on="0"/>
        <pt x="302" y="30" on="1"/>
        <pt x="367" y="30" on="0"/>
        <pt x="466" y="88" on="0"/>
        <pt x="492" y="139" on="1"/>
        <pt x="526" y="118" on="1"/>
        <pt x="494" y="57" on="0"/>
        <pt x="379" y="-12" on="0"/>
        <pt x="302" y="-12" on="1"/>
      </contour>
      <contour>
        <pt x="451" y="290" on="1"/>
        <pt x="451" y="441" on="1"/>
        <pt x="391" y="496" on="0"/>
        <pt x="302" y="496" on="1"/>
        <pt x="212" y="496" on="0"/>
        <pt x="153" y="442" on="1"/>
        <pt x="153" y="290" on="1"/>
      </contour>
    </TTGlyph>
    <TTGlyph name="eth" xMin="35" yMin="-12" xMax="521" yMax="723">
      <contour>
        <pt x="441" y="541" on="0"/>
        <pt x="521" y="367" on="0"/>
        <pt x="521" y="263" on="1"/>
        <pt x="521" y="123" on="0"/>
        <pt x="399" y="-12" on="0"/>
        <pt x="278" y="-12" on="1"/>
        <pt x="157" y="-12" on="0"/>
        <pt x="35" y="123" on="0"/>
        <pt x="35" y="263" on="1"/>
        <pt x="35" y="402" on="0"/>
        <pt x="159" y="538" on="0"/>
        <pt x="264" y="538" on="1"/>
        <pt x="299" y="538" on="0"/>
        <pt x="341" y="527" on="1"/>
        <pt x="342" y="528" on="1"/>
        <pt x="313" y="573" on="0"/>
        <pt x="272" y="612" on="1"/>
        <pt x="120" y="600" on="1"/>
        <pt x="120" y="660" on="1"/>
        <pt x="219" y="668" on="1"/>
        <pt x="175" y="701" on="1"/>
        <pt x="151" y="719" on="1"/>
        <pt x="153" y="723" on="1"/>
        <pt x="251" y="723" on="1"/>
        <pt x="283" y="699" on="0"/>
        <pt x="308" y="675" on="1"/>
        <pt x="460" y="685" on="1"/>
        <pt x="460" y="625" on="1"/>
        <pt x="367" y="619" on="1"/>
      </contour>
      <contour>
        <pt x="357" y="61" on="0"/>
        <pt x="429" y="155" on="0"/>
        <pt x="430" y="261" on="1"/>
        <pt x="429" y="369" on="0"/>
        <pt x="357" y="465" on="0"/>
        <pt x="278" y="465" on="1"/>
        <pt x="198" y="465" on="0"/>
        <pt x="126" y="372" on="0"/>
        <pt x="126" y="268" on="1"/>
        <pt x="126" y="263" on="1"/>
        <pt x="126" y="156" on="0"/>
        <pt x="198" y="61" on="0"/>
        <pt x="278" y="61" on="1"/>
      </contour>
    </TTGlyph>
    <TTGlyph name="exclam" xMin="83" yMin="0" xMax="197" yMax="686">
      <contour>
        <pt x="83" y="686" on="1"/>
        <pt x="197" y="686" on="1"/>
        <pt x="171" y="171" on="1"/>
        <pt x="109" y="171" on="1"/>
      </contour>
      <contour>
        <pt x="90" y="108" on="1"/>
        <pt x="190" y="108" on="1"/>
        <pt x="190" y="0" on="1"/>
        <pt x="90" y="0" on="1"/>
      </contour>
    </TTGlyph>
    <TTGlyph name="exclamdbl" xMin="83" yMin="0" xMax="417" yMax="686">
      <component glyphName=".ttfautohint" x="83" y="0" flags="0x0"/>
      <component glyphName="exclam" x="220" y="0" flags="0x0"/>
      <component glyphName="exclam" x="0" y="0" flags="0x0"/>
    </TTGlyph>
    <TTGlyph name="exclamdown" xMin="110" yMin="-160" xMax="224" yMax="526">
      <contour>
        <pt x="117" y="526" on="1"/>
        <pt x="217" y="526" on="1"/>
        <pt x="217" y="418" on="1"/>
        <pt x="117" y="418" on="1"/>
      </contour>
      <contour>
        <pt x="136" y="355" on="1"/>
        <pt x="198" y="355" on="1"/>
        <pt x="224" y="-160" on="1"/>
        <pt x="110" y="-160" on="1"/>
      </contour>
    </TTGlyph>
    <TTGlyph name="f" xMin="9" yMin="0" xMax="275" yMax="731">
      <contour>
        <pt x="86" y="453" on="1"/>
        <pt x="9" y="453" on="1"/>
        <pt x="9" y="526" on="1"/>
        <pt x="86" y="526" on="1"/>
        <pt x="86" y="610" on="1"/>
        <pt x="86" y="662" on="0"/>
        <pt x="138" y="731" on="0"/>
        <pt x="200" y="731" on="1"/>
        <pt x="220" y="731" on="0"/>
        <pt x="261" y="724" on="0"/>
        <pt x="275" y="719" on="1"/>
        <pt x="275" y="658" on="1"/>
        <pt x="223" y="658" on="1"/>
        <pt x="174" y="658" on="0"/>
        <pt x="174" y="610" on="1"/>
        <pt x="174" y="526" on="1"/>
        <pt x="275" y="526" on="1"/>
        <pt x="275" y="453" on="1"/>
        <pt x="174" y="453" on="1"/>
        <pt x="174" y="0" on="1"/>
        <pt x="86" y="0" on="1"/>
      </contour>
    </TTGlyph>
    <TTGlyph name="f_f" xMin="9" yMin="0" xMax="553" yMax="731">
      <contour>
        <pt x="452" y="658" on="0"/>
        <pt x="452" y="610" on="1"/>
        <pt x="452" y="526" on="1"/>
        <pt x="553" y="526" on="1"/>
        <pt x="553" y="453" on="1"/>
        <pt x="452" y="453" on="1"/>
        <pt x="452" y="0" on="1"/>
        <pt x="364" y="0" on="1"/>
        <pt x="364" y="453" on="1"/>
        <pt x="174" y="453" on="1"/>
        <pt x="174" y="0" on="1"/>
        <pt x="86" y="0" on="1"/>
        <pt x="86" y="453" on="1"/>
        <pt x="9" y="453" on="1"/>
        <pt x="9" y="526" on="1"/>
        <pt x="86" y="526" on="1"/>
        <pt x="86" y="610" on="1"/>
        <pt x="86" y="662" on="0"/>
        <pt x="138" y="731" on="0"/>
        <pt x="200" y="731" on="1"/>
        <pt x="220" y="731" on="0"/>
        <pt x="261" y="724" on="0"/>
        <pt x="275" y="719" on="1"/>
        <pt x="275" y="658" on="1"/>
        <pt x="223" y="658" on="1"/>
        <pt x="174" y="658" on="0"/>
        <pt x="174" y="610" on="1"/>
        <pt x="174" y="526" on="1"/>
        <pt x="364" y="526" on="1"/>
        <pt x="364" y="610" on="1"/>
        <pt x="364" y="662" on="0"/>
        <pt x="416" y="731" on="0"/>
        <pt x="478" y="731" on="1"/>
        <pt x="498" y="731" on="0"/>
        <pt x="539" y="724" on="0"/>
        <pt x="553" y="719" on="1"/>
        <pt x="553" y="658" on="1"/>
        <pt x="501" y="658" on="1"/>
      </contour>
    </TTGlyph>
    <TTGlyph name="fi" xMin="9" yMin="0" xMax="433" yMax="731">
      <component glyphName=".ttfautohint" x="9" y="0" flags="0x0"/>
      <component glyphName="f" x="0" y="0" flags="0x0"/>
      <component glyphName="i" x="278" y="0" flags="0x0"/>
    </TTGlyph>
    <TTGlyph name="five" xMin="36" yMin="-12" xMax="514" yMax="686">
      <contour>
        <pt x="166" y="-12" on="0"/>
        <pt x="36" y="109" on="0"/>
        <pt x="36" y="213" on="1"/>
        <pt x="126" y="213" on="1"/>
        <pt x="126" y="144" on="0"/>
        <pt x="211" y="60" on="0"/>
        <pt x="276" y="60" on="1"/>
        <pt x="343" y="60" on="0"/>
        <pt x="423" y="143" on="0"/>
        <pt x="423" y="224" on="1"/>
        <pt x="423" y="294" on="0"/>
        <pt x="347" y="372" on="0"/>
        <pt x="284" y="372" on="1"/>
        <pt x="239" y="372" on="0"/>
        <pt x="162" y="329" on="0"/>
        <pt x="141" y="293" on="1"/>
        <pt x="60" y="306" on="1"/>
        <pt x="88" y="686" on="1"/>
        <pt x="478" y="686" on="1"/>
        <pt x="478" y="602" on="1"/>
        <pt x="161" y="602" on="1"/>
        <pt x="145" y="393" on="1"/>
        <pt x="211" y="446" on="0"/>
        <pt x="302" y="446" on="1"/>
        <pt x="395" y="446" on="0"/>
        <pt x="514" y="332" on="0"/>
        <pt x="514" y="224" on="1"/>
        <pt x="514" y="112" on="0"/>
        <pt x="387" y="-12" on="0"/>
        <pt x="276" y="-12" on="1"/>
      </contour>
    </TTGlyph>
    <TTGlyph name="fiveeighths" xMin="40" yMin="-12" xMax="790" yMax="698">
      <contour>
        <pt x="654" y="698" on="1"/>
        <pt x="726" y="698" on="1"/>
        <pt x="180" y="-12" on="1"/>
        <pt x="108" y="-12" on="1"/>
      </contour>
      <contour>
        <pt x="110" y="322" on="0"/>
        <pt x="40" y="387" on="0"/>
        <pt x="40" y="442" on="1"/>
        <pt x="103" y="442" on="1"/>
        <pt x="103" y="412" on="0"/>
        <pt x="140" y="377" on="0"/>
        <pt x="169" y="377" on="1"/>
        <pt x="198" y="377" on="0"/>
        <pt x="232" y="413" on="0"/>
        <pt x="232" y="448" on="1"/>
        <pt x="232" y="480" on="0"/>
        <pt x="195" y="511" on="0"/>
        <pt x="163" y="511" on="1"/>
        <pt x="130" y="511" on="0"/>
        <pt x="106" y="491" on="1"/>
        <pt x="52" y="500" on="1"/>
        <pt x="67" y="686" on="1"/>
        <pt x="278" y="686" on="1"/>
        <pt x="278" y="630" on="1"/>
        <pt x="120" y="630" on="1"/>
        <pt x="114" y="551" on="1"/>
        <pt x="142" y="567" on="0"/>
        <pt x="182" y="567" on="1"/>
        <pt x="232" y="567" on="0"/>
        <pt x="296" y="506" on="0"/>
        <pt x="296" y="448" on="1"/>
        <pt x="296" y="388" on="0"/>
        <pt x="228" y="322" on="0"/>
        <pt x="169" y="322" on="1"/>
      </contour>
      <contour>
        <pt x="598" y="-12" on="0"/>
        <pt x="535" y="48" on="0"/>
        <pt x="535" y="97" on="1"/>
        <pt x="535" y="154" on="0"/>
        <pt x="588" y="179" on="1"/>
        <pt x="567" y="193" on="0"/>
        <pt x="543" y="232" on="0"/>
        <pt x="543" y="254" on="1"/>
        <pt x="543" y="300" on="0"/>
        <pt x="605" y="358" on="0"/>
        <pt x="662" y="358" on="1"/>
        <pt x="719" y="358" on="0"/>
        <pt x="781" y="300" on="0"/>
        <pt x="781" y="254" on="1"/>
        <pt x="781" y="233" on="0"/>
        <pt x="757" y="193" on="0"/>
        <pt x="737" y="179" on="1"/>
        <pt x="762" y="166" on="0"/>
        <pt x="790" y="122" on="0"/>
        <pt x="790" y="97" on="1"/>
        <pt x="790" y="48" on="0"/>
        <pt x="726" y="-12" on="0"/>
        <pt x="662" y="-12" on="1"/>
      </contour>
      <contour>
        <pt x="688" y="205" on="0"/>
        <pt x="718" y="231" on="0"/>
        <pt x="718" y="254" on="1"/>
        <pt x="718" y="277" on="0"/>
        <pt x="688" y="303" on="0"/>
        <pt x="662" y="303" on="1"/>
        <pt x="636" y="303" on="0"/>
        <pt x="606" y="277" on="0"/>
        <pt x="606" y="254" on="1"/>
        <pt x="606" y="231" on="0"/>
        <pt x="636" y="205" on="0"/>
        <pt x="662" y="205" on="1"/>
      </contour>
      <contour>
        <pt x="693" y="43" on="0"/>
        <pt x="726" y="71" on="0"/>
        <pt x="726" y="97" on="1"/>
        <pt x="726" y="122" on="0"/>
        <pt x="693" y="149" on="0"/>
        <pt x="662" y="149" on="1"/>
        <pt x="631" y="149" on="0"/>
        <pt x="598" y="122" on="0"/>
        <pt x="598" y="97" on="1"/>
        <pt x="598" y="71" on="0"/>
        <pt x="631" y="43" on="0"/>
        <pt x="662" y="43" on="1"/>
      </contour>
    </TTGlyph>
    <TTGlyph name="fl" xMin="9" yMin="0" xMax="433" yMax="731">
      <component glyphName=".ttfautohint" x="9" y="0" flags="0x0"/>
      <component glyphName="f" x="0" y="0" flags="0x0"/>
      <component glyphName="l" x="278" y="0" flags="0x0"/>
    </TTGlyph>
    <TTGlyph name="florin" xMin="39" yMin="-183" xMax="518" yMax="731">
      <contour>
        <pt x="91" y="-183" on="0"/>
        <pt x="51" y="-176" on="0"/>
        <pt x="39" y="-171" on="1"/>
        <pt x="52" y="-110" on="1"/>
        <pt x="104" y="-110" on="1"/>
        <pt x="152" y="-110" on="0"/>
        <pt x="163" y="-62" on="1"/>
        <pt x="262" y="402" on="1"/>
        <pt x="185" y="402" on="1"/>
        <pt x="200" y="475" on="1"/>
        <pt x="277" y="475" on="1"/>
        <pt x="306" y="610" on="1"/>
        <pt x="317" y="662" on="0"/>
        <pt x="384" y="731" on="0"/>
        <pt x="446" y="731" on="1"/>
        <pt x="466" y="731" on="0"/>
        <pt x="506" y="724" on="0"/>
        <pt x="518" y="719" on="1"/>
        <pt x="505" y="658" on="1"/>
        <pt x="453" y="658" on="1"/>
        <pt x="405" y="658" on="0"/>
        <pt x="394" y="610" on="1"/>
        <pt x="365" y="475" on="1"/>
        <pt x="466" y="475" on="1"/>
        <pt x="451" y="402" on="1"/>
        <pt x="350" y="402" on="1"/>
        <pt x="251" y="-62" on="1"/>
        <pt x="240" y="-114" on="0"/>
        <pt x="173" y="-183" on="0"/>
        <pt x="111" y="-183" on="1"/>
      </contour>
    </TTGlyph>
    <TTGlyph name="four" xMin="25" yMin="0" xMax="523" yMax="698">
      <contour>
        <pt x="344" y="169" on="1"/>
        <pt x="25" y="169" on="1"/>
        <pt x="25" y="243" on="1"/>
        <pt x="90" y="354" on="0"/>
        <pt x="182" y="576" on="0"/>
        <pt x="209" y="698" on="1"/>
        <pt x="304" y="698" on="1"/>
        <pt x="285" y="613" on="0"/>
        <pt x="211" y="424" on="0"/>
        <pt x="134" y="272" on="0"/>
        <pt x="111" y="242" on="1"/>
        <pt x="344" y="242" on="1"/>
        <pt x="344" y="467" on="1"/>
        <pt x="365" y="521" on="0"/>
        <pt x="385" y="596" on="1"/>
        <pt x="432" y="596" on="1"/>
        <pt x="432" y="242" on="1"/>
        <pt x="523" y="242" on="1"/>
        <pt x="523" y="169" on="1"/>
        <pt x="432" y="169" on="1"/>
        <pt x="432" y="0" on="1"/>
        <pt x="344" y="0" on="1"/>
      </contour>
    </TTGlyph>
    <TTGlyph name="fraction" xMin="-226" yMin="-12" xMax="392" yMax="698">
      <contour>
        <pt x="320" y="698" on="1"/>
        <pt x="392" y="698" on="1"/>
        <pt x="-154" y="-12" on="1"/>
        <pt x="-226" y="-12" on="1"/>
      </contour>
    </TTGlyph>
    <TTGlyph name="franc" xMin="79" yMin="0" xMax="544" yMax="686">
      <contour>
        <pt x="79" y="686" on="1"/>
        <pt x="427" y="686" on="1"/>
        <pt x="427" y="611" on="1"/>
        <pt x="169" y="611" on="1"/>
        <pt x="169" y="385" on="1"/>
        <pt x="300" y="385" on="1"/>
        <pt x="300" y="464" on="1"/>
        <pt x="367" y="464" on="1"/>
        <pt x="377" y="385" on="1"/>
        <pt x="383" y="385" on="1"/>
        <pt x="416" y="476" on="0"/>
        <pt x="497" y="476" on="1"/>
        <pt x="515" y="476" on="0"/>
        <pt x="541" y="469" on="0"/>
        <pt x="544" y="468" on="1"/>
        <pt x="544" y="383" on="1"/>
        <pt x="507" y="383" on="1"/>
        <pt x="455" y="383" on="0"/>
        <pt x="388" y="318" on="0"/>
        <pt x="388" y="249" on="1"/>
        <pt x="388" y="0" on="1"/>
        <pt x="300" y="0" on="1"/>
        <pt x="300" y="312" on="1"/>
        <pt x="169" y="312" on="1"/>
        <pt x="169" y="0" on="1"/>
        <pt x="79" y="0" on="1"/>
      </contour>
    </TTGlyph>
    <TTGlyph name="g" xMin="18" yMin="-182" xMax="539" yMax="611">
      <contour>
        <pt x="103" y="-182" on="0"/>
        <pt x="18" y="-123" on="0"/>
        <pt x="18" y="-55" on="1"/>
        <pt x="18" y="27" on="0"/>
        <pt x="103" y="57" on="1"/>
        <pt x="79" y="70" on="0"/>
        <pt x="48" y="111" on="0"/>
        <pt x="48" y="138" on="1"/>
        <pt x="48" y="177" on="0"/>
        <pt x="103" y="217" on="0"/>
        <pt x="136" y="225" on="1"/>
        <pt x="103" y="249" on="0"/>
        <pt x="65" y="319" on="0"/>
        <pt x="65" y="361" on="1"/>
        <pt x="65" y="445" on="0"/>
        <pt x="179" y="538" on="0"/>
        <pt x="278" y="538" on="1"/>
        <pt x="333" y="538" on="0"/>
        <pt x="378" y="520" on="1"/>
        <pt x="443" y="551" on="0"/>
        <pt x="454" y="611" on="1"/>
        <pt x="538" y="611" on="1"/>
        <pt x="538" y="564" on="0"/>
        <pt x="483" y="496" on="0"/>
        <pt x="436" y="485" on="1"/>
        <pt x="492" y="435" on="0"/>
        <pt x="492" y="361" on="1"/>
        <pt x="492" y="277" on="0"/>
        <pt x="377" y="184" on="0"/>
        <pt x="278" y="184" on="1"/>
        <pt x="194" y="184" on="1"/>
        <pt x="167" y="184" on="0"/>
        <pt x="138" y="160" on="0"/>
        <pt x="138" y="141" on="1"/>
        <pt x="138" y="122" on="0"/>
        <pt x="167" y="98" on="0"/>
        <pt x="194" y="98" on="1"/>
        <pt x="405" y="98" on="1"/>
        <pt x="467" y="98" on="0"/>
        <pt x="539" y="23" on="0"/>
        <pt x="539" y="-30" on="1"/>
        <pt x="539" y="-68" on="0"/>
        <pt x="505" y="-138" on="0"/>
        <pt x="430" y="-182" on="0"/>
        <pt x="373" y="-182" on="1"/>
        <pt x="161" y="-182" on="1"/>
      </contour>
      <contour>
        <pt x="341" y="252" on="0"/>
        <pt x="405" y="309" on="0"/>
        <pt x="405" y="361" on="1"/>
        <pt x="405" y="413" on="0"/>
        <pt x="341" y="470" on="0"/>
        <pt x="279" y="470" on="1"/>
        <pt x="217" y="470" on="0"/>
        <pt x="153" y="413" on="0"/>
        <pt x="153" y="361" on="1"/>
        <pt x="153" y="309" on="0"/>
        <pt x="217" y="252" on="0"/>
        <pt x="279" y="252" on="1"/>
      </contour>
      <contour>
        <pt x="375" y="-111" on="1"/>
        <pt x="408" y="-111" on="0"/>
        <pt x="452" y="-75" on="0"/>
        <pt x="452" y="-45" on="1"/>
        <pt x="452" y="-15" on="0"/>
        <pt x="417" y="20" on="0"/>
        <pt x="388" y="20" on="1"/>
        <pt x="169" y="20" on="1"/>
        <pt x="140" y="20" on="0"/>
        <pt x="106" y="-15" on="0"/>
        <pt x="106" y="-45" on="1"/>
        <pt x="106" y="-75" on="0"/>
        <pt x="140" y="-111" on="0"/>
        <pt x="169" y="-111" on="1"/>
      </contour>
    </TTGlyph>
    <TTGlyph name="g_tilde.loclGUA" xMin="18" yMin="-182" xMax="539" yMax="723">
      <component glyphName=".ttfautohint" x="18" y="0" flags="0x0"/>
      <component glyphName="g" x="0" y="0" flags="0x0"/>
      <component glyphName="tilde" x="111" y="0" flags="0x0"/>
    </TTGlyph>
    <TTGlyph name="gbreve" xMin="18" yMin="-182" xMax="539" yMax="723">
      <component glyphName=".ttfautohint" x="18" y="0" flags="0x0"/>
      <component glyphName="g" x="0" y="0" flags="0x0"/>
      <component glyphName="breve" x="111" y="0" flags="0x0"/>
    </TTGlyph>
    <TTGlyph name="gcaron" xMin="18" yMin="-182" xMax="539" yMax="723">
      <component glyphName=".ttfautohint" x="18" y="0" flags="0x0"/>
      <component glyphName="g" x="0" y="0" flags="0x0"/>
      <component glyphName="caron" x="111" y="0" flags="0x0"/>
    </TTGlyph>
    <TTGlyph name="gcircumflex" xMin="18" yMin="-182" xMax="539" yMax="723">
      <contour>
        <pt x="236" y="723" on="1"/>
        <pt x="320" y="723" on="1"/>
        <pt x="425" y="588" on="1"/>
        <pt x="335" y="588" on="1"/>
        <pt x="278" y="667" on="1"/>
        <pt x="220" y="588" on="1"/>
        <pt x="130" y="588" on="1"/>
      </contour>
      <contour>
        <pt x="103" y="-182" on="0"/>
        <pt x="18" y="-123" on="0"/>
        <pt x="18" y="-55" on="1"/>
        <pt x="18" y="27" on="0"/>
        <pt x="103" y="57" on="1"/>
        <pt x="79" y="70" on="0"/>
        <pt x="48" y="111" on="0"/>
        <pt x="48" y="138" on="1"/>
        <pt x="48" y="177" on="0"/>
        <pt x="103" y="217" on="0"/>
        <pt x="136" y="225" on="1"/>
        <pt x="103" y="249" on="0"/>
        <pt x="65" y="319" on="0"/>
        <pt x="65" y="361" on="1"/>
        <pt x="65" y="445" on="0"/>
        <pt x="179" y="538" on="0"/>
        <pt x="278" y="538" on="1"/>
        <pt x="333" y="538" on="0"/>
        <pt x="378" y="520" on="1"/>
        <pt x="443" y="551" on="0"/>
        <pt x="454" y="611" on="1"/>
        <pt x="538" y="611" on="1"/>
        <pt x="538" y="564" on="0"/>
        <pt x="483" y="496" on="0"/>
        <pt x="436" y="485" on="1"/>
        <pt x="492" y="435" on="0"/>
        <pt x="492" y="361" on="1"/>
        <pt x="492" y="277" on="0"/>
        <pt x="377" y="184" on="0"/>
        <pt x="278" y="184" on="1"/>
        <pt x="194" y="184" on="1"/>
        <pt x="167" y="184" on="0"/>
        <pt x="138" y="160" on="0"/>
        <pt x="138" y="141" on="1"/>
        <pt x="138" y="122" on="0"/>
        <pt x="167" y="98" on="0"/>
        <pt x="194" y="98" on="1"/>
        <pt x="405" y="98" on="1"/>
        <pt x="467" y="98" on="0"/>
        <pt x="539" y="23" on="0"/>
        <pt x="539" y="-30" on="1"/>
        <pt x="539" y="-68" on="0"/>
        <pt x="505" y="-138" on="0"/>
        <pt x="430" y="-182" on="0"/>
        <pt x="373" y="-182" on="1"/>
        <pt x="161" y="-182" on="1"/>
      </contour>
      <contour>
        <pt x="341" y="252" on="0"/>
        <pt x="405" y="309" on="0"/>
        <pt x="405" y="361" on="1"/>
        <pt x="405" y="413" on="0"/>
        <pt x="341" y="470" on="0"/>
        <pt x="279" y="470" on="1"/>
        <pt x="217" y="470" on="0"/>
        <pt x="153" y="413" on="0"/>
        <pt x="153" y="361" on="1"/>
        <pt x="153" y="309" on="0"/>
        <pt x="217" y="252" on="0"/>
        <pt x="279" y="252" on="1"/>
      </contour>
      <contour>
        <pt x="375" y="-111" on="1"/>
        <pt x="408" y="-111" on="0"/>
        <pt x="452" y="-75" on="0"/>
        <pt x="452" y="-45" on="1"/>
        <pt x="452" y="-15" on="0"/>
        <pt x="417" y="20" on="0"/>
        <pt x="388" y="20" on="1"/>
        <pt x="169" y="20" on="1"/>
        <pt x="140" y="20" on="0"/>
        <pt x="106" y="-15" on="0"/>
        <pt x="106" y="-45" on="1"/>
        <pt x="106" y="-75" on="0"/>
        <pt x="140" y="-111" on="0"/>
        <pt x="169" y="-111" on="1"/>
      </contour>
    </TTGlyph>
    <TTGlyph name="gcommaaccent" xMin="18" yMin="-182" xMax="539" yMax="780">
      <contour>
        <pt x="237" y="692" on="1"/>
        <pt x="280" y="780" on="1"/>
        <pt x="325" y="780" on="1"/>
        <pt x="288" y="699" on="1"/>
        <pt x="325" y="699" on="1"/>
        <pt x="325" y="608" on="1"/>
        <pt x="237" y="608" on="1"/>
      </contour>
      <contour>
        <pt x="103" y="-182" on="0"/>
        <pt x="18" y="-123" on="0"/>
        <pt x="18" y="-55" on="1"/>
        <pt x="18" y="27" on="0"/>
        <pt x="103" y="57" on="1"/>
        <pt x="79" y="70" on="0"/>
        <pt x="48" y="111" on="0"/>
        <pt x="48" y="138" on="1"/>
        <pt x="48" y="177" on="0"/>
        <pt x="103" y="217" on="0"/>
        <pt x="136" y="225" on="1"/>
        <pt x="103" y="249" on="0"/>
        <pt x="65" y="319" on="0"/>
        <pt x="65" y="361" on="1"/>
        <pt x="65" y="445" on="0"/>
        <pt x="179" y="538" on="0"/>
        <pt x="278" y="538" on="1"/>
        <pt x="333" y="538" on="0"/>
        <pt x="378" y="520" on="1"/>
        <pt x="443" y="551" on="0"/>
        <pt x="454" y="611" on="1"/>
        <pt x="538" y="611" on="1"/>
        <pt x="538" y="564" on="0"/>
        <pt x="483" y="496" on="0"/>
        <pt x="436" y="485" on="1"/>
        <pt x="492" y="435" on="0"/>
        <pt x="492" y="361" on="1"/>
        <pt x="492" y="277" on="0"/>
        <pt x="377" y="184" on="0"/>
        <pt x="278" y="184" on="1"/>
        <pt x="194" y="184" on="1"/>
        <pt x="167" y="184" on="0"/>
        <pt x="138" y="160" on="0"/>
        <pt x="138" y="141" on="1"/>
        <pt x="138" y="122" on="0"/>
        <pt x="167" y="98" on="0"/>
        <pt x="194" y="98" on="1"/>
        <pt x="405" y="98" on="1"/>
        <pt x="467" y="98" on="0"/>
        <pt x="539" y="23" on="0"/>
        <pt x="539" y="-30" on="1"/>
        <pt x="539" y="-68" on="0"/>
        <pt x="505" y="-138" on="0"/>
        <pt x="430" y="-182" on="0"/>
        <pt x="373" y="-182" on="1"/>
        <pt x="161" y="-182" on="1"/>
      </contour>
      <contour>
        <pt x="341" y="252" on="0"/>
        <pt x="405" y="309" on="0"/>
        <pt x="405" y="361" on="1"/>
        <pt x="405" y="413" on="0"/>
        <pt x="341" y="470" on="0"/>
        <pt x="279" y="470" on="1"/>
        <pt x="217" y="470" on="0"/>
        <pt x="153" y="413" on="0"/>
        <pt x="153" y="361" on="1"/>
        <pt x="153" y="309" on="0"/>
        <pt x="217" y="252" on="0"/>
        <pt x="279" y="252" on="1"/>
      </contour>
      <contour>
        <pt x="375" y="-111" on="1"/>
        <pt x="408" y="-111" on="0"/>
        <pt x="452" y="-75" on="0"/>
        <pt x="452" y="-45" on="1"/>
        <pt x="452" y="-15" on="0"/>
        <pt x="417" y="20" on="0"/>
        <pt x="388" y="20" on="1"/>
        <pt x="169" y="20" on="1"/>
        <pt x="140" y="20" on="0"/>
        <pt x="106" y="-15" on="0"/>
        <pt x="106" y="-45" on="1"/>
        <pt x="106" y="-75" on="0"/>
        <pt x="140" y="-111" on="0"/>
        <pt x="169" y="-111" on="1"/>
      </contour>
    </TTGlyph>
    <TTGlyph name="gdotaccent" xMin="18" yMin="-182" xMax="539" yMax="723">
      <component glyphName=".ttfautohint" x="18" y="0" flags="0x0"/>
      <component glyphName="g" x="0" y="0" flags="0x0"/>
      <component glyphName="dotaccent" x="111" y="0" flags="0x0"/>
    </TTGlyph>
    <TTGlyph name="germandbls" xMin="64" yMin="0" xMax="581" yMax="735">
      <contour>
        <pt x="64" y="516" on="1"/>
        <pt x="64" y="627" on="0"/>
        <pt x="204" y="735" on="0"/>
        <pt x="314" y="735" on="1"/>
        <pt x="387" y="735" on="0"/>
        <pt x="496" y="689" on="0"/>
        <pt x="555" y="606" on="0"/>
        <pt x="555" y="554" on="1"/>
        <pt x="555" y="498" on="0"/>
        <pt x="491" y="413" on="0"/>
        <pt x="436" y="395" on="1"/>
        <pt x="436" y="391" on="1"/>
        <pt x="501" y="371" on="0"/>
        <pt x="581" y="273" on="0"/>
        <pt x="581" y="206" on="1"/>
        <pt x="581" y="149" on="0"/>
        <pt x="522" y="54" on="0"/>
        <pt x="421" y="0" on="0"/>
        <pt x="361" y="0" on="1"/>
        <pt x="237" y="0" on="1"/>
        <pt x="237" y="74" on="1"/>
        <pt x="351" y="74" on="1"/>
        <pt x="389" y="74" on="0"/>
        <pt x="453" y="112" on="0"/>
        <pt x="491" y="176" on="0"/>
        <pt x="491" y="213" on="1"/>
        <pt x="491" y="251" on="0"/>
        <pt x="451" y="314" on="0"/>
        <pt x="382" y="350" on="0"/>
        <pt x="341" y="350" on="1"/>
        <pt x="237" y="350" on="1"/>
        <pt x="237" y="423" on="1"/>
        <pt x="331" y="423" on="1"/>
        <pt x="367" y="423" on="0"/>
        <pt x="429" y="456" on="0"/>
        <pt x="465" y="514" on="0"/>
        <pt x="465" y="548" on="1"/>
        <pt x="465" y="599" on="0"/>
        <pt x="385" y="662" on="0"/>
        <pt x="313" y="662" on="1"/>
        <pt x="238" y="662" on="0"/>
        <pt x="153" y="588" on="0"/>
        <pt x="153" y="518" on="1"/>
        <pt x="153" y="0" on="1"/>
        <pt x="64" y="0" on="1"/>
      </contour>
    </TTGlyph>
    <TTGlyph name="grave" xMin="75" yMin="591" xMax="258" yMax="723">
      <contour>
        <pt x="75" y="720" on="1"/>
        <pt x="76" y="723" on="1"/>
        <pt x="172" y="723" on="1"/>
        <pt x="258" y="591" on="1"/>
        <pt x="183" y="591" on="1"/>
      </contour>
    </TTGlyph>
    <TTGlyph name="greater" xMin="55" yMin="4" xMax="529" yMax="504">
      <contour>
        <pt x="55" y="94" on="1"/>
        <pt x="448" y="254" on="1"/>
        <pt x="55" y="414" on="1"/>
        <pt x="55" y="504" on="1"/>
        <pt x="529" y="307" on="1"/>
        <pt x="529" y="200" on="1"/>
        <pt x="55" y="4" on="1"/>
      </contour>
    </TTGlyph>
    <TTGlyph name="greaterequal" xMin="38" yMin="0" xMax="511" yMax="624">
      <contour>
        <pt x="38" y="214" on="1"/>
        <pt x="430" y="374" on="1"/>
        <pt x="38" y="534" on="1"/>
        <pt x="38" y="624" on="1"/>
        <pt x="511" y="427" on="1"/>
        <pt x="511" y="320" on="1"/>
        <pt x="38" y="124" on="1"/>
      </contour>
      <contour>
        <pt x="38" y="83" on="1"/>
        <pt x="511" y="83" on="1"/>
        <pt x="511" y="0" on="1"/>
        <pt x="38" y="0" on="1"/>
      </contour>
    </TTGlyph>
    <TTGlyph name="guillemotleft" xMin="64" yMin="126" xMax="487" yMax="526">
      <contour>
        <pt x="64" y="326" on="1"/>
        <pt x="221" y="526" on="1"/>
        <pt x="292" y="526" on="1"/>
        <pt x="163" y="326" on="1"/>
        <pt x="292" y="126" on="1"/>
        <pt x="221" y="126" on="1"/>
      </contour>
      <contour>
        <pt x="259" y="326" on="1"/>
        <pt x="416" y="526" on="1"/>
        <pt x="487" y="526" on="1"/>
        <pt x="358" y="326" on="1"/>
        <pt x="487" y="126" on="1"/>
        <pt x="416" y="126" on="1"/>
      </contour>
    </TTGlyph>
    <TTGlyph name="guillemotright" xMin="64" yMin="126" xMax="487" yMax="526">
      <contour>
        <pt x="193" y="326" on="1"/>
        <pt x="64" y="526" on="1"/>
        <pt x="135" y="526" on="1"/>
        <pt x="292" y="326" on="1"/>
        <pt x="135" y="126" on="1"/>
        <pt x="64" y="126" on="1"/>
      </contour>
      <contour>
        <pt x="388" y="326" on="1"/>
        <pt x="259" y="526" on="1"/>
        <pt x="330" y="526" on="1"/>
        <pt x="487" y="326" on="1"/>
        <pt x="330" y="126" on="1"/>
        <pt x="259" y="126" on="1"/>
      </contour>
    </TTGlyph>
    <TTGlyph name="guilsinglleft" xMin="55" yMin="126" xMax="283" yMax="526">
      <contour>
        <pt x="55" y="326" on="1"/>
        <pt x="212" y="526" on="1"/>
        <pt x="283" y="526" on="1"/>
        <pt x="154" y="326" on="1"/>
        <pt x="283" y="126" on="1"/>
        <pt x="212" y="126" on="1"/>
      </contour>
    </TTGlyph>
    <TTGlyph name="guilsinglright" xMin="50" yMin="126" xMax="278" yMax="526">
      <contour>
        <pt x="179" y="326" on="1"/>
        <pt x="50" y="526" on="1"/>
        <pt x="121" y="526" on="1"/>
        <pt x="278" y="326" on="1"/>
        <pt x="121" y="126" on="1"/>
        <pt x="50" y="126" on="1"/>
      </contour>
    </TTGlyph>
    <TTGlyph name="h" xMin="67" yMin="0" xMax="492" yMax="723">
      <contour>
        <pt x="67" y="723" on="1"/>
        <pt x="155" y="723" on="1"/>
        <pt x="155" y="467" on="1"/>
        <pt x="162" y="467" on="1"/>
        <pt x="217" y="538" on="0"/>
        <pt x="328" y="538" on="1"/>
        <pt x="492" y="538" on="0"/>
        <pt x="492" y="359" on="1"/>
        <pt x="492" y="0" on="1"/>
        <pt x="404" y="0" on="1"/>
        <pt x="404" y="353" on="1"/>
        <pt x="404" y="416" on="0"/>
        <pt x="348" y="465" on="0"/>
        <pt x="295" y="465" on="1"/>
        <pt x="257" y="465" on="0"/>
        <pt x="193" y="428" on="0"/>
        <pt x="155" y="358" on="0"/>
        <pt x="155" y="311" on="1"/>
        <pt x="155" y="0" on="1"/>
        <pt x="67" y="0" on="1"/>
      </contour>
    </TTGlyph>
    <TTGlyph name="hbar" xMin="1" yMin="0" xMax="492" yMax="723">
      <contour>
        <pt x="67" y="596" on="1"/>
        <pt x="1" y="596" on="1"/>
        <pt x="1" y="658" on="1"/>
        <pt x="67" y="658" on="1"/>
        <pt x="67" y="723" on="1"/>
        <pt x="155" y="723" on="1"/>
        <pt x="155" y="658" on="1"/>
        <pt x="295" y="658" on="1"/>
        <pt x="295" y="596" on="1"/>
        <pt x="155" y="596" on="1"/>
        <pt x="155" y="467" on="1"/>
        <pt x="162" y="467" on="1"/>
        <pt x="217" y="538" on="0"/>
        <pt x="328" y="538" on="1"/>
        <pt x="492" y="538" on="0"/>
        <pt x="492" y="359" on="1"/>
        <pt x="492" y="0" on="1"/>
        <pt x="404" y="0" on="1"/>
        <pt x="404" y="353" on="1"/>
        <pt x="404" y="416" on="0"/>
        <pt x="348" y="465" on="0"/>
        <pt x="295" y="465" on="1"/>
        <pt x="257" y="465" on="0"/>
        <pt x="193" y="428" on="0"/>
        <pt x="155" y="358" on="0"/>
        <pt x="155" y="311" on="1"/>
        <pt x="155" y="0" on="1"/>
        <pt x="67" y="0" on="1"/>
      </contour>
    </TTGlyph>
    <TTGlyph name="hcircumflex" xMin="-37" yMin="0" xMax="492" yMax="883">
      <component glyphName=".ttfautohint" x="0" y="0" flags="0x0"/>
      <component glyphName="h" x="0" y="0" flags="0x0"/>
      <component glyphName="circumflex" x="-56" y="160" flags="0x4"/>
    </TTGlyph>
    <TTGlyph name="hookabovecomb" xMin="-248" yMin="591" xMax="-85" yMax="735">
      <contour>
        <pt x="-199" y="652" on="1"/>
        <pt x="-186" y="652" on="1"/>
        <pt x="-157" y="652" on="0"/>
        <pt x="-157" y="670" on="1"/>
        <pt x="-157" y="680" on="0"/>
        <pt x="-172" y="688" on="0"/>
        <pt x="-188" y="688" on="1"/>
        <pt x="-248" y="688" on="1"/>
        <pt x="-248" y="727" on="1"/>
        <pt x="-214" y="735" on="0"/>
        <pt x="-176" y="735" on="1"/>
        <pt x="-139" y="735" on="0"/>
        <pt x="-85" y="708" on="0"/>
        <pt x="-85" y="675" on="1"/>
        <pt x="-85" y="650" on="0"/>
        <pt x="-118" y="621" on="0"/>
        <pt x="-143" y="619" on="1"/>
        <pt x="-143" y="591" on="1"/>
        <pt x="-199" y="591" on="1"/>
      </contour>
    </TTGlyph>
    <TTGlyph name="house" xMin="77" yMin="0" xMax="527" yMax="563">
      <contour>
        <pt x="77" y="310" on="1"/>
        <pt x="302" y="563" on="1"/>
        <pt x="527" y="310" on="1"/>
        <pt x="527" y="0" on="1"/>
        <pt x="77" y="0" on="1"/>
      </contour>
      <contour>
        <pt x="488" y="40" on="1"/>
        <pt x="488" y="293" on="1"/>
        <pt x="302" y="501" on="1"/>
        <pt x="116" y="293" on="1"/>
        <pt x="116" y="40" on="1"/>
      </contour>
    </TTGlyph>
    <TTGlyph name="hungarumlaut" xMin="27" yMin="591" xMax="326" yMax="723">
      <contour>
        <pt x="89" y="723" on="1"/>
        <pt x="186" y="723" on="1"/>
        <pt x="187" y="720" on="1"/>
        <pt x="103" y="591" on="1"/>
        <pt x="27" y="591" on="1"/>
      </contour>
      <contour>
        <pt x="228" y="723" on="1"/>
        <pt x="325" y="723" on="1"/>
        <pt x="326" y="720" on="1"/>
        <pt x="242" y="591" on="1"/>
        <pt x="166" y="591" on="1"/>
      </contour>
    </TTGlyph>
    <TTGlyph name="hyphen" xMin="32" yMin="221" xMax="302" yMax="319">
      <contour>
        <pt x="32" y="319" on="1"/>
        <pt x="302" y="319" on="1"/>
        <pt x="302" y="221" on="1"/>
        <pt x="32" y="221" on="1"/>
      </contour>
    </TTGlyph>
    <TTGlyph name="i" xMin="67" yMin="0" xMax="155" yMax="723">
      <contour>
        <pt x="67" y="723" on="1"/>
        <pt x="155" y="723" on="1"/>
        <pt x="155" y="625" on="1"/>
        <pt x="67" y="625" on="1"/>
      </contour>
      <contour>
        <pt x="67" y="526" on="1"/>
        <pt x="155" y="526" on="1"/>
        <pt x="155" y="0" on="1"/>
        <pt x="67" y="0" on="1"/>
      </contour>
    </TTGlyph>
    <TTGlyph name="i.loclTRK" xMin="95" yMin="0" xMax="183" yMax="723">
      <component glyphName=".ttfautohint" x="95" y="0" flags="0x0"/>
      <component glyphName="dotlessi" x="0" y="0" flags="0x0"/>
      <component glyphName="dotaccent" x="-28" y="0" flags="0x0"/>
    </TTGlyph>
    <TTGlyph name="iacute" xMin="85" yMin="0" xMax="268" yMax="723">
      <contour>
        <pt x="171" y="723" on="1"/>
        <pt x="267" y="723" on="1"/>
        <pt x="268" y="720" on="1"/>
        <pt x="160" y="591" on="1"/>
        <pt x="85" y="591" on="1"/>
      </contour>
      <contour>
        <pt x="95" y="526" on="1"/>
        <pt x="183" y="526" on="1"/>
        <pt x="183" y="0" on="1"/>
        <pt x="95" y="0" on="1"/>
      </contour>
    </TTGlyph>
    <TTGlyph name="iacute_j.loclNLD" xMin="85" yMin="-182" xMax="534" yMax="723">
      <component glyphName=".ttfautohint" x="85" y="0" flags="0x0"/>
      <component glyphName="iacute" x="0" y="0" flags="0x0"/>
      <component glyphName="uni0237" x="278" y="0" flags="0x0"/>
      <component glyphName="acute" x="276" y="0" flags="0x0"/>
    </TTGlyph>
    <TTGlyph name="ibreve" xMin="-6" yMin="0" xMax="285" yMax="723">
      <contour>
        <pt x="62" y="606" on="0"/>
        <pt x="-6" y="675" on="0"/>
        <pt x="-6" y="723" on="1"/>
        <pt x="55" y="723" on="1"/>
        <pt x="67" y="670" on="0"/>
        <pt x="139" y="670" on="1"/>
        <pt x="182" y="670" on="0"/>
        <pt x="221" y="702" on="0"/>
        <pt x="224" y="723" on="1"/>
        <pt x="285" y="723" on="1"/>
        <pt x="285" y="675" on="0"/>
        <pt x="216" y="606" on="0"/>
        <pt x="139" y="606" on="1"/>
      </contour>
      <contour>
        <pt x="95" y="526" on="1"/>
        <pt x="183" y="526" on="1"/>
        <pt x="183" y="0" on="1"/>
        <pt x="95" y="0" on="1"/>
      </contour>
    </TTGlyph>
    <TTGlyph name="icircumflex" xMin="-8" yMin="0" xMax="287" yMax="723">
      <contour>
        <pt x="98" y="723" on="1"/>
        <pt x="182" y="723" on="1"/>
        <pt x="287" y="588" on="1"/>
        <pt x="197" y="588" on="1"/>
        <pt x="140" y="667" on="1"/>
        <pt x="82" y="588" on="1"/>
        <pt x="-8" y="588" on="1"/>
      </contour>
      <contour>
        <pt x="95" y="526" on="1"/>
        <pt x="183" y="526" on="1"/>
        <pt x="183" y="0" on="1"/>
        <pt x="95" y="0" on="1"/>
      </contour>
    </TTGlyph>
    <TTGlyph name="idieresis" xMin="2" yMin="0" xMax="276" yMax="723">
      <contour>
        <pt x="2" y="723" on="1"/>
        <pt x="89" y="723" on="1"/>
        <pt x="89" y="628" on="1"/>
        <pt x="2" y="628" on="1"/>
      </contour>
      <contour>
        <pt x="189" y="723" on="1"/>
        <pt x="276" y="723" on="1"/>
        <pt x="276" y="628" on="1"/>
        <pt x="189" y="628" on="1"/>
      </contour>
      <contour>
        <pt x="95" y="526" on="1"/>
        <pt x="183" y="526" on="1"/>
        <pt x="183" y="0" on="1"/>
        <pt x="95" y="0" on="1"/>
      </contour>
    </TTGlyph>
    <TTGlyph name="igrave" xMin="9" yMin="0" xMax="192" yMax="723">
      <contour>
        <pt x="9" y="720" on="1"/>
        <pt x="10" y="723" on="1"/>
        <pt x="106" y="723" on="1"/>
        <pt x="192" y="591" on="1"/>
        <pt x="117" y="591" on="1"/>
      </contour>
      <contour>
        <pt x="95" y="526" on="1"/>
        <pt x="183" y="526" on="1"/>
        <pt x="183" y="0" on="1"/>
        <pt x="95" y="0" on="1"/>
      </contour>
    </TTGlyph>
    <TTGlyph name="ij" xMin="67" yMin="-182" xMax="377" yMax="723">
      <component glyphName=".ttfautohint" x="67" y="0" flags="0x0"/>
      <component glyphName="i" x="0" y="0" flags="0x0"/>
      <component glyphName="j" x="222" y="0" flags="0x0"/>
    </TTGlyph>
    <TTGlyph name="imacron" xMin="12" yMin="0" xMax="266" yMax="711">
      <contour>
        <pt x="12" y="711" on="1"/>
        <pt x="266" y="711" on="1"/>
        <pt x="266" y="639" on="1"/>
        <pt x="12" y="639" on="1"/>
      </contour>
      <contour>
        <pt x="95" y="526" on="1"/>
        <pt x="183" y="526" on="1"/>
        <pt x="183" y="0" on="1"/>
        <pt x="95" y="0" on="1"/>
      </contour>
    </TTGlyph>
    <TTGlyph name="infinity" xMin="47" yMin="142" xMax="665" yMax="453">
      <contour>
        <pt x="127" y="142" on="0"/>
        <pt x="47" y="230" on="0"/>
        <pt x="47" y="297" on="1"/>
        <pt x="47" y="363" on="0"/>
        <pt x="128" y="453" on="0"/>
        <pt x="195" y="453" on="1"/>
        <pt x="242" y="453" on="0"/>
        <pt x="317" y="402" on="0"/>
        <pt x="356" y="356" on="1"/>
        <pt x="393" y="401" on="0"/>
        <pt x="469" y="453" on="0"/>
        <pt x="517" y="453" on="1"/>
        <pt x="584" y="453" on="0"/>
        <pt x="665" y="363" on="0"/>
        <pt x="665" y="297" on="1"/>
        <pt x="665" y="230" on="0"/>
        <pt x="585" y="142" on="0"/>
        <pt x="518" y="142" on="1"/>
        <pt x="469" y="142" on="0"/>
        <pt x="393" y="193" on="0"/>
        <pt x="356" y="238" on="1"/>
        <pt x="318" y="193" on="0"/>
        <pt x="242" y="142" on="0"/>
        <pt x="194" y="142" on="1"/>
      </contour>
      <contour>
        <pt x="225" y="214" on="0"/>
        <pt x="277" y="256" on="0"/>
        <pt x="309" y="297" on="1"/>
        <pt x="278" y="336" on="0"/>
        <pt x="225" y="377" on="0"/>
        <pt x="195" y="377" on="1"/>
        <pt x="165" y="377" on="0"/>
        <pt x="121" y="329" on="0"/>
        <pt x="121" y="295" on="1"/>
        <pt x="121" y="261" on="0"/>
        <pt x="164" y="214" on="0"/>
        <pt x="194" y="214" on="1"/>
      </contour>
      <contour>
        <pt x="548" y="214" on="0"/>
        <pt x="591" y="261" on="0"/>
        <pt x="591" y="295" on="1"/>
        <pt x="591" y="329" on="0"/>
        <pt x="547" y="377" on="0"/>
        <pt x="517" y="377" on="1"/>
        <pt x="486" y="377" on="0"/>
        <pt x="434" y="337" on="0"/>
        <pt x="402" y="297" on="1"/>
        <pt x="434" y="256" on="0"/>
        <pt x="487" y="214" on="0"/>
        <pt x="518" y="214" on="1"/>
      </contour>
    </TTGlyph>
    <TTGlyph name="integral" xMin="33" yMin="-141" xMax="249" yMax="859">
      <contour>
        <pt x="33" y="-91" on="1"/>
        <pt x="118" y="-91" on="0"/>
        <pt x="118" y="-33" on="1"/>
        <pt x="114" y="67" on="0"/>
        <pt x="91" y="651" on="0"/>
        <pt x="91" y="747" on="1"/>
        <pt x="91" y="812" on="0"/>
        <pt x="174" y="859" on="0"/>
        <pt x="249" y="859" on="1"/>
        <pt x="249" y="810" on="1"/>
        <pt x="162" y="810" on="0"/>
        <pt x="162" y="753" on="1"/>
        <pt x="167" y="652" on="0"/>
        <pt x="190" y="67" on="0"/>
        <pt x="190" y="-29" on="1"/>
        <pt x="190" y="-94" on="0"/>
        <pt x="108" y="-141" on="0"/>
        <pt x="33" y="-141" on="1"/>
      </contour>
    </TTGlyph>
    <TTGlyph name="integralbt" xMin="187" yMin="-250" xMax="345" yMax="859">
      <contour>
        <pt x="187" y="-201" on="1"/>
        <pt x="274" y="-201" on="0"/>
        <pt x="274" y="-144" on="1"/>
        <pt x="257" y="859" on="1"/>
        <pt x="331" y="859" on="1"/>
        <pt x="345" y="-21" on="0"/>
        <pt x="345" y="-138" on="1"/>
        <pt x="345" y="-203" on="0"/>
        <pt x="262" y="-250" on="0"/>
        <pt x="187" y="-250" on="1"/>
      </contour>
    </TTGlyph>
    <TTGlyph name="integraltp" xMin="259" yMin="-250" xMax="417" yMax="859">
      <contour>
        <pt x="259" y="630" on="0"/>
        <pt x="259" y="747" on="1"/>
        <pt x="259" y="812" on="0"/>
        <pt x="342" y="859" on="0"/>
        <pt x="417" y="859" on="1"/>
        <pt x="417" y="810" on="1"/>
        <pt x="330" y="810" on="0"/>
        <pt x="330" y="753" on="1"/>
        <pt x="347" y="-250" on="1"/>
        <pt x="273" y="-250" on="1"/>
      </contour>
    </TTGlyph>
    <TTGlyph name="intersection" xMin="94" yMin="0" xMax="625" yMax="676">
      <contour>
        <pt x="94" y="410" on="1"/>
        <pt x="94" y="482" on="0"/>
        <pt x="165" y="604" on="0"/>
        <pt x="287" y="676" on="0"/>
        <pt x="359" y="676" on="1"/>
        <pt x="431" y="676" on="0"/>
        <pt x="553" y="604" on="0"/>
        <pt x="625" y="482" on="0"/>
        <pt x="625" y="410" on="1"/>
        <pt x="625" y="0" on="1"/>
        <pt x="552" y="0" on="1"/>
        <pt x="552" y="411" on="1"/>
        <pt x="552" y="463" on="0"/>
        <pt x="500" y="552" on="0"/>
        <pt x="411" y="604" on="0"/>
        <pt x="359" y="604" on="1"/>
        <pt x="307" y="604" on="0"/>
        <pt x="219" y="552" on="0"/>
        <pt x="167" y="463" on="0"/>
        <pt x="167" y="411" on="1"/>
        <pt x="167" y="0" on="1"/>
        <pt x="94" y="0" on="1"/>
      </contour>
    </TTGlyph>
    <TTGlyph name="iogonek" xMin="37" yMin="-190" xMax="200" yMax="723">
      <contour>
        <pt x="182" y="628" on="1"/>
        <pt x="95" y="628" on="1"/>
        <pt x="95" y="723" on="1"/>
        <pt x="182" y="723" on="1"/>
      </contour>
      <contour>
        <pt x="200" y="-125" on="1"/>
        <pt x="200" y="-176" on="1"/>
        <pt x="167" y="-190" on="0"/>
        <pt x="139" y="-190" on="1"/>
        <pt x="97" y="-190" on="0"/>
        <pt x="37" y="-147" on="0"/>
        <pt x="37" y="-100" on="1"/>
        <pt x="37" y="-67" on="0"/>
        <pt x="66" y="-20" on="0"/>
        <pt x="93" y="4" on="1"/>
        <pt x="95" y="4" on="1"/>
        <pt x="95" y="526" on="1"/>
        <pt x="183" y="526" on="1"/>
        <pt x="183" y="0" on="1"/>
        <pt x="153" y="0" on="1"/>
        <pt x="138" y="-14" on="0"/>
        <pt x="115" y="-51" on="0"/>
        <pt x="115" y="-70" on="1"/>
        <pt x="115" y="-93" on="0"/>
        <pt x="141" y="-125" on="0"/>
        <pt x="168" y="-125" on="1"/>
      </contour>
    </TTGlyph>
    <TTGlyph name="itilde" xMin="-24" yMin="0" xMax="303" yMax="723">
      <contour>
        <pt x="-24" y="664" on="0"/>
        <pt x="18" y="723" on="0"/>
        <pt x="61" y="723" on="1"/>
        <pt x="80" y="723" on="0"/>
        <pt x="115" y="715" on="0"/>
        <pt x="140" y="707" on="1"/>
        <pt x="183" y="692" on="0"/>
        <pt x="210" y="692" on="1"/>
        <pt x="235" y="692" on="0"/>
        <pt x="238" y="723" on="1"/>
        <pt x="303" y="723" on="1"/>
        <pt x="303" y="678" on="0"/>
        <pt x="261" y="619" on="0"/>
        <pt x="218" y="619" on="1"/>
        <pt x="199" y="619" on="0"/>
        <pt x="164" y="627" on="0"/>
        <pt x="139" y="635" on="1"/>
        <pt x="96" y="650" on="0"/>
        <pt x="69" y="650" on="1"/>
        <pt x="44" y="650" on="0"/>
        <pt x="41" y="619" on="1"/>
        <pt x="-24" y="619" on="1"/>
      </contour>
      <contour>
        <pt x="95" y="526" on="1"/>
        <pt x="183" y="526" on="1"/>
        <pt x="183" y="0" on="1"/>
        <pt x="95" y="0" on="1"/>
      </contour>
    </TTGlyph>
    <TTGlyph name="j" xMin="-24" yMin="-182" xMax="155" yMax="723">
      <contour>
        <pt x="67" y="723" on="1"/>
        <pt x="155" y="723" on="1"/>
        <pt x="155" y="625" on="1"/>
        <pt x="67" y="625" on="1"/>
      </contour>
      <contour>
        <pt x="10" y="-182" on="0"/>
        <pt x="-24" y="-170" on="1"/>
        <pt x="-24" y="-113" on="1"/>
        <pt x="20" y="-113" on="1"/>
        <pt x="67" y="-113" on="0"/>
        <pt x="67" y="-65" on="1"/>
        <pt x="67" y="526" on="1"/>
        <pt x="155" y="526" on="1"/>
        <pt x="155" y="-61" on="1"/>
        <pt x="155" y="-113" on="0"/>
        <pt x="104" y="-182" on="0"/>
        <pt x="45" y="-182" on="1"/>
      </contour>
    </TTGlyph>
    <TTGlyph name="jcircumflex" xMin="-36" yMin="-182" xMax="259" yMax="723">
      <contour>
        <pt x="70" y="723" on="1"/>
        <pt x="154" y="723" on="1"/>
        <pt x="259" y="588" on="1"/>
        <pt x="169" y="588" on="1"/>
        <pt x="112" y="667" on="1"/>
        <pt x="54" y="588" on="1"/>
        <pt x="-36" y="588" on="1"/>
      </contour>
      <contour>
        <pt x="10" y="-182" on="0"/>
        <pt x="-24" y="-170" on="1"/>
        <pt x="-24" y="-113" on="1"/>
        <pt x="20" y="-113" on="1"/>
        <pt x="67" y="-113" on="0"/>
        <pt x="67" y="-65" on="1"/>
        <pt x="67" y="526" on="1"/>
        <pt x="155" y="526" on="1"/>
        <pt x="155" y="-61" on="1"/>
        <pt x="155" y="-113" on="0"/>
        <pt x="104" y="-182" on="0"/>
        <pt x="45" y="-182" on="1"/>
      </contour>
    </TTGlyph>
    <TTGlyph name="k" xMin="67" yMin="0" xMax="497" yMax="723">
      <contour>
        <pt x="67" y="723" on="1"/>
        <pt x="155" y="723" on="1"/>
        <pt x="155" y="268" on="1"/>
        <pt x="378" y="526" on="1"/>
        <pt x="487" y="526" on="1"/>
        <pt x="306" y="319" on="1"/>
        <pt x="497" y="0" on="1"/>
        <pt x="395" y="0" on="1"/>
        <pt x="251" y="256" on="1"/>
        <pt x="155" y="165" on="1"/>
        <pt x="155" y="0" on="1"/>
        <pt x="67" y="0" on="1"/>
      </contour>
    </TTGlyph>
    <TTGlyph name="kcommaaccent" xMin="67" yMin="-230" xMax="497" yMax="723">
      <component glyphName=".ttfautohint" x="67" y="0" flags="0x0"/>
      <component glyphName="k" x="0" y="0" flags="0x0"/>
      <component glyphName="uni0326" x="386" y="0" flags="0x0"/>
    </TTGlyph>
    <TTGlyph name="kgreenlandic" xMin="67" yMin="0" xMax="497" yMax="526">
      <contour>
        <pt x="67" y="526" on="1"/>
        <pt x="155" y="526" on="1"/>
        <pt x="155" y="268" on="1"/>
        <pt x="378" y="526" on="1"/>
        <pt x="487" y="526" on="1"/>
        <pt x="306" y="319" on="1"/>
        <pt x="497" y="0" on="1"/>
        <pt x="395" y="0" on="1"/>
        <pt x="251" y="256" on="1"/>
        <pt x="155" y="165" on="1"/>
        <pt x="155" y="0" on="1"/>
        <pt x="67" y="0" on="1"/>
      </contour>
    </TTGlyph>
    <TTGlyph name="l" xMin="67" yMin="0" xMax="155" yMax="723">
      <contour>
        <pt x="67" y="723" on="1"/>
        <pt x="155" y="723" on="1"/>
        <pt x="155" y="0" on="1"/>
        <pt x="67" y="0" on="1"/>
      </contour>
    </TTGlyph>
    <TTGlyph name="lacute" xMin="67" yMin="0" xMax="256" yMax="883">
      <component glyphName=".ttfautohint" x="67" y="0" flags="0x0"/>
      <component glyphName="l" x="0" y="0" flags="0x0"/>
      <component glyphName="acute" x="-2" y="160" flags="0x4"/>
    </TTGlyph>
    <TTGlyph name="lcaron" xMin="67" yMin="0" xMax="292" yMax="723">
      <contour>
        <pt x="67" y="723" on="1"/>
        <pt x="155" y="723" on="1"/>
        <pt x="155" y="0" on="1"/>
        <pt x="67" y="0" on="1"/>
      </contour>
      <contour>
        <pt x="241" y="595" on="1"/>
        <pt x="207" y="595" on="1"/>
        <pt x="207" y="686" on="1"/>
        <pt x="292" y="686" on="1"/>
        <pt x="292" y="602" on="1"/>
        <pt x="251" y="490" on="1"/>
        <pt x="207" y="490" on="1"/>
      </contour>
    </TTGlyph>
    <TTGlyph name="lcommaaccent" xMin="67" yMin="-230" xMax="155" yMax="723">
      <component glyphName=".ttfautohint" x="67" y="0" flags="0x0"/>
      <component glyphName="l" x="0" y="0" flags="0x0"/>
      <component glyphName="uni0326" x="222" y="0" flags="0x0"/>
    </TTGlyph>
    <TTGlyph name="ldot" xMin="67" yMin="0" xMax="306" yMax="723">
      <component glyphName=".ttfautohint" x="67" y="0" flags="0x0"/>
      <component glyphName="l" x="0" y="0" flags="0x0"/>
      <component glyphName="periodcentered" x="90" y="0" flags="0x0"/>
    </TTGlyph>
    <TTGlyph name="less" xMin="55" yMin="4" xMax="529" yMax="504">
      <contour>
        <pt x="55" y="200" on="1"/>
        <pt x="55" y="307" on="1"/>
        <pt x="529" y="504" on="1"/>
        <pt x="529" y="414" on="1"/>
        <pt x="136" y="254" on="1"/>
        <pt x="529" y="94" on="1"/>
        <pt x="529" y="4" on="1"/>
      </contour>
    </TTGlyph>
    <TTGlyph name="lessequal" xMin="38" yMin="0" xMax="511" yMax="624">
      <contour>
        <pt x="38" y="320" on="1"/>
        <pt x="38" y="427" on="1"/>
        <pt x="511" y="624" on="1"/>
        <pt x="511" y="534" on="1"/>
        <pt x="119" y="374" on="1"/>
        <pt x="511" y="214" on="1"/>
        <pt x="511" y="124" on="1"/>
      </contour>
      <contour>
        <pt x="38" y="83" on="1"/>
        <pt x="511" y="83" on="1"/>
        <pt x="511" y="0" on="1"/>
        <pt x="38" y="0" on="1"/>
      </contour>
    </TTGlyph>
    <TTGlyph name="lira" xMin="21" yMin="0" xMax="511" yMax="698">
      <contour>
        <pt x="35" y="79" on="1"/>
        <pt x="111" y="79" on="1"/>
        <pt x="111" y="203" on="1"/>
        <pt x="21" y="203" on="1"/>
        <pt x="21" y="275" on="1"/>
        <pt x="111" y="275" on="1"/>
        <pt x="111" y="351" on="1"/>
        <pt x="21" y="351" on="1"/>
        <pt x="21" y="423" on="1"/>
        <pt x="111" y="423" on="1"/>
        <pt x="111" y="499" on="1"/>
        <pt x="111" y="597" on="0"/>
        <pt x="215" y="698" on="0"/>
        <pt x="311" y="698" on="1"/>
        <pt x="408" y="698" on="0"/>
        <pt x="511" y="607" on="0"/>
        <pt x="511" y="504" on="1"/>
        <pt x="511" y="491" on="1"/>
        <pt x="423" y="491" on="1"/>
        <pt x="423" y="507" on="1"/>
        <pt x="423" y="567" on="0"/>
        <pt x="365" y="625" on="0"/>
        <pt x="311" y="625" on="1"/>
        <pt x="254" y="625" on="0"/>
        <pt x="199" y="572" on="0"/>
        <pt x="199" y="515" on="1"/>
        <pt x="199" y="423" on="1"/>
        <pt x="364" y="423" on="1"/>
        <pt x="364" y="351" on="1"/>
        <pt x="198" y="351" on="1"/>
        <pt x="198" y="275" on="1"/>
        <pt x="364" y="275" on="1"/>
        <pt x="364" y="203" on="1"/>
        <pt x="198" y="203" on="1"/>
        <pt x="186" y="79" on="1"/>
        <pt x="511" y="79" on="1"/>
        <pt x="511" y="0" on="1"/>
        <pt x="35" y="0" on="1"/>
      </contour>
    </TTGlyph>
    <TTGlyph name="logicalnot" xMin="56" yMin="197" xMax="529" yMax="453">
      <contour>
        <pt x="445" y="360" on="1"/>
        <pt x="56" y="360" on="1"/>
        <pt x="56" y="453" on="1"/>
        <pt x="529" y="453" on="1"/>
        <pt x="529" y="197" on="1"/>
        <pt x="445" y="197" on="1"/>
      </contour>
    </TTGlyph>
    <TTGlyph name="longs" xMin="9" yMin="0" xMax="275" yMax="731">
      <contour>
        <pt x="86" y="453" on="1"/>
        <pt x="9" y="453" on="1"/>
        <pt x="9" y="526" on="1"/>
        <pt x="86" y="526" on="1"/>
        <pt x="86" y="610" on="1"/>
        <pt x="86" y="662" on="0"/>
        <pt x="138" y="731" on="0"/>
        <pt x="200" y="731" on="1"/>
        <pt x="220" y="731" on="0"/>
        <pt x="261" y="724" on="0"/>
        <pt x="275" y="719" on="1"/>
        <pt x="275" y="658" on="1"/>
        <pt x="223" y="658" on="1"/>
        <pt x="174" y="658" on="0"/>
        <pt x="174" y="610" on="1"/>
        <pt x="174" y="0" on="1"/>
        <pt x="86" y="0" on="1"/>
      </contour>
    </TTGlyph>
    <TTGlyph name="lozenge" xMin="60" yMin="-132" xMax="524" yMax="727">
      <contour>
        <pt x="60" y="298" on="1"/>
        <pt x="239" y="727" on="1"/>
        <pt x="346" y="727" on="1"/>
        <pt x="524" y="298" on="1"/>
        <pt x="346" y="-132" on="1"/>
        <pt x="239" y="-132" on="1"/>
      </contour>
      <contour>
        <pt x="434" y="298" on="1"/>
        <pt x="292" y="656" on="1"/>
        <pt x="150" y="298" on="1"/>
        <pt x="292" y="-61" on="1"/>
      </contour>
    </TTGlyph>
    <TTGlyph name="lslash" xMin="0" yMin="0" xMax="221" yMax="723">
      <contour>
        <pt x="67" y="283" on="1"/>
        <pt x="0" y="227" on="1"/>
        <pt x="0" y="304" on="1"/>
        <pt x="67" y="360" on="1"/>
        <pt x="67" y="723" on="1"/>
        <pt x="155" y="723" on="1"/>
        <pt x="155" y="433" on="1"/>
        <pt x="221" y="488" on="1"/>
        <pt x="221" y="411" on="1"/>
        <pt x="155" y="356" on="1"/>
        <pt x="155" y="0" on="1"/>
        <pt x="67" y="0" on="1"/>
      </contour>
    </TTGlyph>
    <TTGlyph name="m" xMin="67" yMin="0" xMax="769" yMax="538">
      <contour>
        <pt x="67" y="526" on="1"/>
        <pt x="134" y="526" on="1"/>
        <pt x="144" y="455" on="1"/>
        <pt x="151" y="455" on="1"/>
        <pt x="205" y="538" on="0"/>
        <pt x="309" y="538" on="1"/>
        <pt x="411" y="538" on="0"/>
        <pt x="445" y="455" on="1"/>
        <pt x="451" y="455" on="1"/>
        <pt x="478" y="495" on="0"/>
        <pt x="565" y="538" on="0"/>
        <pt x="614" y="538" on="1"/>
        <pt x="769" y="538" on="0"/>
        <pt x="769" y="379" on="1"/>
        <pt x="769" y="0" on="1"/>
        <pt x="681" y="0" on="1"/>
        <pt x="681" y="363" on="1"/>
        <pt x="681" y="420" on="0"/>
        <pt x="631" y="465" on="0"/>
        <pt x="587" y="465" on="1"/>
        <pt x="534" y="465" on="0"/>
        <pt x="462" y="381" on="0"/>
        <pt x="462" y="311" on="1"/>
        <pt x="462" y="0" on="1"/>
        <pt x="374" y="0" on="1"/>
        <pt x="374" y="363" on="1"/>
        <pt x="374" y="420" on="0"/>
        <pt x="326" y="465" on="0"/>
        <pt x="282" y="465" on="1"/>
        <pt x="248" y="465" on="0"/>
        <pt x="190" y="428" on="0"/>
        <pt x="155" y="358" on="0"/>
        <pt x="155" y="311" on="1"/>
        <pt x="155" y="0" on="1"/>
        <pt x="67" y="0" on="1"/>
      </contour>
    </TTGlyph>
    <TTGlyph name="macron" xMin="14" yMin="627" xMax="319" yMax="699">
      <contour>
        <pt x="14" y="699" on="1"/>
        <pt x="319" y="699" on="1"/>
        <pt x="319" y="627" on="1"/>
        <pt x="14" y="627" on="1"/>
      </contour>
    </TTGlyph>
    <TTGlyph name="minus" xMin="56" yMin="214" xMax="528" yMax="297">
      <contour>
        <pt x="56" y="297" on="1"/>
        <pt x="528" y="297" on="1"/>
        <pt x="528" y="214" on="1"/>
        <pt x="56" y="214" on="1"/>
      </contour>
    </TTGlyph>
    <TTGlyph name="minute" xMin="49" yMin="515" xMax="178" yMax="686">
      <contour>
        <pt x="77" y="686" on="1"/>
        <pt x="177" y="686" on="1"/>
        <pt x="178" y="683" on="1"/>
        <pt x="126" y="515" on="1"/>
        <pt x="49" y="515" on="1"/>
      </contour>
    </TTGlyph>
    <TTGlyph name="multiply" xMin="81" yMin="45" xMax="502" yMax="466">
      <contour>
        <pt x="81" y="104" on="1"/>
        <pt x="233" y="255" on="1"/>
        <pt x="81" y="407" on="1"/>
        <pt x="140" y="466" on="1"/>
        <pt x="291" y="314" on="1"/>
        <pt x="443" y="466" on="1"/>
        <pt x="502" y="407" on="1"/>
        <pt x="350" y="255" on="1"/>
        <pt x="502" y="104" on="1"/>
        <pt x="443" y="45" on="1"/>
        <pt x="291" y="197" on="1"/>
        <pt x="140" y="45" on="1"/>
      </contour>
    </TTGlyph>
    <TTGlyph name="n" xMin="67" yMin="0" xMax="492" yMax="538">
      <contour>
        <pt x="67" y="526" on="1"/>
        <pt x="134" y="526" on="1"/>
        <pt x="144" y="455" on="1"/>
        <pt x="151" y="455" on="1"/>
        <pt x="209" y="538" on="0"/>
        <pt x="328" y="538" on="1"/>
        <pt x="407" y="538" on="0"/>
        <pt x="492" y="453" on="0"/>
        <pt x="492" y="359" on="1"/>
        <pt x="492" y="0" on="1"/>
        <pt x="404" y="0" on="1"/>
        <pt x="404" y="353" on="1"/>
        <pt x="404" y="416" on="0"/>
        <pt x="348" y="465" on="0"/>
        <pt x="295" y="465" on="1"/>
        <pt x="257" y="465" on="0"/>
        <pt x="193" y="428" on="0"/>
        <pt x="155" y="358" on="0"/>
        <pt x="155" y="311" on="1"/>
        <pt x="155" y="0" on="1"/>
        <pt x="67" y="0" on="1"/>
      </contour>
    </TTGlyph>
    <TTGlyph name="nacute" xMin="67" yMin="0" xMax="492" yMax="723">
      <component glyphName=".ttfautohint" x="67" y="0" flags="0x0"/>
      <component glyphName="n" x="0" y="0" flags="0x0"/>
      <component glyphName="acute" x="165" y="0" flags="0x0"/>
    </TTGlyph>
</ttFont>
